<?xml version="1.0" standalone="no"?>
<!DOCTYPE svg PUBLIC "-//W3C//DTD SVG 20010904//EN"
 "http://www.w3.org/TR/2001/REC-SVG-20010904/DTD/svg10.dtd">
<svg version="1.0" xmlns="http://www.w3.org/2000/svg"
 width="512.000000pt" height="512.000000pt" viewBox="0 0 512.000000 512.000000"
 preserveAspectRatio="xMidYMid meet">
<metadata>
Created by potrace 1.11, written by Peter Selinger 2001-2013
</metadata>
<g transform="translate(0.000000,512.000000) scale(0.100000,-0.100000)"
fill="#000000" stroke="none">
<path d="M2957 3494 c-1 -1 -27 -5 -59 -8 -179 -21 -358 -108 -486 -237 -98
-99 -186 -251 -213 -371 l-14 -58 -157 0 -158 0 0 -25 c0 -18 5 -25 18 -25 18
0 19 -13 20 -200 1 -110 0 -200 -2 -200 -2 0 -38 68 -81 152 -107 209 -107
210 -145 236 -64 43 -171 22 -209 -42 -21 -35 -75 -135 -132 -243 -21 -39 -46
-87 -56 -105 l-18 -33 -5 152 c-5 149 -6 152 -35 194 -17 24 -50 57 -74 74
l-43 30 -554 3 -554 3 0 -135 0 -135 195 2 195 2 1 -90 c0 -49 1 -245 2 -435
l2 -345 140 0 140 0 1 425 c1 234 2 430 3 435 1 6 56 9 148 8 128 -1 149 -4
160 -19 10 -14 13 -103 13 -393 0 -372 0 -375 23 -408 29 -44 82 -61 136 -45
47 14 78 45 111 108 14 26 55 102 91 168 36 67 103 192 150 278 46 87 86 158
89 157 3 0 77 -147 165 -326 88 -179 170 -338 183 -354 33 -40 113 -56 168
-34 67 27 64 4 64 587 l0 528 34 0 c29 0 33 3 29 19 -7 27 56 154 112 229 57
75 145 156 220 201 52 31 210 92 280 106 54 12 270 14 315 4 25 -6 52 -12 60
-14 97 -22 245 -103 326 -178 l32 -29 -87 -141 c-99 -161 -231 -378 -246 -404
-27 -49 -227 -373 -230 -373 -1 0 -2 111 -2 248 0 136 -3 261 -7 277 -19 86
-175 106 -253 33 -27 -25 -24 -21 -269 -430 -155 -257 -170 -287 -146 -281 79
23 144 -6 180 -77 l19 -40 49 83 c27 45 54 93 62 107 23 43 105 180 107 180 1
0 2 -124 3 -276 0 -258 1 -278 19 -303 30 -41 80 -60 142 -56 94 6 32 -87 636
939 l180 305 17 -37 c10 -20 18 -49 18 -64 0 -24 4 -28 30 -28 17 0 30 -5 31
-12 0 -7 1 -222 2 -478 3 -511 1 -499 66 -572 17 -20 53 -46 79 -59 47 -22 50
-23 502 -24 412 -1 458 0 490 16 80 39 124 129 134 272 l4 57 -56 1 c-104 2
-195 0 -200 -6 -3 -2 -5 -19 -6 -37 l-1 -33 -187 -3 -188 -2 -1 32 c-3 161 0
551 6 556 3 4 85 7 181 7 162 0 177 -1 186 -18 5 -11 8 -30 5 -43 l-4 -24 133
0 134 0 0 85 c0 65 -5 95 -19 124 -26 50 -85 106 -141 134 -43 21 -57 22 -305
22 -253 -1 -262 -1 -305 -24 -68 -35 -113 -91 -136 -171 -4 -14 -7 -162 -6
-330 0 -328 -3 -350 -51 -350 -53 1 -52 -14 -53 437 0 230 2 424 4 431 2 6 17
12 33 12 24 0 29 4 29 25 l0 25 -162 2 -162 3 -17 73 c-10 40 -21 77 -24 82
-3 5 28 66 70 136 42 70 74 128 72 130 -2 3 -15 1 -28 -4 -54 -21 -131 18
-159 81 l-18 41 -29 -48 c-15 -27 -35 -58 -44 -69 -16 -21 -16 -20 -55 17
-109 107 -301 198 -467 221 -46 7 -185 14 -190 9z"/>
<path d="M3845 3480 c-51 -19 -81 -87 -60 -137 29 -68 100 -91 162 -53 30 18
40 35 47 86 11 72 -75 132 -149 104z"/>
<path d="M2352 2004 c-52 -21 -77 -96 -50 -147 18 -35 34 -46 75 -55 50 -11
97 11 118 54 19 41 19 69 -1 103 -31 52 -85 69 -142 45z"/>
</g>
</svg>
