<?xml version="1.0" encoding="utf-8"?>
<!-- Generator: Adobe Illustrator 23.0.2, SVG Export Plug-In . SVG Version: 6.00 Build 0)  -->
<svg version="1.1" id="Layer_1" xmlns="http://www.w3.org/2000/svg" xmlns:xlink="http://www.w3.org/1999/xlink" x="0px" y="0px"
	 viewBox="0 0 177.7 40" style="enable-background:new 0 0 177.7 40;" xml:space="preserve">
<style type="text/css">
	.st0{fill:#8D2143;}
</style>
<g>
	<path class="st0" d="M11.3,15.2h-6V10c1.3,0,2.4-0.1,3.3-0.2C9.5,9.6,10.3,9.4,11,9c0.7-0.4,1.2-0.9,1.6-1.5c0.4-0.6,0.8-1.4,1-2.4
		h6v31.7h-8.3V15.2z"/>
	<path class="st0" d="M30.2,7.5c1.6-1.6,4.1-2.3,7.3-2.3c1.9,0,3.6,0.2,4.8,0.6c1.3,0.4,2.3,1,3.1,1.7c0.8,0.7,1.3,1.7,1.6,2.8
		s0.5,2.3,0.5,3.7c0,0.6-0.1,1.3-0.2,1.9s-0.4,1.3-0.7,1.9c-0.3,0.6-0.8,1.1-1.4,1.5c-0.6,0.4-1.3,0.8-2.1,0.9v0.1
		c1.9,0.4,3.1,1.2,3.9,2.4c0.7,1.3,1.1,2.8,1.1,4.5c0,3.6-0.9,6.2-2.6,7.7c-1.7,1.6-4.3,2.4-7.7,2.4c-1.8,0-3.4-0.1-4.7-0.4
		c-1.3-0.3-2.4-0.8-3.3-1.6s-1.5-1.8-1.9-3.1c-0.4-1.3-0.6-2.9-0.6-4.8H35c0,0.9,0.1,1.6,0.2,2.2c0.1,0.6,0.2,1.1,0.4,1.5
		c0.4,0.8,1,1.2,1.9,1.2c0.5,0,0.9-0.1,1.2-0.2c0.3-0.1,0.5-0.4,0.7-0.8c0.2-0.4,0.3-0.9,0.3-1.5c0.1-0.6,0.1-1.5,0.1-2.4
		c0-1.6-0.2-2.6-0.7-3.1c-0.5-0.5-1.3-0.8-2.3-0.8h-2.1v-5.2h1.2c0.6,0,1.2-0.1,1.6-0.2c0.4-0.1,0.8-0.3,1.1-0.7
		c0.3-0.3,0.5-0.8,0.7-1.4s0.2-1.3,0.2-2.3c0-1.3-0.2-2.2-0.5-2.7c-0.3-0.5-0.9-0.7-1.6-0.7c-0.8,0-1.4,0.3-1.7,0.9
		c-0.3,0.6-0.5,1.8-0.5,3.4h-7.5C27.7,11.4,28.5,9,30.2,7.5z"/>
	<path class="st0" d="M69.9,5.7V12h-12l-0.4,5.3c0.8-0.7,1.6-1.3,2.6-1.7c1-0.4,2.1-0.6,3.2-0.6c2.6,0,4.6,0.8,5.9,2.5
		c1.3,1.6,2,4.2,2,7.6c0,2.1-0.2,3.9-0.5,5.4c-0.3,1.5-0.9,2.8-1.7,3.8c-0.8,1-1.9,1.8-3.2,2.2c-1.3,0.5-3,0.7-4.9,0.7
		c-3.7,0-6.3-0.8-7.9-2.3c-1.6-1.6-2.4-3.8-2.4-6.6v-1h7.8v1.1c0,1.5,0.2,2.5,0.6,3c0.4,0.5,1,0.8,1.7,0.8c0.4,0,0.8-0.1,1.1-0.2
		c0.3-0.1,0.5-0.4,0.7-0.9c0.2-0.5,0.4-1.2,0.4-2.1S63,27,63,25.5c0-1.8-0.2-3-0.6-3.7c-0.4-0.7-1-1.1-1.8-1.1
		c-0.7,0-1.2,0.2-1.7,0.6c-0.4,0.4-0.6,1.1-0.6,2.1h-7.5l0.7-17.6H69.9z"/>
	<path class="st0" d="M105.5,4.9v6.8H94.9v5.5h9.9v6.5h-9.9v13.2h-8.3v-32H105.5z"/>
	<path class="st0" d="M116.1,4.9v32h-8.3v-32H116.1z"/>
	<path class="st0" d="M128.1,4.9V30h10.3v6.8h-18.6v-32H128.1z"/>
	<path class="st0" d="M152.1,4.9l3.4,18.9h0.1l3.4-18.9h11.9v32H163V13h-0.1l-4.4,23.8h-6L148.1,13H148v23.8h-7.8v-32H152.1z"/>
</g>
</svg>
