<?xml version="1.0" encoding="utf-8"?>
<!-- Generator: Adobe Illustrator 23.0.2, SVG Export Plug-In . SVG Version: 6.00 Build 0)  -->
<svg version="1.1" id="Layer_1" xmlns="http://www.w3.org/2000/svg" xmlns:xlink="http://www.w3.org/1999/xlink" x="0px" y="0px"
	 viewBox="0 0 561.9 35.8" style="enable-background:new 0 0 561.9 35.8;" xml:space="preserve">
<style type="text/css">
	.st0{fill:#8D2143;}
</style>
<g>
	<path class="st0" d="M16,3.4l3.1,17.3h0.1l3.1-17.3h10.9v29.2H26V10.8h-0.1l-4,21.8h-5.5l-4-21.8h-0.1v21.8H5.1V3.4H16z"/>
	<path class="st0" d="M53.7,3.4v6.2H44v5h9.1v6H44v5.8h10.1v6.2H36.4V3.4H53.7z"/>
	<path class="st0" d="M68.7,3.4c1.4,0,2.7,0.2,3.7,0.6c1,0.4,1.9,0.9,2.5,1.6C75.6,6.3,76,7.1,76.3,8c0.3,1,0.4,2,0.4,3.1
		c0,2-0.4,3.5-1.2,4.7c-0.8,1.2-2.1,1.9-3.8,2.2v0.1c1.8,0.2,3.1,0.8,3.8,1.9c0.7,1.1,1,2.7,1,4.6v2.5c0,0.4,0,0.8,0,1.2
		c0,0.4,0,0.8,0,1.2c0,0.4,0.1,0.7,0.1,1c0.1,0.3,0.1,0.5,0.2,0.7c0.1,0.2,0.2,0.3,0.3,0.5c0.1,0.1,0.3,0.3,0.5,0.4v0.4h-8.1
		c-0.2-0.4-0.3-0.8-0.4-1.3c-0.1-0.5-0.2-1-0.2-1.6c0-0.5-0.1-1-0.1-1.5c0-0.5,0-0.9,0-1.2v-2c0-0.8,0-1.5-0.1-2
		c-0.1-0.5-0.2-1-0.4-1.3s-0.5-0.5-0.8-0.7c-0.3-0.1-0.7-0.2-1.2-0.2h-2v11.7h-7.6V3.4H68.7z M66,15.7c1.1,0,1.9-0.3,2.4-1
		c0.5-0.6,0.8-1.5,0.8-2.5c0-1.2-0.3-2.1-0.8-2.6c-0.5-0.5-1.3-0.8-2.5-0.8h-1.5v6.9H66z"/>
	<path class="st0" d="M91.5,8.8c-0.3-0.6-0.9-0.9-1.6-0.9c-0.6,0-1,0.1-1.4,0.4c-0.3,0.3-0.6,0.8-0.8,1.6c-0.2,0.8-0.3,1.8-0.3,3.1
		c-0.1,1.3-0.1,2.9-0.1,4.9s0,3.6,0.1,4.9c0.1,1.3,0.2,2.3,0.3,3.1c0.2,0.8,0.4,1.3,0.8,1.6c0.3,0.3,0.8,0.5,1.4,0.5
		c0.5,0,0.8-0.1,1.1-0.3c0.3-0.2,0.5-0.6,0.7-1.2s0.3-1.3,0.3-2.2c0.1-0.9,0.1-2.1,0.1-3.5h7.4V23c0,2-0.3,3.7-0.8,5
		c-0.5,1.3-1.3,2.3-2.2,3.1s-1.9,1.3-3.1,1.5c-1.2,0.3-2.4,0.4-3.6,0.4c-2.1,0-3.9-0.3-5.2-0.8c-1.4-0.5-2.4-1.4-3.2-2.6
		c-0.8-1.2-1.3-2.8-1.6-4.7c-0.3-1.9-0.4-4.2-0.4-7c0-2.8,0.2-5.1,0.5-7.1c0.3-1.9,0.9-3.5,1.7-4.7c0.8-1.2,1.9-2.1,3.2-2.6
		c1.3-0.5,3-0.8,4.9-0.8c1.7,0,3.2,0.2,4.4,0.7c1.2,0.4,2.2,1.1,2.9,1.9c0.7,0.8,1.3,1.8,1.6,2.9c0.3,1.1,0.5,2.4,0.5,3.8v1.8H92
		v-1.6C92,10.6,91.8,9.4,91.5,8.8z"/>
	<path class="st0" d="M109.5,24.4c0,1.4,0.2,2.4,0.6,2.8c0.4,0.5,1,0.7,1.7,0.7c0.7,0,1.3-0.2,1.7-0.7c0.4-0.5,0.6-1.4,0.6-2.8V3.4
		h7.6v19.1c0,2-0.2,3.7-0.7,5.1c-0.4,1.4-1.1,2.5-1.9,3.3c-0.8,0.8-1.9,1.4-3.1,1.7s-2.6,0.5-4.3,0.5c-1.6,0-3-0.2-4.2-0.5
		c-1.2-0.3-2.3-0.9-3.1-1.7c-0.8-0.8-1.5-1.9-1.9-3.3c-0.4-1.4-0.7-3.1-0.7-5.1V3.4h7.6V24.4z"/>
	<path class="st0" d="M136.9,3.4c1.4,0,2.7,0.2,3.7,0.6c1,0.4,1.9,0.9,2.5,1.6c0.6,0.7,1.1,1.5,1.4,2.5c0.3,1,0.4,2,0.4,3.1
		c0,2-0.4,3.5-1.2,4.7c-0.8,1.2-2.1,1.9-3.8,2.2v0.1c1.8,0.2,3.1,0.8,3.8,1.9c0.7,1.1,1,2.7,1,4.6v2.5c0,0.4,0,0.8,0,1.2
		c0,0.4,0,0.8,0,1.2c0,0.4,0.1,0.7,0.1,1c0.1,0.3,0.1,0.5,0.2,0.7c0.1,0.2,0.2,0.3,0.3,0.5c0.1,0.1,0.3,0.3,0.5,0.4v0.4h-8.1
		c-0.2-0.4-0.3-0.8-0.4-1.3c-0.1-0.5-0.2-1-0.2-1.6c0-0.5-0.1-1-0.1-1.5c0-0.5,0-0.9,0-1.2v-2c0-0.8,0-1.5-0.1-2
		c-0.1-0.5-0.2-1-0.4-1.3s-0.5-0.5-0.8-0.7c-0.3-0.1-0.7-0.2-1.2-0.2h-2v11.7H125V3.4H136.9z M134.1,15.7c1.1,0,1.9-0.3,2.4-1
		c0.5-0.6,0.8-1.5,0.8-2.5c0-1.2-0.3-2.1-0.8-2.6c-0.5-0.5-1.3-0.8-2.5-0.8h-1.5v6.9H134.1z"/>
	<path class="st0" d="M145.2,3.4h8.2l2.9,10.2h0.1l2.9-10.2h8.3l-7.4,17.7v11.5h-7.6V21.1L145.2,3.4z"/>
	<path class="st0" d="M190.7,11.1c0-0.9-0.2-1.6-0.5-2.2c-0.4-0.6-0.9-0.9-1.6-0.9c-0.8,0-1.4,0.3-1.8,0.8c-0.4,0.5-0.6,1.1-0.6,1.8
		c0,1,0.3,1.7,0.9,2.3s1.4,1,2.3,1.5c0.9,0.4,1.9,0.8,3,1.2c1.1,0.4,2.1,1,3,1.7c0.9,0.7,1.7,1.6,2.3,2.7s0.9,2.5,0.9,4.3
		c0,3.1-0.9,5.4-2.7,6.8c-1.8,1.4-4.3,2.1-7.7,2.1c-1.6,0-3-0.1-4.2-0.4c-1.2-0.3-2.2-0.7-3.1-1.3c-0.8-0.6-1.5-1.5-1.9-2.5
		c-0.4-1-0.7-2.3-0.7-3.8v-1h7.4v0.7c0,1.3,0.2,2.1,0.7,2.6c0.5,0.5,1.1,0.8,1.8,0.8c0.8,0,1.4-0.3,1.8-0.8c0.4-0.5,0.6-1.2,0.6-2
		c0-1-0.3-1.7-0.9-2.3c-0.6-0.6-1.3-1-2.2-1.4c-0.9-0.4-1.8-0.8-2.9-1.2c-1-0.4-2-0.9-2.9-1.6c-0.9-0.7-1.6-1.5-2.2-2.6
		c-0.6-1.1-0.9-2.5-0.9-4.2c0-3,0.8-5.2,2.4-6.8c1.6-1.6,4-2.3,7.2-2.3c3.3,0,5.7,0.7,7.2,2.1c1.5,1.4,2.2,3.7,2.2,6.8h-7.1V11.1z"
		/>
	<path class="st0" d="M212.4,3.4c1.4,0,2.7,0.2,3.8,0.7c1.1,0.5,1.9,1.1,2.6,1.9c0.7,0.8,1.2,1.8,1.5,2.8c0.3,1.1,0.5,2.3,0.5,3.6
		c0,3-0.8,5.3-2.4,6.8c-1.6,1.5-4,2.3-7.1,2.3h-2.7v11.1H201V3.4H212.4z M210,16c1,0,1.7-0.3,2.2-0.9c0.5-0.6,0.8-1.5,0.8-2.7
		c0-2.4-1-3.6-2.9-3.6h-1.4V16H210z"/>
	<path class="st0" d="M230.8,3.4v10.7h4.7V3.4h7.6v29.2h-7.6v-12h-4.7v12h-7.6V3.4H230.8z"/>
	<path class="st0" d="M244.4,3.4h8.2l2.9,10.2h0.1l2.9-10.2h8.3l-7.4,17.7v11.5h-7.6V21.1L244.4,3.4z"/>
	<path class="st0" d="M287.6,16.7v15.9h-5.2l-0.2-2.6h-0.1c-0.2,0.6-0.6,1.1-1,1.6c-0.5,0.4-1,0.7-1.5,0.9c-0.6,0.2-1.2,0.3-1.8,0.4
		s-1.3,0.1-1.9,0.1c-1.9,0-3.5-0.3-4.6-1c-1.1-0.6-2-1.6-2.5-2.9s-0.9-2.9-1.1-4.7c-0.1-1.9-0.2-4-0.2-6.5c0-2.5,0.1-4.6,0.4-6.5
		c0.3-1.9,0.8-3.5,1.6-4.7c0.8-1.3,1.9-2.3,3.3-2.9c1.4-0.7,3.2-1,5.5-1c1.3,0,2.6,0.2,3.7,0.5c1.1,0.4,2.1,0.9,2.9,1.7
		c0.8,0.8,1.5,1.8,1.9,3c0.5,1.2,0.7,2.7,0.7,4.5h-7.4c0-1.6-0.1-2.7-0.4-3.4c-0.3-0.8-0.9-1.3-1.8-1.3c-0.6,0-1.1,0.1-1.5,0.4
		c-0.4,0.3-0.6,0.8-0.8,1.6c-0.2,0.8-0.3,1.8-0.3,3.1c-0.1,1.3-0.1,2.9-0.1,4.9s0,3.6,0.1,4.9c0.1,1.3,0.2,2.3,0.3,3.1
		c0.2,0.8,0.4,1.3,0.8,1.6c0.3,0.3,0.8,0.5,1.4,0.5c0.4,0,0.8-0.1,1.1-0.2c0.3-0.2,0.6-0.5,0.8-0.9c0.2-0.5,0.4-1.1,0.5-1.9
		c0.1-0.8,0.2-1.8,0.2-3.1h-2.7v-5.2H287.6z"/>
	<path class="st0" d="M301.3,3.4l3.1,17.3h0.1l3.1-17.3h10.9v29.2h-7.1V10.8h-0.1l-4,21.8h-5.5l-4-21.8h-0.1v21.8h-7.1V3.4H301.3z"
		/>
	<path class="st0" d="M321.4,11c0.4-1.9,0.9-3.5,1.8-4.7c0.8-1.2,1.9-2.1,3.2-2.7c1.3-0.6,3-0.8,4.9-0.8s3.6,0.3,4.9,0.8
		c1.3,0.6,2.4,1.4,3.2,2.7c0.8,1.2,1.4,2.8,1.8,4.7c0.4,1.9,0.5,4.2,0.5,7s-0.2,5-0.5,7c-0.4,1.9-0.9,3.5-1.8,4.7
		c-0.8,1.2-1.9,2.1-3.2,2.6c-1.3,0.5-3,0.8-4.9,0.8s-3.6-0.3-4.9-0.8c-1.3-0.5-2.4-1.4-3.2-2.6c-0.8-1.2-1.4-2.8-1.8-4.7
		c-0.4-1.9-0.5-4.2-0.5-7S321,12.9,321.4,11z M328.8,22.9c0.1,1.3,0.2,2.3,0.3,3.1c0.2,0.8,0.4,1.3,0.8,1.6c0.3,0.3,0.8,0.5,1.4,0.5
		c0.6,0,1-0.1,1.4-0.5c0.3-0.3,0.6-0.8,0.8-1.6c0.2-0.8,0.3-1.8,0.3-3.1c0.1-1.3,0.1-2.9,0.1-4.9s0-3.6-0.1-4.9s-0.2-2.3-0.3-3.1
		c-0.2-0.8-0.4-1.3-0.8-1.6s-0.8-0.4-1.4-0.4c-0.6,0-1,0.1-1.4,0.4c-0.3,0.3-0.6,0.8-0.8,1.6c-0.2,0.8-0.3,1.8-0.3,3.1
		s-0.1,2.9-0.1,4.9S328.7,21.6,328.8,22.9z"/>
	<path class="st0" d="M355,3.4l3.1,17.3h0.1l3.1-17.3h10.9v29.2H365V10.8h-0.1l-4,21.8h-5.5l-4-21.8h-0.1v21.8h-7.1V3.4H355z"/>
	<path class="st0" d="M389.8,3.4l7.1,29.2h-8.1l-0.8-5.1H382l-0.8,5.1h-8l7-29.2H389.8z M384.9,9.3l-2.1,12.4h4.3L384.9,9.3
		L384.9,9.3z"/>
	<path class="st0" d="M406.7,3.4l4.9,18h0.1v-18h7.1v29.2h-8.3l-5.1-18h-0.1v18h-7.1V3.4H406.7z"/>
	<path class="st0" d="M422,11c0.4-1.9,0.9-3.5,1.8-4.7c0.8-1.2,1.9-2.1,3.2-2.7c1.3-0.6,3-0.8,4.9-0.8s3.6,0.3,4.9,0.8
		c1.3,0.6,2.4,1.4,3.2,2.7c0.8,1.2,1.4,2.8,1.8,4.7c0.4,1.9,0.5,4.2,0.5,7s-0.2,5-0.5,7c-0.4,1.9-0.9,3.5-1.8,4.7
		c-0.8,1.2-1.9,2.1-3.2,2.6c-1.3,0.5-3,0.8-4.9,0.8s-3.6-0.3-4.9-0.8c-1.3-0.5-2.4-1.4-3.2-2.6c-0.8-1.2-1.4-2.8-1.8-4.7
		c-0.4-1.9-0.5-4.2-0.5-7S421.7,12.9,422,11z M429.4,22.9c0.1,1.3,0.2,2.3,0.3,3.1c0.2,0.8,0.4,1.3,0.8,1.6c0.3,0.3,0.8,0.5,1.4,0.5
		c0.6,0,1-0.1,1.4-0.5c0.3-0.3,0.6-0.8,0.8-1.6c0.2-0.8,0.3-1.8,0.3-3.1c0.1-1.3,0.1-2.9,0.1-4.9s0-3.6-0.1-4.9s-0.2-2.3-0.3-3.1
		c-0.2-0.8-0.4-1.3-0.8-1.6s-0.8-0.4-1.4-0.4c-0.6,0-1,0.1-1.4,0.4c-0.3,0.3-0.6,0.8-0.8,1.6c-0.2,0.8-0.3,1.8-0.3,3.1
		s-0.1,2.9-0.1,4.9S429.4,21.6,429.4,22.9z"/>
	<path class="st0" d="M455.7,3.4l3.1,17.3h0.1l3.1-17.3h10.9v29.2h-7.1V10.8h-0.1l-4,21.8h-5.5l-4-21.8h-0.1v21.8h-7.1V3.4H455.7z"
		/>
	<path class="st0" d="M493.4,3.4v6.2h-9.7v5h9.1v6h-9.1v5.8h10.1v6.2h-17.7V3.4H493.4z"/>
	<path class="st0" d="M494.7,9.8V3.4h19v6.5H508v22.7h-7.6V9.8H494.7z"/>
	<path class="st0" d="M532.7,3.4v6.2H523v5h9.1v6H523v5.8h10.1v6.2h-17.7V3.4H532.7z"/>
	<path class="st0" d="M547.8,3.4c1.4,0,2.7,0.2,3.7,0.6s1.9,0.9,2.5,1.6c0.6,0.7,1.1,1.5,1.4,2.5c0.3,1,0.4,2,0.4,3.1
		c0,2-0.4,3.5-1.2,4.7c-0.8,1.2-2.1,1.9-3.8,2.2v0.1c1.8,0.2,3.1,0.8,3.8,1.9c0.7,1.1,1,2.7,1,4.6v2.5c0,0.4,0,0.8,0,1.2
		c0,0.4,0,0.8,0,1.2c0,0.4,0.1,0.7,0.1,1c0.1,0.3,0.1,0.5,0.2,0.7c0.1,0.2,0.2,0.3,0.3,0.5c0.1,0.1,0.3,0.3,0.5,0.4v0.4h-8.1
		c-0.2-0.4-0.3-0.8-0.4-1.3c-0.1-0.5-0.2-1-0.2-1.6c0-0.5-0.1-1-0.1-1.5c0-0.5,0-0.9,0-1.2v-2c0-0.8,0-1.5-0.1-2
		c-0.1-0.5-0.2-1-0.4-1.3s-0.5-0.5-0.8-0.7s-0.7-0.2-1.2-0.2h-2v11.7h-7.6V3.4H547.8z M545,15.7c1.1,0,1.9-0.3,2.4-1
		c0.5-0.6,0.8-1.5,0.8-2.5c0-1.2-0.3-2.1-0.8-2.6c-0.5-0.5-1.3-0.8-2.5-0.8h-1.5v6.9H545z"/>
</g>
</svg>
