<?xml version="1.0" encoding="utf-8"?>
<!-- Generator: Adobe Illustrator 22.0.1, SVG Export Plug-In . SVG Version: 6.00 Build 0)  -->
<!DOCTYPE svg PUBLIC "-//W3C//DTD SVG 1.1//EN" "http://www.w3.org/Graphics/SVG/1.1/DTD/svg11.dtd">
<svg version="1.1" id="Layer_1" xmlns="http://www.w3.org/2000/svg" xmlns:xlink="http://www.w3.org/1999/xlink" x="0px" y="0px"
	 viewBox="0 0 83.9 33.2" style="enable-background:new 0 0 83.9 33.2;" xml:space="preserve">
<style type="text/css">
	.st0{fill:#8D2143;}
</style>
<g>
	<path class="st0" d="M1.4,1.8H9l3.4,13.6c0.9,3.2,1.5,6.3,2.3,9.5h0.2c0.9-3.2,1.5-6.3,2.3-9.5l3.4-13.6h7.3L19,31.6h-8.5L1.4,1.8z
		"/>
	<path class="st0" d="M30.9,1.8h7.2v11.3h9.8V1.8H55v29.7h-7.1V19.3h-9.8v12.2H31V1.8H30.9z"/>
	<path class="st0" d="M60,27.8l4-4.9c2.1,1.8,4.9,3,7.2,3c2.7,0,3.9-1,3.9-2.6c0-1.7-1.7-2.3-4.2-3.4l-3.8-1.6c-3.1-1.2-6-3.9-6-8.1
		c0-5,4.5-9,10.8-9c3.4,0,7.1,1.3,9.7,3.9l-3.5,4.6c-1.9-1.5-3.8-2.3-6.1-2.3c-2.2,0-3.6,0.9-3.6,2.5s1.9,2.3,4.5,3.3l3.7,1.5
		c3.7,1.5,5.9,4,5.9,8.1c0,4.9-4.2,9.3-11.3,9.3C67.2,32,63,30.7,60,27.8z"/>
</g>
</svg>
