<?xml version="1.0" encoding="utf-8"?>
<!-- Generator: Adobe Illustrator 23.0.2, SVG Export Plug-In . SVG Version: 6.00 Build 0)  -->
<svg version="1.1" id="Layer_1" xmlns="http://www.w3.org/2000/svg" xmlns:xlink="http://www.w3.org/1999/xlink" x="0px" y="0px"
	 viewBox="0 0 960 600" style="enable-background:new 0 0 960 600;" xml:space="preserve">
<style type="text/css">
	.st0{fill:#333333;}
	.st1{font-family:'GenJyuuGothicL-Monospace-Medium';}
	.st2{font-size:128.3423px;}
	.st3{font-size:93.6898px;}
	.st4{font-size:78.2888px;}
	.st5{font-size:62.8877px;}
	.st6{font-size:37.2193px;}
	.st7{font-size:12.8342px;}
</style>
<text transform="matrix(1 0 0 1 344.5986 202.46)" class="st0 st1 st2">不知道</text>
<text transform="matrix(1 0 0 1 102.0317 433.4766)" class="st0 st1 st2">溫度計</text>
<text transform="matrix(1 0 0 1 312.9941 307.7007)" class="st0 st1 st3">聽診器</text>
<text transform="matrix(1 0 0 1 464.4546 451.4434)" class="st0 st1 st4">體溫計</text>
<text transform="matrix(1 0 0 1 418.7168 89.9149)" class="st0 st1 st5">不知</text>
<text transform="matrix(1 0 0 1 243.0479 219.1445)" class="st0 st1 st6">壓力計</text>
<text transform="matrix(1 0 0 1 143.1016 315.4014)" class="st0 st1 st6">醫療器材</text>
<text transform="matrix(1 0 0 1 722.8877 135.7217)" class="st0 st1 st6">不知道沒概念</text>
<text transform="matrix(1 0 0 1 651.0156 335.9355)" class="st0 st1 st6">無</text>
<text transform="matrix(1 0 0 1 722.8877 95.9355)" class="st0 st1 st7">溫度測量器</text>
<text transform="matrix(1 0 0 1 651.0156 293.583)" class="st0 st1 st7">心跳測量計</text>
<text transform="matrix(1 0 0 1 292.6201 135.7217)" class="st0 st1 st7">健康器材</text>
<text transform="matrix(1 0 0 1 180.6416 205.0269)" class="st0 st1 st7">耳溫計</text>
<text transform="matrix(1 0 0 1 209.8394 262.7808)" class="st0 st1 st7">聽診器溫度計</text>
<text transform="matrix(1 0 0 1 729.2573 172.191)" class="st0 st1 st7">量身高的</text>
<text transform="matrix(1 0 0 1 615.4004 231.9785)" class="st0 st1 st7">電子式血壓計</text>
<text transform="matrix(1 0 0 1 769.7324 428.3418)" class="st0 st1 st7">量身高</text>
<text transform="matrix(1 0 0 1 757.8604 279.4653)" class="st0 st1 st7">超音波清洗機</text>
<text transform="matrix(1 0 0 1 411.6351 464.2783)" class="st0 st1 st7">氣壓機</text>
<text transform="matrix(1 0 0 1 588.5798 331.2346)" class="st0 st1 st7">壓脈帶</text>
<text transform="matrix(1 0 0 1 742.1387 154.9736)" class="st0 st1 st7">脈搏測量器</text>
<text transform="matrix(1 0 0 1 531.0156 475.8291)" class="st0 st1 st7">感應器</text>
<text transform="matrix(1 0 0 1 530.6953 335.9355)" class="st0 st1 st7">燈具</text>
<text transform="matrix(1 0 0 1 497.3262 335.9355)" class="st0 st1 st7">忘了</text>
<text transform="matrix(1 0 0 1 780.9619 477.1123)" class="st0 st1 st7">把脈</text>
<text transform="matrix(1 0 0 1 718.0742 294.8662)" class="st0 st1 st7">量器</text>
<text transform="matrix(1 0 0 1 459.7861 478.3955)" class="st0 st1 st7">心跳偵測計</text>
<text transform="matrix(1 0 0 1 747.9141 370.5884)" class="st0 st1 st7">量心跳</text>
<g>
	<text transform="matrix(1 0 0 1 561.8184 351.3369)" class="st0 st1 st7">側聽器</text>
</g>
<text transform="matrix(1 0 0 1 322.1387 94.6523)" class="st0 st1 st7">溫度測量</text>
<text transform="matrix(1 0 0 1 538.7168 492.5137)" class="st0 st1 st7">壓縮機</text>
<text transform="matrix(1 0 0 1 264.7056 75.4014)" class="st0 st1 st7">水銀溫度計</text>
<text transform="matrix(1 0 0 1 234.5449 244.813)" class="st0 st1 st7">助聽器</text>
<text transform="matrix(1 0 0 1 602.8877 248.6631)" class="st0 st1 st7">壓力錶</text>
<text transform="matrix(1 0 0 1 726.3696 195.2925)" class="st0 st1 st7">體重計</text>
<text transform="matrix(1 0 0 1 773.9033 493.7969)" class="st0 st1 st7">壓力測量</text>
<text transform="matrix(1 0 0 1 135.0352 274.3315)" class="st0 st1 st7">節拍器</text>
<text transform="matrix(1 0 0 1 677.3262 480.9629)" class="st0 st1 st7">量油溫</text>
<text transform="matrix(1 0 0 1 604.1709 474.5449)" class="st0 st1 st7">裁紙機</text>
<text transform="matrix(1 0 0 1 254.4385 156.2568)" class="st0 st1 st7">辦公室用品</text>
<text transform="matrix(1 0 0 1 211.1226 151.123)" class="st0 st1 st7">儀器</text>
<text transform="matrix(1 0 0 1 469.4111 352.6201)" class="st0 st1 st7">口風琴</text>
<text transform="matrix(1 0 0 1 707.166 261.4971)" class="st0 st1 st7">測酸鹼度</text>
<text transform="matrix(1 0 0 1 602.8877 307.7007)" class="st0 st1 st7">測脈搏</text>
<text transform="matrix(1 0 0 1 498.9297 373.1553)" class="st0 st1 st7">量測器</text>
<text transform="matrix(1 0 0 1 781.6035 80.5352)" class="st0 st1 st7">量脈搏的</text>
<text transform="matrix(1 0 0 1 456.5771 224.2783)" class="st0 st1 st7">數據機</text>
<text transform="matrix(1 0 0 1 732.145 211.9771)" class="st0 st1 st7">血壓溫度計</text>
<text transform="matrix(1 0 0 1 546.7373 368.0215)" class="st0 st1 st7">測心律的</text>
<text transform="matrix(1 0 0 1 702.9941 321.8184)" class="st0 st1 st7">溫測機</text>
<text transform="matrix(1 0 0 1 230.0532 181.9253)" class="st0 st1 st7">量測用工具</text>
<text transform="matrix(1 0 0 1 332.085 464.2783)" class="st0 st1 st7">溫度儀</text>
<text transform="matrix(1 0 0 1 751.7646 302.5669)" class="st0 st1 st7">充電器</text>
<text transform="matrix(1 0 0 1 159.4648 246.0962)" class="st0 st1 st7">電子血壓計</text>
<text transform="matrix(1 0 0 1 607.7002 274.3315)" class="st0 st1 st7">聽診</text>
<text transform="matrix(1 0 0 1 423.6895 202.46)" class="st0 st1 st7">離子夾</text>
</svg>
