<?xml version="1.0" encoding="utf-8"?>
<!-- Generator: Adobe Illustrator 22.0.1, SVG Export Plug-In . SVG Version: 6.00 Build 0)  -->
<!DOCTYPE svg PUBLIC "-//W3C//DTD SVG 1.1//EN" "http://www.w3.org/Graphics/SVG/1.1/DTD/svg11.dtd">
<svg version="1.1" id="Layer_1" xmlns="http://www.w3.org/2000/svg" xmlns:xlink="http://www.w3.org/1999/xlink" x="0px" y="0px"
	 viewBox="0 0 884 369.9" style="enable-background:new 0 0 884 369.9;" xml:space="preserve">
<style type="text/css">
	.st0{fill:#FFFFFF;}
</style>
<g>
	<g>
		<path class="st0" d="M716.5,291.1L716.5,291.1c0,0.2,0,0.4,0,0.5C716.5,291.4,716.5,291.2,716.5,291.1z"/>
		<path class="st0" d="M6.5,145.9h174.7c0,0,15.4-1.7,28.6,12.3c13.1,14,10.9,25.9,10.9,25.9v41.6l35.6-66.3c0,0,4.8-11.9,22.4-11.9
			c17.6,0,22,12.8,22,12.8l30.7,60.1l0-71.5h-6.1v-7.9h53.5c0,0,3.5-40.4,41.7-76.8c38.2-36.4,87-38.2,100.8-38.2
			c31.9,0,73.4,13.6,99.8,39.1c26.4,25.4,37.3,58.4,39.5,76h55.3l0,7.9h-11.4v140.9c0,0-1.3,9.2,8.4,9.2c9.6,0,9.6-7.9,9.6-10.5
			v-97.4c0,0,1.3-33.8,36-40.8l76.8,0c0,0,13.2-1.3,28.9,13.7c15.8,14.9,13.1,27.2,13.1,27.2v20.6H833v-9.6c0,0,0.1-4.7-4.2-4.7h-55
			c0,0-5.7-0.2-5.7,4.7v92.5c0,0-1.2,4.7,4.6,4.7h56.2c0,0,4.2,0.2,4.2-4.7v-9.7h43.5v9.7c0,0-1.6,44.3-29.8,49.2H702.1
			c0,0-39.9-0.4-41.6-43.6V149h-10.6l0-7.6c0,0-5.8-27-35.8-53.3c-30-26.3-61.9-36.2-93.8-36.2c-31.9,0-63.2,12.2-79.3,22.7
			c-16.1,10.5-38.9,30.3-53.3,66.8v7.6h-10.5v176.4c0,0-1.3,15.1-19.5,15.1c-18.1,0-22.1-10.5-24-14.1l-54.9-111l-58.9,108.7
			c0,0-5.9,15.1-22.4,15.1c-16.5,0-20.7-15.5-20.7-17.4l0-122.1c0,0,1-8.6-9.2-8.6H121v147.8H73.6V191.1H6.5V145.9z"/>
		<path class="st0" d="M433.1,296.2c0,10.1-8.2,18.4-18.4,18.4c-10.2,0-18.4-8.2-18.4-18.4c0-10.2,8.2-18.4,18.4-18.4
			C424.8,277.8,433.1,286.1,433.1,296.2z"/>
		<path class="st0" d="M686,45.6c0,10.2-8.2,18.4-18.4,18.4c-10.2,0-18.4-8.2-18.4-18.4c0-10.1,8.2-18.4,18.4-18.4
			C677.8,27.2,686.1,35.4,686,45.6z"/>
		<path class="st0" d="M667.8,70c-12.7,0-23-9.7-24.2-22.2L520.6,250.4v-88.6c0-5.3-6.6-16.8-23.7-16.8c-17.1,0-25,13.2-25,13.2
			l-70.8,117.7c3.9-2.6,8.6-4.1,13.6-4.1c12.8,0,23.3,10,24.2,22.6l38.6-65.7v91.2c0,6.6,6.6,19.4,25.4,19.4
			c18.8,0,24.4-15.5,24.4-15.5L679,67.2C675.6,69,671.8,70,667.8,70z"/>
	</g>
</g>
</svg>
