<?xml version="1.0" encoding="utf-8"?>
<!-- Generator: Adobe Illustrator 23.0.2, SVG Export Plug-In . SVG Version: 6.00 Build 0)  -->
<svg version="1.1" id="Layer_1" xmlns="http://www.w3.org/2000/svg" xmlns:xlink="http://www.w3.org/1999/xlink" x="0px" y="0px"
	 viewBox="0 0 960 600" style="enable-background:new 0 0 960 600;" xml:space="preserve">
<style type="text/css">
	.st0{fill:#CEDB9C;}
	.st1{font-family:'NotoSansHant-Bold-B5pc-H';}
	.st2{font-size:91.7277px;}
	.st3{fill:#6B6ECF;}
	.st4{font-size:125.6544px;}
	.st5{fill:#637939;}
	.st6{font-size:61.5707px;}
	.st7{fill:#E7CB94;}
	.st8{font-size:36.4398px;}
	.st9{fill:#A55194;}
	.st10{fill:#9C9EDE;}
	.st11{font-size:12.5654px;}
	.st12{fill:#B5CF6B;}
	.st13{fill:#8C6D31;}
	.st14{font-size:76.6492px;}
	.st15{fill:#BD9E39;}
	.st16{fill:#E7BA52;}
	.st17{fill:#843C39;}
	.st18{fill:#AD494A;}
	.st19{fill:#D6616B;}
	.st20{fill:#E7969C;}
	.st21{fill:#7B4173;}
	.st22{fill:#CE6DBD;}
	.st23{fill:#DE9ED6;}
	.st24{fill:#393B79;}
	.st25{fill:#5254A3;}
	.st26{fill:#8CA252;}
</style>
<text transform="matrix(1 0 0 1 513.7695 253.5078)" class="st0 st1 st2">聽診器</text>
<text transform="matrix(1 0 0 1 445.4453 391.7275)" class="st3 st1 st4">不知道</text>
<text transform="matrix(1 0 0 1 355.916 220.8384)" class="st5 st1 st6">不知</text>
<text transform="matrix(1 0 0 1 807.3663 292.4609)" class="st7 st1 st8">無</text>
<text transform="matrix(1 0 0 1 646.8066 440.7324)" class="st9 st1 st8">不知道沒概念</text>
<text transform="matrix(1 0 0 1 785.6543 256.0205)" class="st10 st1 st11">燈具</text>
<text transform="matrix(1 0 0 1 99.8955 336.4395)" class="st12 st1 st4">溫度計</text>
<text transform="matrix(1 0 0 1 224.6067 418.1152)" class="st13 st1 st14">體溫計</text>
<text transform="matrix(1 0 0 1 249.2676 207.0156)" class="st15 st1 st8">壓力計</text>
<text transform="matrix(1 0 0 1 676.4 286.1777)" class="st3 st1 st8">?</text>
<text transform="matrix(1 0 0 1 340.3665 460.8379)" class="st16 st1 st8">醫療器材</text>
<text transform="matrix(1 0 0 1 815.9897 357.8008)" class="st7 st1 st11">溫度測量器</text>
<text transform="matrix(1 0 0 1 265.4453 229.6328)" class="st17 st1 st11">心跳測量計</text>
<text transform="matrix(1 0 0 1 173.8743 441.9893)" class="st18 st1 st11">健康器材</text>
<text transform="matrix(1 0 0 1 785.6543 196.9629)" class="st19 st1 st11">耳溫計</text>
<text transform="matrix(1 0 0 1 670.3672 168.0625)" class="st20 st1 st11">聽診器溫度計</text>
<text transform="matrix(1 0 0 1 460.3667 243.4551)" class="st21 st1 st11">量身高的</text>
<text transform="matrix(1 0 0 1 725.3322 278.6387)" class="st9 st1 st11">電子式血壓計</text>
<text transform="matrix(1 0 0 1 815.9902 374.1357)" class="st22 st1 st11">量身高</text>
<text transform="matrix(1 0 0 1 544.7119 426.9111)" class="st23 st1 st11">超音波清洗機</text>
<text transform="matrix(1 0 0 1 247.6956 473.4033)" class="st24 st1 st11">氣壓機</text>
<text transform="matrix(1 0 0 1 359.5286 479.6855)" class="st25 st1 st11">壓脈帶</text>
<text transform="matrix(1 0 0 1 324.5029 141.6758)" class="st3 st1 st11">脈搏測量器</text>
<text transform="matrix(1 0 0 1 192.0294 361.5703)" class="st10 st1 st11">感應器</text>
<text transform="matrix(1 0 0 1 455.0799 326.3654)" class="st10 st1 st11">忘了</text>
<text transform="matrix(1 0 0 1 540.9808 330.1562)" class="st5 st1 st11">把脈</text>
<text transform="matrix(1 0 0 1 393.9268 131.6235)" class="st26 st1 st11">量器</text>
<text transform="matrix(1 0 0 1 467.749 425.6543)" class="st12 st1 st11">心跳偵測計</text>
<text transform="matrix(1 0 0 1 275.3401 445.7588)" class="st0 st1 st11">量心跳</text>
<text transform="matrix(1 0 0 1 573.9268 459.5811)" class="st13 st1 st11">側聽氣</text>
<text transform="matrix(1 0 0 1 516.7869 286.1777)" class="st15 st1 st11">溫度測量</text>
<text transform="matrix(1 0 0 1 520.5234 440.7324)" class="st26 st1 st11">不</text>
<text transform="matrix(1 0 0 1 461.3091 266.0732)" class="st16 st1 st11">壓縮機</text>
<text transform="matrix(1 0 0 1 171.2041 230.8896)" class="st7 st1 st11">水銀溫度計</text>
<text transform="matrix(1 0 0 1 230.1047 438.2197)" class="st17 st1 st11">梨子夾</text>
<text transform="matrix(1 0 0 1 529.7947 389.2148)" class="st18 st1 st11">助聽器</text>
<text transform="matrix(1 0 0 1 447.3991 401.7803)" class="st19 st1 st11">壓力錶</text>
<text transform="matrix(1 0 0 1 413.0563 347.748)" class="st20 st1 st11">些</text>
<text transform="matrix(1 0 0 1 453.7698 478.4287)" class="st21 st1 st11">體重計</text>
<text transform="matrix(1 0 0 1 492.5649 173.0889)" class="st9 st1 st11">壓力測量</text>
<text transform="matrix(1 0 0 1 201.2034 459.5811)" class="st22 st1 st11">節拍器</text>
<text transform="matrix(1 0 0 1 627.144 286.1777)" class="st23 st1 st11">量油溫</text>
<text transform="matrix(1 0 0 1 473.4028 136.6489)" class="st24 st1 st11">裁紙機</text>
<text transform="matrix(1 0 0 1 373.5078 163.0376)" class="st25 st1 st11">辦公室用品</text>
<text transform="matrix(1 0 0 1 826.5122 391.7275)" class="st3 st1 st11">儀器</text>
<text transform="matrix(1 0 0 1 182.9836 423.1406)" class="st10 st1 st11">口風琴</text>
<text transform="matrix(1 0 0 1 166.8066 406.8057)" class="st5 st1 st11">測酸鹼度?</text>
<text transform="matrix(1 0 0 1 729.7383 135.3926)" class="st26 st1 st11">測脈搏</text>
<text transform="matrix(1 0 0 1 462.0942 152.9844)" class="st12 st1 st11">量測器</text>
<text transform="matrix(1 0 0 1 565.4448 169.3193)" class="st0 st1 st11">量脈搏的</text>
<text transform="matrix(1 0 0 1 821.644 316.335)" class="st13 st1 st11">數據機</text>
<text transform="matrix(1 0 0 1 824.7847 337.6963)" class="st15 st1 st11">血壓溫度計</text>
<text transform="matrix(1 0 0 1 523.979 147.958)" class="st16 st1 st11">測心律的</text>
<text transform="matrix(1 0 0 1 178.5864 380.4189)" class="st7 st1 st11">溫測機</text>
<text transform="matrix(1 0 0 1 623.5605 151.7275)" class="st17 st1 st11">量測用工具</text>
<text transform="matrix(1 0 0 1 144.2809 366.5967)" class="st18 st1 st11">溫度儀</text>
<text transform="matrix(1 0 0 1 315.5491 487.2246)" class="st9 st1 st11">充電器</text>
<text transform="matrix(1 0 0 1 372.252 112.7749)" class="st19 st1 st11">電子血壓計</text>
<text transform="matrix(1 0 0 1 579.5815 281.1514)" class="st20 st1 st11">聽診</text>
</svg>
