<svg xmlns="http://www.w3.org/2000/svg" width="960" height="600"><style><![CDATA[.B{text-anchor:middle}.C{font-family:impact}.D{font-size:10px}.E{font-size:29px}.F{fill:#6b6ecf}.G{fill:#e7cb94}.H{fill:#a55194}.I{fill:#9c9ede}.J{fill:#637939}.K{fill:#b5cf6b}.L{fill:#cedb9c}.M{fill:#8c6d31}.N{fill:#bd9e39}.O{fill:#e7ba52}.P{fill:#843c39}.Q{fill:#ad494a}.R{fill:#d6616b}.S{fill:#e7969c}.T{fill:#8ca252}]]></style><g transform="matrix(1.256544 0 0 1.256544 480 300)" class="B C"><text transform="translate(85 73)" font-size="100" class="F">不知道</text><text transform="translate(-62 -60)" font-size="49" class="J">不知</text><text transform="translate(244 -6)" class="E G">無</text><text transform="translate(198 112)" class="E H">不知道沒概念</text><text transform="translate(226 -35)" class="D I">燈具</text><text transform="translate(-190 29)" font-size="100" class="K">溫度計</text><text transform="translate(109 -37)" font-size="73" class="L">聽診器</text><text transform="translate(-144 94)" font-size="61" class="M">體溫計</text><text transform="translate(-151 -74)" class="E N">壓力計</text><text transform="translate(139 -1)" class="E F">?</text><text transform="translate(-77 128)" class="E O">醫療器材</text><text transform="translate(255 46)" class="D G">溫度測量器</text><text transform="translate(-152 -56)" class="D P">心跳測量計</text><text transform="translate(-238 113)" class="D Q">健康器材</text><text transform="translate(231 -82)" class="D R">耳溫計</text><text transform="translate(174 -105)" class="D S">聽診器溫度計</text><text transform="translate(-39 -45)" fill="#7b4173" class="D">量身高的</text><text transform="translate(192 -17)" class="D H">電子式血壓計</text><text transform="translate(247 59)" fill="#ce6dbd" class="D">量身高</text><text transform="translate(74 101)" fill="#de9ed6" class="D">超音波清洗機</text><text transform="translate(-183 138)" fill="#393b79" class="D">氣壓機</text><text transform="translate(-94 143)" fill="#5254a3" class="D">壓脈帶</text><text transform="translate(-105 -123)" class="D F">脈搏測量器</text><text transform="translate(-254 49)" class="D I">感應器</text><text transform="translate(-36 16)" class="D I">忘了</text><text transform="translate(17 24)" class="D J">把脈</text><text transform="translate(-61 -131)" class="D T">量器</text><text transform="translate(9 100)" class="D K">心跳偵測計</text><text transform="translate(-161 116)" class="D L">量心跳</text><text transform="translate(86 127)" class="D M">側聽氣</text><text transform="translate(10 -11)" class="D N">溫度測量</text><text transform="translate(36 112)" class="D T">不</text><text transform="translate(-42 -27)" class="D O">壓縮機</text><text transform="translate(-227 -55)" class="D G">水銀溫度計</text><text transform="translate(-197 110)" class="D P">梨子夾</text><text transform="translate(16 71)" class="D Q">助聽器</text><text transform="translate(-44 81)" class="D R">壓力錶</text><text transform="translate(-57 38)" class="D S">些</text><text transform="translate(-19 142)" fill="#7b4173" class="D">體重計</text><text transform="translate(15 -101)" class="D H">壓力測量</text><text transform="translate(-220 127)" fill="#ce6dbd" class="D">節拍器</text><text transform="translate(86 -9)" fill="#de9ed6" class="D">量油溫</text><text transform="translate(-4 -130)" fill="#393b79" class="D">裁紙機</text><text transform="translate(-66 -106)" fill="#5254a3" class="D">辦公室用品</text><text transform="translate(246 73)" class="D F">儀器</text><text transform="translate(-253 98)" class="D I">口風琴</text><text transform="translate(-261 85)" class="D J">測酸鹼度?</text><text transform="translate(210 -131)" class="D T">測脈搏</text><text transform="translate(-13 -117)" class="D K">量測器</text><text transform="translate(73 -104)" class="D L">量脈搏的</text><text transform="translate(252 13)" class="D M">數據機</text><text transform="translate(262 30)" class="D N">血壓溫度計</text><text transform="translate(40 -121)" class="D O">測心律的</text><text transform="translate(-258 64)" class="D G">溫測機</text><text transform="translate(133 -118)" class="D P">量測用工具</text><text transform="translate(-292 53)" class="D Q">溫度儀</text><text transform="translate(-129 149)" class="D H">充電器</text><text transform="translate(-67 -146)" class="D R">電子血壓計</text><text transform="translate(45 -15)" class="D S">聽診</text></g></svg>