<?xml version="1.0" encoding="utf-8"?>
<!-- Generator: Adobe Illustrator 23.0.2, SVG Export Plug-In . SVG Version: 6.00 Build 0)  -->
<svg version="1.1" id="Layer_1" xmlns="http://www.w3.org/2000/svg" xmlns:xlink="http://www.w3.org/1999/xlink" x="0px" y="0px"
	 viewBox="0 0 960 600" style="enable-background:new 0 0 960 600;" xml:space="preserve">
<style type="text/css">
	.st0{fill:#6B6ECF;}
	.st1{font-family:'NotoSansHant-Bold-B5pc-H';}
	.st2{font-size:148.6068px;}
	.st3{font-size:96.5944px;}
	.st4{fill:#E7CB94;}
	.st5{font-size:32.6935px;}
	.st6{fill:#A55194;}
	.st7{fill:#BD9E39;}
	.st8{font-size:14.8607px;}
	.st9{fill:#637939;}
	.st10{font-size:44.582px;}
	.st11{fill:#393B79;}
	.st12{font-size:132.2601px;}
	.st13{fill:#CE6DBD;}
	.st14{font-size:75.7895px;}
	.st15{fill:#B5CF6B;}
	.st16{font-size:63.9009px;}
	.st17{fill:#5254A3;}
	.st18{fill:#9C9EDE;}
	.st19{fill:#8CA252;}
	.st20{fill:#CEDB9C;}
	.st21{fill:#8C6D31;}
	.st22{fill:#E7BA52;}
	.st23{fill:#843C39;}
	.st24{fill:#AD494A;}
	.st25{fill:#D6616B;}
	.st26{fill:#E7969C;}
	.st27{fill:#7B4173;}
	.st28{fill:#DE9ED6;}
</style>
<text transform="matrix(1 0 0 1 408.2971 263.0754)" class="st0 st1 st2">卡帶</text>
<text transform="matrix(1 0 0 1 65.1161 307.6575)" class="st0 st1 st3">不知道</text>
<text transform="matrix(1 0 0 1 711.9277 182.8284)" class="st4 st1 st5">無</text>
<text transform="matrix(1 0 0 1 707.6086 352.0725)" class="st6 st1 st5">不知道沒概念</text>
<text transform="matrix(1 0 0 1 202.8479 133.7874)" class="st7 st1 st8">錄音機</text>
<text transform="matrix(1 0 0 1 502.6624 121.8992)" class="st9 st1 st10">不知</text>
<text transform="matrix(1 0 0 1 112.384 431.0012)" class="st11 st1 st12">錄音帶</text>
<text transform="matrix(1 0 0 1 686.9319 141.218)" class="st13 st1 st14">影片</text>
<text transform="matrix(1 0 0 1 692.5083 295.7688)" class="st15 st1 st16">DVD</text>
<text transform="matrix(1 0 0 1 587.3684 411.6819)" class="st17 st1 st10">膠捲</text>
<text transform="matrix(1 0 0 1 719.6282 69.8865)" class="st0 st1 st10">時鐘</text>
<text transform="matrix(1 0 0 1 569.5354 321.0325)" class="st18 st1 st10">片子</text>
<text transform="matrix(1 0 0 1 377.8323 475.5833)" class="st9 st1 st5">卡匣</text>
<text transform="matrix(1 0 0 1 226.6252 217.0081)" class="st19 st1 st5">卡式錄音帶</text>
<text transform="matrix(1 0 0 1 369.6594 126.3572)" class="st15 st1 st5">錄音卡帶</text>
<text transform="matrix(1 0 0 1 471.4553 481.5276)" class="st20 st1 st5">膠帶影片卡帶</text>
<text transform="matrix(1 0 0 1 590.3401 365.6145)" class="st18 st1 st5">忘了</text>
<text transform="matrix(1 0 0 1 125.2014 219.9797)" class="st21 st1 st5">盒子</text>
<text transform="matrix(1 0 0 1 107.3684 184.3137)" class="st7 st1 st8">碟片</text>
<text transform="matrix(1 0 0 1 722.1809 459.2366)" class="st22 st1 st8">CD播放器</text>
<text transform="matrix(1 0 0 1 707.6084 240.7844)" class="st4 st1 st8">DHV</text>
<text transform="matrix(1 0 0 1 519.7522 381.9612)" class="st13 st1 st8">忘記名稱</text>
<text transform="matrix(1 0 0 1 390.0923 269.0198)" class="st23 st1 st8">電表</text>
<text transform="matrix(1 0 0 1 29.9099 266.0471)" class="st24 st1 st8">放映帶</text>
<text transform="matrix(1 0 0 1 126.6873 164.9944)" class="st25 st1 st8">唱片</text>
<text transform="matrix(1 0 0 1 220.3098 462.2092)" class="st26 st1 st8">底片</text>
<text transform="matrix(1 0 0 1 469.969 289.8245)" class="st27 st1 st8">錄音帶、卡帶</text>
<text transform="matrix(1 0 0 1 498.9475 436.9456)" class="st6 st1 st8">插卡影片</text>
<text transform="matrix(1 0 0 1 192.4456 181.342)" class="st13 st1 st8">唱片機</text>
<text transform="matrix(1 0 0 1 382.2913 307.6575)" class="st28 st1 st8">錄音帶播放器</text>
<text transform="matrix(1 0 0 1 680.2415 459.2368)" class="st11 st1 st8">教捲</text>
<text transform="matrix(1 0 0 1 295.7278 466.6672)" class="st17 st1 st8">舊式放帶機</text>
<text transform="matrix(1 0 0 1 240.8713 160.5374)" class="st0 st1 st8">收音機裡面的像是CD 的東西</text>
<text transform="matrix(1 0 0 1 379.2708 496.3879)" class="st13 st1 st8">CD</text>
<text transform="matrix(1 0 0 1 406.811 248.2151)" class="st18 st1 st8">黑卡帶</text>
<text transform="matrix(1 0 0 1 569.1643 433.9729)" class="st9 st1 st8">卡帶錄影帶</text>
<text transform="matrix(1 0 0 1 247.802 179.8557)" class="st19 st1 st8">傳統卡帶</text>
<text transform="matrix(1 0 0 1 555.7893 502.3323)" class="st15 st1 st8">有點像錄音帶的外表，不知何物的內表</text>
<text transform="matrix(1 0 0 1 546.2561 78.803)" class="st20 st1 st8">卡拉OK伴唱帶</text>
<text transform="matrix(1 0 0 1 485.5725 523.137)" class="st21 st1 st8">早期錄音機的卡帶</text>
<text transform="matrix(1 0 0 1 480.0002 310.6292)" class="st7 st1 st8">光碟收納盒</text>
<text transform="matrix(1 0 0 1 767.6562 166.4807)" class="st22 st1 st8">黑膠錄影帶</text>
<text transform="matrix(1 0 0 1 356.2844 179.8557)" class="st4 st1 st8">頰式卡帶</text>
<text transform="matrix(1 0 0 1 292.384 136.76)" class="st23 st1 st8">錄放底片</text>
<text transform="matrix(1 0 0 1 713.6838 381.9614)" class="st24 st1 st8">電視播放碟片</text>
<text transform="matrix(1 0 0 1 757.5237 478.5549)" class="st25 st1 st8">膠卷卡帶</text>
<text transform="matrix(1 0 0 1 224.553 481.5276)" class="st26 st1 st8">DVD卡帶</text>
<text transform="matrix(1 0 0 1 718.792 215.5217)" class="st27 st1 st8">卡帶 錄影帶</text>
<text transform="matrix(1 0 0 1 829.1118 121.8992)" class="st6 st1 st8">影片卡帶</text>
<text transform="matrix(1 0 0 1 835.3477 277.9358)" class="st13 st1 st8">DVD錄影帶</text>
<text transform="matrix(1 0 0 1 778.8762 310.6292)" class="st28 st1 st8">錄音帶 卡帶</text>
<text transform="matrix(1 0 0 1 674.4058 316.9485)" class="st11 st1 st8">錄音帶,錄影帶</text>
<text transform="matrix(1 0 0 1 303.402 496.3879)" class="st17 st1 st8">電影卡帶</text>
<text transform="matrix(1 0 0 1 846.3359 258.6174)" class="st0 st1 st8">放影機片</text>
<text transform="matrix(1 0 0 1 100.3098 145.676)" class="st18 st1 st8">放影機</text>
<text transform="matrix(1 0 0 1 825.7681 93.6638)" class="st19 st1 st8">手電筒</text>
<text transform="matrix(1 0 0 1 748.709 234.8401)" class="st9 st1 st8">盈帶</text>
<text transform="matrix(1 0 0 1 408.2974 288.3381)" class="st6 st1 st8">光碟片</text>
<text transform="matrix(1 0 0 1 760.2256 190.2581)" class="st19 st1 st8">傳統光碟片</text>
<text transform="matrix(1 0 0 1 692.5081 410.1965)" class="st15 st1 st8">大的磁碟片</text>
<text transform="matrix(1 0 0 1 168.6682 156.0784)" class="st20 st1 st8">伴唱帶</text>
<text transform="matrix(1 0 0 1 647.1829 436.9456)" class="st21 st1 st8">光諜吧</text>
<text transform="matrix(1 0 0 1 613.0032 127.8435)" class="st7 st1 st8">讀卡帶</text>
<text transform="matrix(1 0 0 1 20.4333 322.5178)" class="st22 st1 st8">音樂卡帶</text>
<text transform="matrix(1 0 0 1 659.0706 367.0999)" class="st4 st1 st8">影片卷</text>
<text transform="matrix(1 0 0 1 92.5076 124.8713)" class="st23 st1 st8">早期影音卡帶</text>
<text transform="matrix(1 0 0 1 365.0503 244.6801)" class="st7 st1 st8">卡夾</text>
<text transform="matrix(1 0 0 1 514.9221 411.6819)" class="st24 st1 st8">放影帶</text>
<text transform="matrix(1 0 0 1 553.8655 344.8088)" class="st25 st1 st8">KHS</text>
<text transform="matrix(1 0 0 1 142.6624 462.2092)" class="st26 st1 st8">忘記名字了</text>
<text transform="matrix(1 0 0 1 307.2766 60.9705)" class="st27 st1 st8">HVS</text>
<text transform="matrix(1 0 0 1 807.4395 209.5764)" class="st6 st1 st8">VHS錄音磁帶</text>
<text transform="matrix(1 0 0 1 543.5295 59.4841)" class="st13 st1 st8">收影片的</text>
<text transform="matrix(1 0 0 1 281.9817 115.9548)" class="st28 st1 st8">存資料的</text>
<text transform="matrix(1 0 0 1 365.05 518.679)" class="st11 st1 st8">收音機的mp3</text>
<text transform="matrix(1 0 0 1 699.1956 435.4592)" class="st4 st1 st8">磁碟機</text>
<text transform="matrix(1 0 0 1 159.9387 481.5276)" class="st17 st1 st8">硬碟?</text>
<text transform="matrix(1 0 0 1 764.5823 439.9182)" class="st0 st1 st8">收音帶</text>
<text transform="matrix(1 0 0 1 627.4924 98.1218)" class="st18 st1 st8">黑膠</text>
<text transform="matrix(1 0 0 1 845.8306 145.676)" class="st9 st1 st8">光碟播放器</text>
</svg>
