<?xml version="1.0" encoding="utf-8"?>
<!-- Generator: Adobe Illustrator 23.0.2, SVG Export Plug-In . SVG Version: 6.00 Build 0)  -->
<svg version="1.1" id="Layer_1" xmlns="http://www.w3.org/2000/svg" xmlns:xlink="http://www.w3.org/1999/xlink" x="0px" y="0px"
	 viewBox="0 0 281.3 40" style="enable-background:new 0 0 281.3 40;" xml:space="preserve">
<style type="text/css">
	.st0{fill:#8D2143;}
</style>
<g>
	<path class="st0" d="M17.5,11.3c-0.3-0.6-0.9-0.9-1.6-0.9c-0.6,0-1,0.2-1.4,0.5c-0.3,0.3-0.6,0.8-0.8,1.6c-0.2,0.8-0.3,1.8-0.4,3.1
		c-0.1,1.3-0.1,3-0.1,5c0,2,0,3.7,0.1,5c0.1,1.3,0.2,2.4,0.4,3.1c0.2,0.8,0.4,1.3,0.8,1.6c0.3,0.3,0.8,0.5,1.4,0.5
		c0.5,0,0.9-0.1,1.2-0.4c0.3-0.2,0.5-0.6,0.7-1.2c0.2-0.6,0.3-1.3,0.4-2.2c0.1-0.9,0.1-2.1,0.1-3.5h7.5v2.2c0,2.1-0.3,3.8-0.8,5.1
		c-0.6,1.3-1.3,2.4-2.2,3.1c-0.9,0.8-2,1.3-3.1,1.5s-2.4,0.4-3.6,0.4c-2.2,0-3.9-0.3-5.3-0.8c-1.4-0.5-2.5-1.4-3.3-2.6
		c-0.8-1.2-1.3-2.8-1.6-4.8c-0.3-2-0.4-4.3-0.4-7.1c0-2.8,0.2-5.2,0.5-7.2c0.3-2,0.9-3.6,1.8-4.8c0.8-1.2,1.9-2.1,3.3-2.6
		c1.4-0.5,3-0.8,5-0.8c1.8,0,3.2,0.2,4.5,0.7c1.2,0.4,2.2,1.1,3,1.9c0.8,0.8,1.3,1.8,1.7,3s0.5,2.5,0.5,3.9v1.9H18v-1.7
		C18,13,17.9,11.9,17.5,11.3z"/>
	<path class="st0" d="M43.2,5.7l7.3,29.8h-8.3l-0.8-5.2h-6.2l-0.8,5.2h-8.1l7.1-29.8H43.2z M38.2,11.8l-2.1,12.6h4.3L38.2,11.8
		L38.2,11.8z"/>
	<path class="st0" d="M62.5,5.7l3.1,17.6h0.1l3.1-17.6h11.1v29.8h-7.3V13.3h-0.1l-4.1,22.2h-5.6l-4.1-22.2h-0.1v22.2h-7.3V5.7H62.5z
		"/>
	<path class="st0" d="M101,5.7V12h-9.9v5.1h9.3v6.1h-9.3v5.9h10.3v6.3h-18V5.7H101z"/>
	<path class="st0" d="M116.3,5.7c1.5,0,2.7,0.2,3.8,0.6c1,0.4,1.9,0.9,2.5,1.6c0.7,0.7,1.1,1.6,1.4,2.5c0.3,1,0.4,2,0.4,3.2
		c0,2-0.4,3.6-1.2,4.8c-0.8,1.2-2.1,2-3.9,2.3v0.1c1.9,0.2,3.1,0.8,3.8,2s1,2.7,1,4.7V30c0,0.4,0,0.8,0,1.2s0,0.8,0,1.2
		c0,0.4,0.1,0.7,0.1,1c0.1,0.3,0.1,0.5,0.2,0.7c0.1,0.2,0.2,0.3,0.3,0.5s0.3,0.3,0.5,0.4v0.4h-8.3c-0.2-0.4-0.3-0.8-0.4-1.4
		c-0.1-0.5-0.2-1.1-0.2-1.6c0-0.5-0.1-1-0.1-1.5c0-0.5,0-0.9,0-1.2v-2c0-0.8,0-1.5-0.1-2.1c-0.1-0.6-0.2-1-0.4-1.3
		c-0.2-0.3-0.5-0.5-0.8-0.7s-0.7-0.2-1.2-0.2h-2v11.9h-7.8V5.7H116.3z M113.5,18.3c1.1,0,1.9-0.3,2.5-1s0.8-1.5,0.8-2.6
		c0-1.3-0.3-2.1-0.8-2.7c-0.5-0.5-1.4-0.8-2.5-0.8h-1.5v7H113.5z"/>
	<path class="st0" d="M142.7,5.7l7.3,29.8h-8.3l-0.8-5.2h-6.2l-0.8,5.2h-8.1L133,5.7H142.7z M137.8,11.8l-2.1,12.6h4.3L137.8,11.8
		L137.8,11.8z"/>
	<path class="st0" d="M173.4,5.7c2.3,0,4,0.4,5.3,1.2c1.2,0.8,2.2,1.9,2.8,3.3c0.6,1.4,1,3,1.1,4.8c0.1,1.8,0.2,3.7,0.2,5.6
		c0,1.9-0.1,3.8-0.2,5.6c-0.1,1.8-0.5,3.4-1.1,4.8c-0.6,1.4-1.6,2.5-2.8,3.3c-1.3,0.8-3,1.2-5.3,1.2h-11.3V5.7H173.4z M171.4,29.9
		c0.8,0,1.3-0.1,1.8-0.3c0.4-0.2,0.8-0.6,1-1.3s0.4-1.6,0.5-2.8c0.1-1.2,0.1-2.8,0.1-4.8c0-2,0-3.6-0.1-4.8
		c-0.1-1.2-0.2-2.2-0.5-2.8s-0.6-1.1-1-1.3c-0.4-0.2-1-0.3-1.8-0.3h-1.5v18.6H171.4z"/>
	<path class="st0" d="M198.2,5.7c1.5,0,2.7,0.2,3.8,0.6c1,0.4,1.9,0.9,2.5,1.6c0.7,0.7,1.1,1.6,1.4,2.5c0.3,1,0.4,2,0.4,3.2
		c0,2-0.4,3.6-1.2,4.8c-0.8,1.2-2.1,2-3.9,2.3v0.1c1.9,0.2,3.1,0.8,3.8,2s1,2.7,1,4.7V30c0,0.4,0,0.8,0,1.2s0,0.8,0,1.2
		c0,0.4,0.1,0.7,0.1,1c0.1,0.3,0.1,0.5,0.2,0.7c0.1,0.2,0.2,0.3,0.3,0.5s0.3,0.3,0.5,0.4v0.4h-8.3c-0.2-0.4-0.3-0.8-0.4-1.4
		c-0.1-0.5-0.2-1.1-0.2-1.6c0-0.5-0.1-1-0.1-1.5c0-0.5,0-0.9,0-1.2v-2c0-0.8,0-1.5-0.1-2.1c-0.1-0.6-0.2-1-0.4-1.3
		c-0.2-0.3-0.5-0.5-0.8-0.7s-0.7-0.2-1.2-0.2h-2v11.9h-7.8V5.7H198.2z M195.4,18.3c1.1,0,1.9-0.3,2.5-1s0.8-1.5,0.8-2.6
		c0-1.3-0.3-2.1-0.8-2.7c-0.5-0.5-1.4-0.8-2.5-0.8h-1.5v7H195.4z"/>
	<path class="st0" d="M209.7,13.5c0.4-2,1-3.6,1.8-4.8c0.8-1.2,1.9-2.1,3.3-2.7c1.4-0.6,3-0.9,5-0.9c2,0,3.6,0.3,5,0.9
		c1.4,0.6,2.5,1.5,3.3,2.7c0.8,1.2,1.4,2.8,1.8,4.8s0.5,4.3,0.5,7.1c0,2.8-0.2,5.2-0.5,7.1s-1,3.6-1.8,4.8c-0.8,1.2-1.9,2.1-3.3,2.6
		c-1.4,0.5-3,0.8-5,0.8c-2,0-3.6-0.3-5-0.8c-1.4-0.5-2.5-1.4-3.3-2.6c-0.8-1.2-1.4-2.8-1.8-4.8s-0.5-4.3-0.5-7.1
		C209.1,17.8,209.3,15.4,209.7,13.5z M217.2,25.6c0.1,1.3,0.2,2.4,0.4,3.1c0.2,0.8,0.4,1.3,0.8,1.6c0.3,0.3,0.8,0.5,1.4,0.5
		s1-0.2,1.4-0.5c0.3-0.3,0.6-0.8,0.8-1.6c0.2-0.8,0.3-1.8,0.4-3.1c0.1-1.3,0.1-3,0.1-5c0-2,0-3.7-0.1-5c-0.1-1.3-0.2-2.4-0.4-3.1
		c-0.2-0.8-0.4-1.3-0.8-1.6c-0.3-0.3-0.8-0.5-1.4-0.5s-1.1,0.2-1.4,0.5c-0.3,0.3-0.6,0.8-0.8,1.6c-0.2,0.8-0.3,1.8-0.4,3.1
		c-0.1,1.3-0.1,3-0.1,5C217.1,22.6,217.2,24.2,217.2,25.6z"/>
	<path class="st0" d="M241.9,5.7l5,18.3h0.1V5.7h7.3v29.8h-8.5l-5.2-18.4h-0.1v18.4h-7.3V5.7H241.9z"/>
	<path class="st0" d="M275.5,5.7V12h-9.9v5.1h9.3v6.1h-9.3v5.9h10.3v6.3h-18V5.7H275.5z"/>
</g>
</svg>
