<?xml version="1.0" encoding="utf-8"?>
<!-- Generator: Adobe Illustrator 23.0.2, SVG Export Plug-In . SVG Version: 6.00 Build 0)  -->
<svg version="1.1" id="Layer_1" xmlns="http://www.w3.org/2000/svg" xmlns:xlink="http://www.w3.org/1999/xlink" x="0px" y="0px"
	 viewBox="0 0 288.4 40" style="enable-background:new 0 0 288.4 40;" xml:space="preserve">
<style type="text/css">
	.st0{fill:#8D2143;}
</style>
<g>
	<g>
		<path class="st0" d="M24.7,5.2v6.3h-9.9v5.1h9.3v6.1h-9.3v12.3H7.1V5.2H24.7z"/>
		<path class="st0" d="M34.6,5.2v29.8h-7.8V5.2H34.6z"/>
		<path class="st0" d="M49.3,5.2c2.3,0,4,0.4,5.3,1.2c1.2,0.8,2.2,1.9,2.8,3.3c0.6,1.4,1,3,1.1,4.8c0.1,1.8,0.2,3.7,0.2,5.6
			c0,1.9-0.1,3.8-0.2,5.6c-0.1,1.8-0.5,3.4-1.1,4.8c-0.6,1.4-1.6,2.5-2.8,3.3c-1.3,0.8-3,1.2-5.3,1.2H38V5.2H49.3z M47.3,29.4
			c0.8,0,1.3-0.1,1.8-0.3c0.4-0.2,0.8-0.6,1-1.3c0.2-0.7,0.4-1.6,0.5-2.8s0.1-2.8,0.1-4.8c0-2,0-3.6-0.1-4.8
			c-0.1-1.2-0.2-2.2-0.5-2.8c-0.2-0.7-0.6-1.1-1-1.3c-0.4-0.2-1-0.3-1.8-0.3h-1.5v18.6H47.3z"/>
		<path class="st0" d="M81.9,18.8v16.2h-5.3l-0.2-2.6h-0.1c-0.2,0.6-0.6,1.2-1.1,1.6s-1,0.7-1.5,0.9c-0.6,0.2-1.2,0.4-1.8,0.4
			c-0.7,0.1-1.3,0.1-2,0.1c-2,0-3.5-0.3-4.7-1c-1.1-0.7-2-1.6-2.6-2.9s-1-2.9-1.1-4.8c-0.2-1.9-0.2-4.1-0.2-6.6
			c0-2.5,0.1-4.7,0.4-6.6c0.3-1.9,0.8-3.5,1.7-4.8c0.8-1.3,2-2.3,3.4-3c1.4-0.7,3.3-1,5.6-1c1.4,0,2.6,0.2,3.8,0.5
			c1.2,0.4,2.1,0.9,3,1.8c0.8,0.8,1.5,1.8,2,3.1s0.7,2.8,0.7,4.6h-7.5c0-1.6-0.1-2.7-0.4-3.5c-0.3-0.9-0.9-1.3-1.8-1.3
			c-0.6,0-1.1,0.2-1.5,0.5c-0.4,0.3-0.7,0.8-0.8,1.6c-0.2,0.8-0.3,1.8-0.4,3.1s-0.1,3-0.1,5c0,2,0,3.7,0.1,5s0.2,2.4,0.4,3.1
			c0.2,0.8,0.4,1.3,0.8,1.6c0.3,0.3,0.8,0.5,1.4,0.5c0.4,0,0.8-0.1,1.1-0.2c0.3-0.2,0.6-0.5,0.8-0.9c0.2-0.5,0.4-1.1,0.5-1.9
			c0.1-0.8,0.2-1.9,0.2-3.1h-2.8v-5.3H81.9z"/>
		<path class="st0" d="M102.8,5.2v6.3h-9.9v5.1h9.3v6.1h-9.3v5.9h10.3v6.3h-18V5.2H102.8z"/>
		<path class="st0" d="M104.1,11.8V5.2h19.3v6.6h-5.8v23.2h-7.8V11.8H104.1z"/>
		<path class="st0" d="M147.7,13.1c0-0.9-0.2-1.6-0.5-2.3s-0.9-0.9-1.7-0.9c-0.8,0-1.4,0.3-1.8,0.8c-0.4,0.5-0.6,1.1-0.6,1.8
			c0,1,0.3,1.7,0.9,2.3c0.6,0.6,1.4,1.1,2.4,1.5c0.9,0.4,2,0.8,3,1.3c1.1,0.4,2.1,1,3,1.7c0.9,0.7,1.7,1.6,2.4,2.7s0.9,2.6,0.9,4.4
			c0,3.2-0.9,5.5-2.7,6.9c-1.8,1.4-4.4,2.1-7.8,2.1c-1.6,0-3-0.1-4.3-0.4c-1.2-0.3-2.3-0.7-3.1-1.4s-1.5-1.5-1.9-2.6
			c-0.4-1.1-0.7-2.4-0.7-3.9v-1h7.5v0.7c0,1.3,0.2,2.2,0.7,2.7s1.1,0.8,1.8,0.8c0.8,0,1.4-0.3,1.9-0.8c0.4-0.6,0.6-1.2,0.6-2
			c0-1-0.3-1.7-0.9-2.3s-1.3-1.1-2.3-1.5c-0.9-0.4-1.9-0.8-2.9-1.2s-2-1-2.9-1.6c-0.9-0.7-1.7-1.5-2.3-2.6c-0.6-1.1-0.9-2.5-0.9-4.3
			c0-3,0.8-5.3,2.4-6.9c1.6-1.6,4.1-2.4,7.3-2.4c3.4,0,5.8,0.7,7.4,2.2c1.5,1.5,2.3,3.8,2.3,7h-7.3V13.1z"/>
		<path class="st0" d="M169.8,5.2c1.5,0,2.8,0.2,3.8,0.7s2,1.1,2.7,1.9c0.7,0.8,1.2,1.8,1.6,2.9c0.3,1.1,0.5,2.3,0.5,3.6
			c0,3.1-0.8,5.4-2.5,6.9s-4.1,2.3-7.3,2.3h-2.7v11.3h-7.8V5.2H169.8z M167.4,18c1,0,1.7-0.3,2.2-0.9c0.5-0.6,0.8-1.5,0.8-2.8
			c0-2.4-1-3.6-3-3.6h-1.5V18H167.4z"/>
		<path class="st0" d="M188.3,5.2v29.8h-7.8V5.2H188.3z"/>
		<path class="st0" d="M200.4,5.2l5,18.3h0.1V5.2h7.3v29.8h-8.5L199,16.6H199v18.4h-7.3V5.2H200.4z"/>
		<path class="st0" d="M225.1,5.2l5,18.3h0.1V5.2h7.3v29.8h-8.5l-5.2-18.4h-0.1v18.4h-7.3V5.2H225.1z"/>
		<path class="st0" d="M258.7,5.2v6.3h-9.9v5.1h9.3v6.1h-9.3v5.9h10.3v6.3h-18V5.2H258.7z"/>
		<path class="st0" d="M274,5.2c1.5,0,2.7,0.2,3.8,0.6s1.9,0.9,2.5,1.6c0.7,0.7,1.1,1.6,1.4,2.5c0.3,1,0.4,2,0.4,3.2
			c0,2-0.4,3.6-1.2,4.8c-0.8,1.2-2.1,2-3.9,2.3v0.1c1.9,0.2,3.1,0.8,3.8,2c0.7,1.1,1,2.7,1,4.7v2.5c0,0.4,0,0.8,0,1.2s0,0.8,0,1.2
			c0,0.4,0.1,0.7,0.1,1c0.1,0.3,0.1,0.5,0.2,0.7c0.1,0.2,0.2,0.3,0.3,0.5c0.1,0.2,0.3,0.3,0.5,0.4v0.4H275c-0.2-0.4-0.3-0.8-0.4-1.4
			c-0.1-0.5-0.2-1.1-0.2-1.6c0-0.5-0.1-1-0.1-1.5s0-0.9,0-1.2v-2c0-0.8,0-1.5-0.1-2.1c-0.1-0.6-0.2-1-0.4-1.3
			c-0.2-0.3-0.5-0.5-0.8-0.7c-0.3-0.1-0.7-0.2-1.2-0.2h-2v11.9h-7.8V5.2H274z M271.2,17.8c1.1,0,1.9-0.3,2.5-1
			c0.5-0.7,0.8-1.5,0.8-2.6c0-1.3-0.3-2.1-0.8-2.7c-0.5-0.5-1.4-0.8-2.5-0.8h-1.5v7H271.2z"/>
	</g>
</g>
</svg>
