<?xml version="1.0" encoding="utf-8"?>
<!-- Generator: Adobe Illustrator 23.0.2, SVG Export Plug-In . SVG Version: 6.00 Build 0)  -->
<svg version="1.1" id="Layer_1" xmlns="http://www.w3.org/2000/svg" xmlns:xlink="http://www.w3.org/1999/xlink" x="0px" y="0px"
	 viewBox="0 0 153.5 40" style="enable-background:new 0 0 153.5 40;" xml:space="preserve">
<style type="text/css">
	.st0{fill:#8D2143;}
</style>
<g>
	<path class="st0" d="M18.5,4.9c2.8,0,4.9,0.7,6.2,2.1s2,3.2,2,5.5c0,0.8-0.1,1.6-0.3,2.3c-0.2,0.7-0.5,1.4-0.8,2s-0.9,1.1-1.5,1.5
		c-0.6,0.4-1.3,0.7-2.2,0.9v0.1c1,0.1,1.8,0.3,2.5,0.8c0.7,0.4,1.3,1,1.7,1.6c0.5,0.6,0.8,1.4,1,2.1c0.2,0.8,0.3,1.6,0.3,2.3
		c0,1.3-0.2,2.5-0.5,3.6c-0.3,1.1-0.9,2-1.6,2.8c-0.7,0.8-1.7,1.4-2.8,1.8c-1.2,0.4-2.6,0.7-4.2,0.7H6.6V4.9H18.5z M16.4,16.8
		c0.8,0,1.4-0.3,1.9-0.9c0.4-0.6,0.6-1.3,0.6-2.1c0-0.8-0.2-1.6-0.6-2.2c-0.4-0.6-1-0.9-1.9-0.9h-1.9v6.2H16.4z M16.7,29.4
		c0.7,0,1.4-0.3,1.9-0.9s0.8-1.5,0.8-2.8c0-1.2-0.3-2.1-0.8-2.7c-0.6-0.6-1.2-0.9-1.9-0.9h-2.2v7.4H16.7z"/>
	<path class="st0" d="M42.8,4.9c2.8,0,4.9,0.7,6.2,2.1s2,3.2,2,5.5c0,0.8-0.1,1.6-0.3,2.3c-0.2,0.7-0.5,1.4-0.8,2s-0.9,1.1-1.5,1.5
		c-0.6,0.4-1.3,0.7-2.2,0.9v0.1c1,0.1,1.8,0.3,2.5,0.8c0.7,0.4,1.3,1,1.7,1.6c0.5,0.6,0.8,1.4,1,2.1c0.2,0.8,0.3,1.6,0.3,2.3
		c0,1.3-0.2,2.5-0.5,3.6c-0.3,1.1-0.9,2-1.6,2.8c-0.7,0.8-1.7,1.4-2.8,1.8c-1.2,0.4-2.6,0.7-4.2,0.7H30.9V4.9H42.8z M40.7,16.8
		c0.8,0,1.4-0.3,1.9-0.9c0.4-0.6,0.6-1.3,0.6-2.1c0-0.8-0.2-1.6-0.6-2.2c-0.4-0.6-1-0.9-1.9-0.9h-1.9v6.2H40.7z M41,29.4
		c0.7,0,1.4-0.3,1.9-0.9s0.8-1.5,0.8-2.8c0-1.2-0.3-2.1-0.8-2.7c-0.6-0.6-1.2-0.9-1.9-0.9h-2.2v7.4H41z"/>
	<path class="st0" d="M77.5,10.6c-0.3-0.6-0.9-0.9-1.7-0.9c-0.6,0-1.1,0.2-1.4,0.5c-0.4,0.3-0.6,0.9-0.8,1.7
		c-0.2,0.8-0.3,1.9-0.4,3.2c-0.1,1.3-0.1,3-0.1,5.1s0,3.7,0.1,5.1s0.2,2.4,0.4,3.2c0.2,0.8,0.5,1.3,0.8,1.7c0.4,0.3,0.8,0.5,1.4,0.5
		c0.5,0,0.9-0.1,1.2-0.4c0.3-0.2,0.5-0.6,0.7-1.2c0.2-0.6,0.3-1.3,0.4-2.3c0.1-0.9,0.1-2.1,0.1-3.6h7.6v2.2c0,2.1-0.3,3.9-0.8,5.2
		c-0.6,1.4-1.3,2.4-2.2,3.2c-0.9,0.8-2,1.3-3.2,1.6s-2.4,0.4-3.7,0.4c-2.2,0-4-0.3-5.4-0.8c-1.4-0.5-2.5-1.4-3.3-2.7
		c-0.8-1.3-1.3-2.9-1.6-4.9c-0.3-2-0.4-4.4-0.4-7.2c0-2.9,0.2-5.3,0.5-7.3c0.4-2,1-3.6,1.8-4.9c0.8-1.2,2-2.1,3.3-2.7
		c1.4-0.5,3.1-0.8,5.1-0.8c1.8,0,3.3,0.2,4.5,0.7s2.2,1.1,3,1.9c0.8,0.8,1.3,1.8,1.7,3c0.4,1.2,0.5,2.5,0.5,4v1.9H78v-1.7
		C78,12.4,77.8,11.2,77.5,10.6z"/>
	<path class="st0" d="M103.5,4.9l7.4,30.2h-8.4l-0.8-5.3h-6.3l-0.8,5.3h-8.3l7.2-30.2H103.5z M98.5,11.1l-2.2,12.8h4.4L98.5,11.1
		L98.5,11.1z"/>
	<path class="st0" d="M120.1,4.9v23.8h9.7v6.4h-17.6V4.9H120.1z"/>
	<path class="st0" d="M139.6,4.9v23.8h9.7v6.4h-17.6V4.9H139.6z"/>
</g>
</svg>
