<?xml version="1.0" encoding="utf-8"?>
<!-- Generator: Adobe Illustrator 23.0.2, SVG Export Plug-In . SVG Version: 6.00 Build 0)  -->
<svg version="1.1" id="Layer_1" xmlns="http://www.w3.org/2000/svg" xmlns:xlink="http://www.w3.org/1999/xlink" x="0px" y="0px"
	 viewBox="0 0 69.7 33.2" style="enable-background:new 0 0 69.7 33.2;" xml:space="preserve">
<style type="text/css">
	.st0{fill:#8D2143;}
</style>
<g>
	<path class="st0" d="M9.5,2l3.1,22.2h0.1L15.8,2H24l-6.3,29.4H7.7L1.5,2H9.5z"/>
	<path class="st0" d="M32.9,2v10.8h4.7V2h7.7v29.4h-7.7V19.3h-4.7v12.1h-7.7V2H32.9z"/>
	<path class="st0" d="M60.3,9.7c0-0.9-0.2-1.6-0.5-2.2c-0.4-0.6-0.9-0.9-1.6-0.9c-0.8,0-1.4,0.3-1.8,0.8c-0.4,0.5-0.6,1.1-0.6,1.8
		c0,1,0.3,1.7,0.9,2.3c0.6,0.6,1.4,1.1,2.3,1.5c0.9,0.4,1.9,0.8,3,1.3s2.1,1,3,1.7c0.9,0.7,1.7,1.6,2.3,2.7c0.6,1.1,0.9,2.6,0.9,4.3
		c0,3.1-0.9,5.4-2.7,6.8s-4.4,2.1-7.7,2.1c-1.6,0-3-0.1-4.2-0.4s-2.3-0.7-3.1-1.4c-0.8-0.6-1.5-1.5-1.9-2.5c-0.4-1-0.7-2.3-0.7-3.9
		v-1h7.4v0.7c0,1.3,0.2,2.1,0.7,2.7c0.5,0.5,1.1,0.8,1.8,0.8c0.8,0,1.4-0.3,1.8-0.8c0.4-0.5,0.6-1.2,0.6-2c0-1-0.3-1.7-0.9-2.3
		c-0.6-0.6-1.3-1-2.2-1.4c-0.9-0.4-1.9-0.8-2.9-1.2c-1-0.4-2-0.9-2.9-1.6c-0.9-0.7-1.6-1.5-2.2-2.6s-0.9-2.5-0.9-4.2
		c0-3,0.8-5.3,2.4-6.8c1.6-1.6,4-2.3,7.2-2.3c3.3,0,5.8,0.7,7.3,2.2c1.5,1.4,2.2,3.7,2.2,6.9h-7.2V9.7z"/>
</g>
</svg>
