<?xml version="1.0" encoding="utf-8"?>
<!-- Generator: Adobe Illustrator 16.0.0, SVG Export Plug-In . SVG Version: 6.00 Build 0)  -->
<!DOCTYPE svg PUBLIC "-//W3C//DTD SVG 1.1//EN" "http://www.w3.org/Graphics/SVG/1.1/DTD/svg11.dtd">
<svg version="1.1" id="圖層_1" xmlns="http://www.w3.org/2000/svg" xmlns:xlink="http://www.w3.org/1999/xlink" x="0px" y="0px"
	 width="100px" height="100px" viewBox="0 0 100 100" enable-background="new 0 0 100 100" xml:space="preserve">
<g>
	<g>
		<path fill="#D49229" d="M36.512,21.421c-1.174,0-2.123-0.948-2.123-2.118v-2.669c0-1.177-0.949-2.126-2.128-2.126h-1.417
			c-1.173,0-2.123,0.949-2.123,2.126v2.669c0,1.17-0.954,2.118-2.128,2.118H13.128c-1.178,0-2.128,0.954-2.128,2.125v47.801
			c0,1.179,0.95,2.125,2.128,2.125h23.384c1.173,0,2.129-0.946,2.129-2.125V23.546C38.641,22.375,37.69,21.421,36.512,21.421z
			 M15.651,62.547c0-1.171,0.949-2.122,2.128-2.122c1.173,0,2.122,0.951,2.122,2.122c0,1.173-0.949,2.127-2.122,2.127
			C16.601,64.674,15.651,63.72,15.651,62.547z M17.779,53.397c1.173,0,2.122,0.949,2.122,2.118c0,1.171-0.949,2.126-2.122,2.126
			c-1.179,0-2.128-0.955-2.128-2.126C15.651,54.347,16.601,53.397,17.779,53.397z M15.651,48.486c0-1.171,0.949-2.12,2.128-2.12
			c1.173,0,2.122,0.949,2.122,2.12c0,1.174-0.949,2.123-2.122,2.123C16.601,50.609,15.651,49.66,15.651,48.486z M29.137,69.861
			h-8.902c-0.586,0-1.063-0.474-1.063-1.059c0-0.591,0.478-1.062,1.063-1.062h8.902c0.591,0,1.064,0.471,1.064,1.062
			C30.201,69.388,29.728,69.861,29.137,69.861z M24.688,53.397c1.173,0,2.123,0.949,2.123,2.118c0,1.171-0.95,2.126-2.123,2.126
			c-1.179,0-2.128-0.955-2.128-2.126C22.561,54.347,23.51,53.397,24.688,53.397z M22.561,48.486c0-1.171,0.949-2.12,2.128-2.12
			c1.173,0,2.123,0.949,2.123,2.12c0,1.174-0.95,2.123-2.123,2.123C23.51,50.609,22.561,49.66,22.561,48.486z M24.688,60.425
			c1.173,0,2.123,0.951,2.123,2.122c0,1.173-0.95,2.127-2.123,2.127c-1.179,0-2.128-0.954-2.128-2.127
			C22.561,61.376,23.51,60.425,24.688,60.425z M31.596,64.674c-1.172,0-2.128-0.954-2.128-2.127c0-1.171,0.956-2.122,2.128-2.122
			c1.174,0,2.129,0.951,2.129,2.122C33.725,63.72,32.77,64.674,31.596,64.674z M31.596,57.642c-1.172,0-2.128-0.955-2.128-2.126
			c0-1.169,0.956-2.118,2.128-2.118c1.174,0,2.129,0.949,2.129,2.118C33.725,56.687,32.77,57.642,31.596,57.642z M31.596,50.609
			c-1.172,0-2.128-0.949-2.128-2.123c0-1.171,0.956-2.12,2.128-2.12c1.174,0,2.129,0.949,2.129,2.12
			C33.725,49.66,32.77,50.609,31.596,50.609z M35.053,40.23c0,1.172-0.954,2.12-2.127,2.12H16.715c-1.178,0-2.128-0.948-2.128-2.12
			V28.526c0-1.173,0.95-2.12,2.128-2.12h16.211c1.173,0,2.127,0.947,2.127,2.12V40.23z M86.335,34.371H64.188
			c-1.471,0-2.666,1.15-2.666,2.563v46.001c0,1.411,1.195,2.558,2.666,2.558h22.147c1.471,0,2.665-1.146,2.665-2.558V36.934
			C89,35.521,87.806,34.371,86.335,34.371z M71.396,38.354h7.729v0.541h-7.729V38.354z M75.261,82.814
			c-0.82,0-1.491-0.668-1.491-1.49c0-0.819,0.671-1.484,1.491-1.484c0.821,0,1.492,0.665,1.492,1.484
			C76.753,82.146,76.082,82.814,75.261,82.814z M87.183,77.246H63.345v-35.27h23.838V77.246z M51.146,51.228H40.473v5.086h10.674
			v3.392l9.219-6.056l-9.219-6.781V51.228z"/>
	</g>
</g>
</svg>
