<?xml version="1.0" encoding="utf-8"?>
<!-- Generator: Adobe Illustrator 16.0.0, SVG Export Plug-In . SVG Version: 6.00 Build 0)  -->
<!DOCTYPE svg PUBLIC "-//W3C//DTD SVG 1.1//EN" "http://www.w3.org/Graphics/SVG/1.1/DTD/svg11.dtd">
<svg version="1.1" id="圖層_1" xmlns="http://www.w3.org/2000/svg" xmlns:xlink="http://www.w3.org/1999/xlink" x="0px" y="0px"
	 width="100px" height="100px" viewBox="0 0 100 100" enable-background="new 0 0 100 100" xml:space="preserve">
<g>
	<g>
		<path fill="#D49229" d="M72.159,66.172c-0.897,0-1.751-0.341-2.408-0.966c-0.626-0.593-0.993-1.375-1.063-2.227
			c-1.587-0.146-3.161-0.334-4.71-0.562v10.428c0,1.741,1.416,3.154,3.161,3.154h4.034c1.744,0,3.16-1.413,3.16-3.154v-7.425
			l-0.228,0.151C73.525,65.963,72.855,66.172,72.159,66.172z M54.635,60.5c-1.765-0.467-3.503-0.996-5.185-1.57v13.91
			c0,1.741,1.417,3.154,3.162,3.154h4.039V76c1.746,0,3.162-1.413,3.162-3.154V61.698l-0.38-0.075
			C57.82,61.295,56.209,60.917,54.635,60.5z M35.882,52.539c-0.322-0.202-0.638-0.403-0.948-0.612v20.919
			c0,1.741,1.416,3.154,3.161,3.154h4.033c1.745,0,3.161-1.413,3.161-3.154v-15.48c-0.252-0.102-0.499-0.208-0.746-0.315
			C41.465,55.737,38.557,54.217,35.882,52.539z M22.675,40.168c-0.86-1.28-1.612-2.586-2.263-3.917v36.595
			c0,1.741,1.416,3.154,3.161,3.154h4.033c1.745,0,3.161-1.413,3.161-3.154V48.887c-0.423-0.348-0.841-0.694-1.246-1.048
			C26.816,45.479,24.515,42.9,22.675,40.168z M79.828,56.854l-6.739-4.75c-0.284-0.201-0.601-0.29-0.904-0.29
			c-0.821,0-1.587,0.65-1.587,1.577v1.526c-2.231-0.177-4.432-0.441-6.6-0.795c-1.404-0.227-2.795-0.491-4.167-0.794
			c-1.03-0.228-2.048-0.474-3.06-0.745c-2.549-0.675-4.982-1.47-7.303-2.385c-1.435-0.561-2.826-1.167-4.167-1.816
			c-1.764-0.852-3.439-1.779-5.026-2.775c-1.96-1.236-3.743-2.549-5.33-3.937c-2.074-1.805-3.825-3.898-5.494-6.068
			c-2.339-3.041-3.212-7.552-3.528-9.955C25.805,24.7,24.996,24,24.047,24h-2.649c-1.106,0-1.979,0.94-1.89,2.037
			c0.133,1.679,0.436,3.344,0.91,4.978c0.126,0.461,0.278,0.928,0.437,1.388c0.208,0.594,0.436,1.187,0.689,1.767
			c0.133,0.303,0.266,0.612,0.411,0.915c0.006,0.019,0.019,0.037,0.025,0.057c0.316,0.675,0.67,1.344,1.05,2.006
			s0.784,1.318,1.227,1.968c0.55,0.814,1.138,1.609,1.77,2.392c0.126,0.157,0.253,0.309,0.386,0.467
			c0.259,0.309,0.525,0.618,0.797,0.921c0.139,0.151,0.271,0.303,0.411,0.454c0.556,0.605,1.138,1.198,1.745,1.779
			c0.456,0.436,0.93,0.864,1.41,1.286c1.29,1.123,2.674,2.202,4.167,3.23c0.158,0.107,0.316,0.221,0.48,0.328
			s0.322,0.214,0.487,0.328c0.329,0.214,0.657,0.429,0.993,0.637c0.486,0.31,0.98,0.606,1.485,0.902
			c0.67,0.392,1.353,0.775,2.042,1.142c0.171,0.095,0.348,0.184,0.525,0.277c0.873,0.455,1.771,0.896,2.681,1.313
			c0.55,0.252,1.1,0.498,1.663,0.738c1.354,0.574,2.738,1.116,4.167,1.621c0.228,0.082,0.461,0.158,0.689,0.24
			c1.618,0.549,3.282,1.053,4.982,1.508c0.771,0.201,1.549,0.396,2.326,0.58l0.589,0.133c0.588,0.132,1.176,0.258,1.77,0.378
			c1.372,0.277,2.763,0.523,4.166,0.731h0.007c0.247,0.038,0.487,0.07,0.733,0.107c0.076,0.013,0.146,0.02,0.221,0.032l0.551,0.075
			c0.076,0.013,0.145,0.019,0.221,0.031c0.215,0.025,0.43,0.057,0.645,0.082c0.039,0.007,0.07,0.007,0.107,0.013l0.797,0.095
			c0.014,0,0.02,0,0.031,0.007c0.254,0.025,0.5,0.057,0.753,0.081c0.038,0.007,0.076,0.007,0.114,0.013
			c0.24,0.025,0.486,0.051,0.727,0.069c0.02,0,0.038,0.007,0.057,0.007c0.551,0.051,1.094,0.095,1.645,0.139v1.464
			c0,0.927,0.765,1.577,1.587,1.577c0.297,0,0.601-0.089,0.885-0.278l1.29-0.877l5.449-3.689
			C80.72,58.828,80.732,57.491,79.828,56.854z"/>
	</g>
</g>
</svg>
