<?xml version="1.0" encoding="utf-8"?>
<!-- Generator: Adobe Illustrator 16.0.0, SVG Export Plug-In . SVG Version: 6.00 Build 0)  -->
<!DOCTYPE svg PUBLIC "-//W3C//DTD SVG 1.1//EN" "http://www.w3.org/Graphics/SVG/1.1/DTD/svg11.dtd">
<svg version="1.1" id="圖層_1" xmlns="http://www.w3.org/2000/svg" xmlns:xlink="http://www.w3.org/1999/xlink" x="0px" y="0px"
	 width="100px" height="100px" viewBox="0 0 100 100" enable-background="new 0 0 100 100" xml:space="preserve">
<g>
	<g>
		<path fill="#D49229" d="M78.891,61.48l-3.745-3.739l0.42-0.409l-0.011-0.011l0.527-0.518c1.184-1.18,1.184-3.095,0-4.264
			l-0.227-0.236c-1.184-1.171-3.089-1.171-4.273,0L67.6,56.279l-0.527,0.538c-1.174,1.182-1.174,3.081,0,4.255l0.236,0.236
			c1.184,1.171,3.09,1.171,4.273,0l1.69-1.698l1.442,1.451L55.264,80.479L35.878,61.126c0.366-1.594,0.666-3.095,0.784-4.009
			c0.582-4.62,1.465-8.703,0.334-10.499c-1.452-2.331-4.512-2.471-5.716,1.354c-0.388,1.205-1.118,3.741-1.925,6.64l-4.781-4.758
			l19.464-19.43l8.75,8.737l-1.163,1.16v0.011l-0.527,0.526c-1.186,1.171-1.186,3.085,0,4.266l0.227,0.226
			c1.184,1.184,3.089,1.172,4.262,0l0.539-0.524l3.444-3.45l0.538-0.526c1.173-1.182,1.173-3.085,0-4.266l-0.237-0.236
			c-1.184-1.173-3.089-1.173-4.273,0l-0.937,0.945L44.327,26.977c-1.486-1.485-3.92-1.485-5.404,0L21.117,44.759
			c-1.496,1.483-1.496,3.911,0,5.384l7.407,7.405c-0.332,1.246-0.688,2.492-1.021,3.696c-1.164,4.212-2.122,7.747-2.133,7.758
			c-1.175,2.826-1.453,8.433,4.854,14.729c0.56,0.559,1.119,1.042,1.678,1.493c0.163,0.132,0.334,0.261,0.486,0.379
			c0.418,0.322,0.839,0.603,1.248,0.86c0.151,0.097,0.303,0.204,0.44,0.29c0.496,0.279,0.98,0.516,1.466,0.73
			c0.237,0.107,0.472,0.183,0.708,0.266c0.237,0.097,0.486,0.175,0.723,0.25c0.292,0.083,0.581,0.172,0.862,0.226
			c0.053,0.011,0.108,0.021,0.148,0.032c6.556,1.354,11.379-3.428,11.379-3.428l3.251-3.234l3.058,3.049
			c1.485,1.483,3.918,1.483,5.403,0l17.814-17.781C80.377,65.378,80.377,62.963,78.891,61.48z M29.118,40.654l5.704-5.694
			c0.171-0.173,0.463-0.173,0.645,0.011c0.186,0.171,0.186,0.474,0,0.644l-5.693,5.695c-0.185,0.174-0.474,0.185-0.655,0
			C28.934,41.127,28.934,40.838,29.118,40.654z M68.633,74.418c-0.743,0.741-1.948,0.741-2.702,0c-0.742-0.752-0.742-1.956,0-2.697
			c0.743-0.752,1.959-0.752,2.702,0C69.375,72.462,69.375,73.666,68.633,74.418z M50.915,17.938l1.657-1.675
			c-6.36-6.353-16.717-6.353-23.08,0.01l1.659,1.652C36.597,12.491,45.468,12.491,50.915,17.938z M56.942,45.652l-0.527,0.526
			c-1.184,1.171-1.184,3.083,0,4.266l0.237,0.226c1.173,1.183,3.078,1.183,4.263,0l3.993-3.976l0.517-0.527
			c1.185-1.172,1.185-3.083,0-4.267l-0.236-0.226c-1.174-1.181-3.079-1.181-4.263,0L56.942,45.652z M49.697,19.143
			c-4.778-4.761-12.549-4.761-17.331,0.011l1.67,1.654c3.854-3.846,10.139-3.846,13.993,0L49.697,19.143z M65.727,47.521
			l-3.983,3.978c-1.173,1.168-1.173,3.084,0,4.263l0.227,0.226c1.173,1.186,3.09,1.186,4.273,0l3.982-3.973l0.517-0.526
			c1.185-1.172,1.185-3.084,0.011-4.267l-0.236-0.226c-1.173-1.172-3.09-1.183-4.273,0L65.727,47.521z M37.018,23.784
			c2.208-2.213,5.823-2.213,8.03,0l1.667-1.665c-3.129-3.139-8.233-3.139-11.367,0L37.018,23.784z M56.858,55.562
			c-4.008-3.951-8.264,2.333-9.937,0.685c-0.558-0.551-0.371-1.226,0.128-1.73c1.583-1.6,4.015-0.543,4.943-1.482
			c0.586-0.591,0.442-1.386-0.134-1.953c-1.08-1.064-3.437-1.361-4.074-0.718c-0.31,0.313-0.394,0.746-0.6,0.954
			c-0.104,0.104-1.19,0.751-1.448,0.943c-0.38,0.243-0.643-0.187-0.887-0.428c-0.889-0.876-0.956-0.563-1.765,0.253
			c-0.843,0.853-0.93,0.871-0.059,1.729c0.471,0.464,0.574,0.463,0.214,1.001c-1.304,1.979-1.304,4.763,0.439,6.48
			c1.882,1.855,4.614,1.285,6.737,0.252c2.539-1.208,2.799-1.262,3.321-0.746c0.575,0.567-0.129,1.626-0.508,2.009
			c-2.667,2.695-4.866,0.047-6.054,1.247c-0.447,0.452-0.201,1.039,0.2,1.434c0.696,0.688,2.592,1.868,3.647,1.706
			c0.864-0.144,2.503-1.208,3.244-1.783c0.379-0.313,0.624,0.1,0.903,0.375c0.889,0.876,0.973,0.547,1.765-0.253
			c0.844-0.853,0.912-0.888,0.059-1.729c-0.418-0.412-0.609-0.497-0.231-0.949C57.917,61.484,59.141,57.813,56.858,55.562z"/>
	</g>
</g>
</svg>
