<?xml version="1.0" encoding="utf-8"?>
<!-- Generator: Adobe Illustrator 16.0.0, SVG Export Plug-In . SVG Version: 6.00 Build 0)  -->
<!DOCTYPE svg PUBLIC "-//W3C//DTD SVG 1.1//EN" "http://www.w3.org/Graphics/SVG/1.1/DTD/svg11.dtd">
<svg version="1.1" id="圖層_1" xmlns="http://www.w3.org/2000/svg" xmlns:xlink="http://www.w3.org/1999/xlink" x="0px" y="0px"
	 width="100px" height="100px" viewBox="0 0 100 100" enable-background="new 0 0 100 100" xml:space="preserve">
<path fill="#D49229" d="M67.571,43.658h-1.858v-6.864C65.713,28.083,58.664,21,50,21s-15.714,7.084-15.714,15.794v6.864h-1.857
	c-1.895,0-3.429,1.543-3.429,3.447v28.448C29,77.457,30.534,79,32.429,79h35.143C69.465,79,71,77.457,71,75.553V47.105
	C71,45.201,69.464,43.658,67.571,43.658L67.571,43.658z M53.331,61.664v5.65c0,1.85-1.491,3.35-3.331,3.35s-3.331-1.5-3.331-3.35
	v-5.65c-1.252-0.992-2.056-2.527-2.056-4.254c0-2.99,2.411-5.416,5.387-5.416s5.387,2.426,5.387,5.416
	C55.387,59.137,54.583,60.672,53.331,61.664L53.331,61.664z M57.206,43.337H42.793v-6.544c0-3.995,3.233-7.244,7.207-7.244
	s7.206,3.249,7.206,7.244V43.337z M57.206,43.337"/>
</svg>
