<?xml version="1.0" encoding="utf-8"?>
<!-- Generator: Adobe Illustrator 16.0.0, SVG Export Plug-In . SVG Version: 6.00 Build 0)  -->
<!DOCTYPE svg PUBLIC "-//W3C//DTD SVG 1.1//EN" "http://www.w3.org/Graphics/SVG/1.1/DTD/svg11.dtd">
<svg version="1.1" id="圖層_1" xmlns="http://www.w3.org/2000/svg" xmlns:xlink="http://www.w3.org/1999/xlink" x="0px" y="0px"
	 width="100px" height="100px" viewBox="0 0 100 100" enable-background="new 0 0 100 100" xml:space="preserve">
<path fill="#D49229" d="M60.871,61.663c0-7.223-5.891-13.098-13.128-13.098v-2.208c8.462,0,15.345,6.861,15.345,15.298
	L60.871,61.663z M59.262,61.655c-0.01-6.33-5.172-11.483-11.529-11.483l0.01,2.21c5.122,0,9.292,4.167,9.292,9.273H59.262z
	 M47.733,54.117l0.01,2.21c2.945,0,5.345,2.392,5.345,5.328h2.217C55.305,57.497,51.913,54.117,47.733,54.117L47.733,54.117z
	 M76.682,47.476h-7.024c-1.832,0-3.32,1.483-3.32,3.321v0.354c0,1.837,1.488,3.32,3.32,3.32h7.024c1.832,0,3.32-1.483,3.32-3.32
	v-0.363C80.002,48.959,78.514,47.476,76.682,47.476L76.682,47.476z M80.002,42.521v0.374c0,1.827-1.488,3.311-3.32,3.311h-7.024
	c-1.832,0-3.33-1.474-3.33-3.311v-0.364c0-1.837,1.498-3.309,3.33-3.309h0.819v-0.01h1.813V25.64H42.014v7.406
	c2.894-1.625,5.436-3.027,6.681-3.663c3.927-2.039,6.185,0.444,5.507,3.382c-0.527,2.271-4.383,4.763-8.451,7.902
	c-0.811,0.624-2.208,1.542-3.736,2.51V73.25h30.275v-2.251h-2.632c-1.843,0-3.33-1.485-3.33-3.313v-0.36
	c0-1.837,1.487-3.31,3.33-3.31h7.015c1.842,0,3.33,1.473,3.33,3.31v0.354c0,1.834-1.488,3.319-3.33,3.319h-1.458v5.813
	c0,2.299-1.893,4.188-4.2,4.188H43.288c-2.305,0-4.199-1.889-4.199-4.188v-4.763h-5.051c0,0-7.46-0.03-11.5-6.115
	c-0.04-0.073-0.091-0.121-0.129-0.185c-0.175-0.27-0.324-0.552-0.477-0.835c-0.133-0.244-0.262-0.504-0.384-0.769
	c-0.123-0.25-0.234-0.492-0.345-0.758c-0.212-0.534-0.396-1.097-0.557-1.702c-0.052-0.172-0.081-0.373-0.122-0.558
	c-0.121-0.524-0.223-1.069-0.304-1.643c-0.03-0.212-0.062-0.434-0.091-0.666c-0.072-0.777-0.132-1.584-0.132-2.462
	c0-9.788,4.586-13.938,7.714-15.219c0.018-0.01,5.778-3.298,11.376-6.447V23.188c0-2.302,1.894-4.188,4.199-4.188h27.726
	c2.308,0,4.2,1.886,4.2,4.188v16.034h1.468C78.514,39.213,80.002,40.694,80.002,42.521L80.002,42.521z M55.051,76.812
	c0,1.161,0.941,2.099,2.105,2.099s2.096-0.938,2.096-2.099c0-1.163-0.932-2.099-2.096-2.099S55.051,75.648,55.051,76.812
	L55.051,76.812z M62.096,22.521c0-0.282-0.223-0.504-0.506-0.504h-8.867c-0.283,0-0.516,0.222-0.516,0.504s0.232,0.504,0.516,0.504
	h8.867C61.863,23.025,62.096,22.804,62.096,22.521L62.096,22.521z M76.682,55.749h-7.024c-1.832,0-3.32,1.486-3.32,3.313v0.363
	c0,1.837,1.488,3.308,3.32,3.308h7.024c1.832,0,3.32-1.471,3.32-3.308v-0.363C80.002,57.235,78.514,55.749,76.682,55.749
	L76.682,55.749z M76.682,55.749"/>
</svg>
