<?xml version="1.0" encoding="utf-8"?>
<!-- Generator: Adobe Illustrator 16.0.0, SVG Export Plug-In . SVG Version: 6.00 Build 0)  -->
<!DOCTYPE svg PUBLIC "-//W3C//DTD SVG 1.1//EN" "http://www.w3.org/Graphics/SVG/1.1/DTD/svg11.dtd">
<svg version="1.1" id="圖層_1" xmlns="http://www.w3.org/2000/svg" xmlns:xlink="http://www.w3.org/1999/xlink" x="0px" y="0px"
	 width="174px" height="174px" viewBox="0 0 174 174" enable-background="new 0 0 174 174" xml:space="preserve">
<g>
	<g>
		<path fill="#FFFFFF" d="M87,87c4.142,0,7.678-1.44,10.607-4.322c2.932-2.879,4.396-6.355,4.396-10.427
			c0-4.07-1.464-7.546-4.396-10.428c-2.929-2.879-6.465-4.32-10.607-4.32c-4.143,0-7.679,1.441-10.608,4.32
			c-2.931,2.882-4.395,6.357-4.395,10.428c0,4.071,1.464,7.548,4.395,10.427C79.322,85.56,82.858,87,87,87z M114.369,102.575
			c-0.092-1.293-0.274-2.688-0.548-4.188c-0.271-1.497-0.618-2.888-1.035-4.167c-0.417-1.281-0.977-2.528-1.682-3.744
			c-0.702-1.217-1.51-2.253-2.421-3.111c-0.914-0.859-2.026-1.542-3.342-2.056c-1.316-0.511-2.768-0.767-4.355-0.767
			c-0.234,0-0.782,0.274-1.642,0.823c-0.859,0.554-1.829,1.168-2.91,1.846c-1.082,0.679-2.489,1.292-4.22,1.843
			c-1.733,0.551-3.47,0.826-5.217,0.826c-1.744,0-3.482-0.275-5.214-0.826c-1.733-0.551-3.141-1.164-4.22-1.843
			c-1.082-0.678-2.051-1.292-2.911-1.846c-0.86-0.549-1.408-0.823-1.642-0.823c-1.588,0-3.042,0.256-4.355,0.767
			c-1.316,0.514-2.431,1.196-3.342,2.056c-0.911,0.858-1.718,1.895-2.421,3.111c-0.705,1.216-1.265,2.463-1.681,3.744
			c-0.417,1.279-0.761,2.67-1.035,4.167c-0.273,1.499-0.457,2.895-0.548,4.188c-0.091,1.292-0.136,2.617-0.136,3.976
			c0,3.07,0.951,5.497,2.852,7.278c1.901,1.776,4.428,2.668,7.58,2.668h34.15c3.152,0,5.676-0.892,7.58-2.668
			c1.901-1.781,2.852-4.208,2.852-7.278C114.507,105.192,114.46,103.867,114.369,102.575z"/>
	</g>
</g>
</svg>
