<?xml version="1.0" encoding="utf-8"?>
<!-- Generator: Adobe Illustrator 16.0.0, SVG Export Plug-In . SVG Version: 6.00 Build 0)  -->
<!DOCTYPE svg PUBLIC "-//W3C//DTD SVG 1.1//EN" "http://www.w3.org/Graphics/SVG/1.1/DTD/svg11.dtd">
<svg version="1.1" id="圖層_1" xmlns="http://www.w3.org/2000/svg" xmlns:xlink="http://www.w3.org/1999/xlink" x="0px" y="0px"
	 width="174px" height="174px" viewBox="0 0 174 174" enable-background="new 0 0 174 174" xml:space="preserve">
<g>
	<g>
		<path fill="#FFFFFF" d="M100.774,80.814c1.16,0.597,3.404,0.947,3.505,0.963c0.027,0.003,0.164,0.051,0.164,0.174v1.667
			c0,0.479,0.405,0.869,0.902,0.869h0.805c0.498,0,0.903-0.39,0.903-0.869v-1.754c0-0.164,0.123-0.179,0.148-0.185
			c2.56-0.567,4.136-2.419,4.136-4.74c0-2.386-1.342-3.927-4.483-5.154c-2.392-0.946-3.082-1.519-3.082-2.553
			c0-0.828,0.634-1.794,2.423-1.794c1.582,0,2.795,0.616,2.807,0.621c0.127,0.067,0.271,0.104,0.411,0.104
			c0.347,0,0.653-0.208,0.78-0.529l0.435-1.097c0.15-0.399-0.078-0.748-0.371-0.872c-0.975-0.42-2.877-0.742-2.897-0.747
			c-0.03-0.004-0.137-0.027-0.137-0.151l-0.006-1.592c0-0.479-0.405-0.869-0.903-0.869h-0.779c-0.496,0-0.901,0.39-0.901,0.869
			l0.002,1.674c0,0.129-0.141,0.185-0.192,0.196c-2.403,0.565-3.905,2.303-3.905,4.496c0,2.734,2.288,3.971,4.758,4.896
			c1.976,0.767,2.78,1.543,2.78,2.683c0,1.239-1.141,2.105-2.774,2.105c-1.396,0-3.284-0.875-3.303-0.884
			c-0.121-0.058-0.249-0.085-0.382-0.085c-0.358,0-0.671,0.213-0.797,0.547l-0.415,1.11
			C100.257,80.33,100.483,80.666,100.774,80.814z M105.848,94.294c11.684,0,21.155-9.356,21.155-20.897s-9.472-20.898-21.155-20.898
			c-11.685,0-21.156,9.357-21.156,20.898S94.163,94.294,105.848,94.294z M105.848,57.342c8.977,0,16.252,7.188,16.252,16.055
			c0,8.866-7.275,16.055-16.252,16.055s-16.254-7.188-16.254-16.055C89.594,64.53,96.871,57.342,105.848,57.342z M122.704,104.421
			c-4.499,2.453-10.686,4.72-16.856,5.676c-5.489,0.852-15.818-1.2-15.818-3.622c0-0.918,9.059,2.262,14.538,0.817
			c4.202-1.106,3.605-4.99,1.319-5.502c-2.271-0.509-15.584-5.326-21.27-5.493c-2.679-0.078-9.291,0.921-12.491,1.437
			c-1.097,0.177-1.783,0.156-1.852,1.192c-0.319,4.815-0.947,14.664-1.288,19.81c-0.008,0.107,0.146,1.568,1.366,0.541
			c1.337-1.126,3.211-2.374,4.944-1.986c2.722,0.61,26.255,4.869,29.501,4.124c4.643-1.066,17.789-8.762,20.31-11.154
			C129.014,106.552,125.977,102.638,122.704,104.421z M63.78,97.545l-12.329-0.601c-0.952-0.046-1.924,0.662-2.161,1.574
			l-2.24,20.104c-0.237,0.912,0.349,1.688,1.301,1.725l13.663-0.002c0.953,0.037,1.791-0.702,1.864-1.641l1.5-19.37
			C65.45,98.397,64.731,97.592,63.78,97.545z M56.521,117.683c-1.883,0-3.408-1.507-3.408-3.367c0-1.859,1.525-3.367,3.408-3.367
			c1.882,0,3.409,1.508,3.409,3.367C59.931,116.176,58.405,117.683,56.521,117.683z"/>
	</g>
</g>
</svg>
