<?xml version="1.0" encoding="utf-8"?>
<!-- Generator: Adobe Illustrator 16.0.0, SVG Export Plug-In . SVG Version: 6.00 Build 0)  -->
<!DOCTYPE svg PUBLIC "-//W3C//DTD SVG 1.1//EN" "http://www.w3.org/Graphics/SVG/1.1/DTD/svg11.dtd">
<svg version="1.1" id="圖層_1" xmlns="http://www.w3.org/2000/svg" xmlns:xlink="http://www.w3.org/1999/xlink" x="0px" y="0px"
	 width="174px" height="174px" viewBox="0 0 174 174" enable-background="new 0 0 174 174" xml:space="preserve">
<g>
	<g>
		<path fill="#FFFFFF" d="M120.373,51.996H53.647c-2.842,0-5.146,2.303-5.146,5.124v46.95c0,2.842,2.304,5.119,5.146,5.119h25.579
			c0,0-4.49,10.253-16.81,10.253v2.562h47.87v-2.562c-12.672,0-15.541-10.253-15.541-10.253h25.627c2.821,0,5.125-2.277,5.125-5.119
			V57.12C125.498,54.299,123.194,51.996,120.373,51.996z M87.009,108.146c-1.596,0-2.889-1.281-2.889-2.865
			c0-1.588,1.293-2.842,2.889-2.842c1.578,0,2.871,1.254,2.871,2.842C89.88,106.865,88.587,108.146,87.009,108.146z
			 M119.997,100.881H54.003V57.446h65.994V100.881z M73.453,86.438c3.253,0.008,8.703,0.679,12.462,4.576V69.29
			c0-0.258-0.066-0.5-0.191-0.7c-3.086-4.922-9.016-5.67-12.275-5.679h-0.004c-0.368,0-0.716,0.144-0.979,0.403
			c-0.266,0.262-0.411,0.611-0.411,0.982v20.756C72.055,85.814,72.682,86.436,73.453,86.438z M101.945,85.053V64.297
			c0-0.371-0.146-0.721-0.411-0.982c-0.262-0.26-0.61-0.403-0.979-0.403h-0.003c-3.26,0.009-9.188,0.757-12.274,5.679
			c-0.126,0.2-0.192,0.442-0.192,0.7v21.723c3.76-3.896,9.209-4.567,12.462-4.575C101.318,86.435,101.945,85.813,101.945,85.053z
			 M90.022,92.148c5.572-1.352,11.446-0.475,14.793,0.283c0.418,0.093,0.851-0.004,1.185-0.268c0.334-0.265,0.525-0.659,0.525-1.083
			V69.083c0.001-0.763-0.627-1.384-1.397-1.384h-1.013v17.354c0,1.945-1.599,3.528-3.563,3.533
			C97.793,88.594,93.244,89.128,90.022,92.148z M68,92.162c0.334,0.266,0.766,0.362,1.185,0.269
			c3.348-0.757,9.222-1.635,14.794-0.283c-3.222-3.021-7.771-3.554-10.53-3.562c-1.965-0.005-3.563-1.588-3.563-3.533V67.699h-1.014
			c-0.771,0-1.396,0.621-1.396,1.384v21.998C67.475,91.505,67.666,91.899,68,92.162z"/>
	</g>
</g>
</svg>
