<?xml version="1.0" encoding="utf-8"?>
<!-- Generator: Adobe Illustrator 16.0.0, SVG Export Plug-In . SVG Version: 6.00 Build 0)  -->
<!DOCTYPE svg PUBLIC "-//W3C//DTD SVG 1.1//EN" "http://www.w3.org/Graphics/SVG/1.1/DTD/svg11.dtd">
<svg version="1.1" id="圖層_1" xmlns="http://www.w3.org/2000/svg" xmlns:xlink="http://www.w3.org/1999/xlink" x="0px" y="0px"
	 width="174px" height="174px" viewBox="0 0 174 174" enable-background="new 0 0 174 174" xml:space="preserve">
<g>
	<g>
		<path fill="#FFFFFF" d="M100.774,80.814c1.16,0.598,3.404,0.947,3.505,0.963c0.027,0.003,0.164,0.051,0.164,0.174v1.666
			c0,0.479,0.405,0.87,0.902,0.87h0.805c0.498,0,0.903-0.391,0.903-0.87v-1.752c0-0.165,0.123-0.179,0.148-0.187
			c2.56-0.567,4.136-2.417,4.136-4.739c0-2.387-1.342-3.928-4.483-5.154c-2.392-0.946-3.082-1.52-3.082-2.553
			c0-0.828,0.635-1.794,2.423-1.794c1.582,0,2.795,0.615,2.807,0.621c0.127,0.067,0.271,0.104,0.411,0.104
			c0.347,0,0.653-0.206,0.78-0.527l0.435-1.097c0.15-0.4-0.078-0.75-0.371-0.873c-0.975-0.42-2.877-0.743-2.897-0.748
			c-0.03-0.005-0.137-0.026-0.137-0.149l-0.006-1.592c0-0.48-0.405-0.87-0.903-0.87h-0.779c-0.496,0-0.901,0.39-0.901,0.87
			l0.002,1.673c0,0.129-0.141,0.185-0.192,0.196c-2.403,0.565-3.905,2.303-3.905,4.497c0,2.733,2.288,3.97,4.758,4.896
			c1.976,0.765,2.78,1.541,2.78,2.682c0,1.238-1.141,2.104-2.774,2.104c-1.396,0-3.284-0.875-3.303-0.883
			c-0.121-0.058-0.249-0.085-0.382-0.085c-0.358,0-0.671,0.214-0.797,0.547l-0.415,1.11
			C100.257,80.33,100.483,80.666,100.774,80.814z M105.848,94.293c11.684,0,21.155-9.355,21.155-20.897
			c0-11.541-9.472-20.897-21.155-20.897c-11.685,0-21.156,9.356-21.156,20.897C84.691,84.938,94.163,94.293,105.848,94.293z
			 M105.848,57.34c8.977,0,16.252,7.19,16.252,16.056c0,8.866-7.275,16.055-16.252,16.055s-16.254-7.189-16.254-16.055
			C89.594,64.531,96.871,57.34,105.848,57.34z M122.704,104.421c-4.499,2.452-10.686,4.721-16.856,5.677
			c-5.489,0.85-15.818-1.201-15.818-3.624c0-0.917,9.059,2.263,14.538,0.817c4.202-1.106,3.604-4.989,1.319-5.502
			c-2.271-0.509-15.584-5.325-21.27-5.492c-2.679-0.078-9.291,0.92-12.491,1.436c-1.097,0.176-1.783,0.157-1.852,1.193
			c-0.319,4.815-0.947,14.663-1.288,19.81c-0.008,0.106,0.145,1.567,1.366,0.54c1.337-1.125,3.211-2.374,4.944-1.986
			c2.722,0.61,26.255,4.87,29.501,4.125c4.643-1.066,17.789-8.763,20.31-11.153C129.014,106.552,125.977,102.638,122.704,104.421z
			 M63.78,97.545l-12.329-0.601c-0.952-0.046-1.924,0.663-2.161,1.574l-2.24,20.104c-0.237,0.912,0.349,1.687,1.301,1.725
			l13.663-0.002c0.953,0.036,1.791-0.702,1.864-1.641l1.5-19.37C65.45,98.396,64.731,97.592,63.78,97.545z M56.521,117.683
			c-1.883,0-3.408-1.508-3.408-3.367c0-1.86,1.525-3.368,3.408-3.368c1.882,0,3.409,1.508,3.409,3.368
			C59.931,116.175,58.405,117.683,56.521,117.683z"/>
	</g>
</g>
</svg>
