<?xml version="1.0" encoding="utf-8"?>
<!-- Generator: Adobe Illustrator 16.0.0, SVG Export Plug-In . SVG Version: 6.00 Build 0)  -->
<!DOCTYPE svg PUBLIC "-//W3C//DTD SVG 1.1//EN" "http://www.w3.org/Graphics/SVG/1.1/DTD/svg11.dtd">
<svg version="1.1" id="圖層_1" xmlns="http://www.w3.org/2000/svg" xmlns:xlink="http://www.w3.org/1999/xlink" x="0px" y="0px"
	 width="174px" height="174px" viewBox="0 0 174 174" enable-background="new 0 0 174 174" xml:space="preserve">
<g>
	<g>
		<path fill="#FFFFFF" d="M87,87.001c4.143,0,7.678-1.44,10.607-4.323c2.932-2.879,4.396-6.354,4.396-10.427
			c0-4.069-1.464-7.545-4.396-10.428c-2.93-2.878-6.465-4.32-10.607-4.32c-4.142,0-7.678,1.442-10.608,4.32
			c-2.931,2.883-4.395,6.358-4.395,10.428c0,4.072,1.464,7.548,4.395,10.427C79.322,85.561,82.858,87.001,87,87.001z
			 M114.369,102.575c-0.092-1.294-0.274-2.689-0.549-4.188c-0.271-1.498-0.617-2.889-1.034-4.168
			c-0.417-1.28-0.977-2.527-1.682-3.743c-0.702-1.217-1.511-2.253-2.421-3.112c-0.914-0.858-2.025-1.541-3.342-2.055
			c-1.316-0.511-2.768-0.767-4.355-0.767c-0.234,0-0.781,0.273-1.641,0.823c-0.859,0.554-1.83,1.167-2.911,1.845
			c-1.082,0.68-2.489,1.293-4.22,1.843c-1.732,0.551-3.471,0.827-5.217,0.827c-1.745,0-3.482-0.276-5.215-0.827
			c-1.733-0.55-3.141-1.163-4.22-1.843c-1.082-0.678-2.051-1.291-2.911-1.845c-0.86-0.55-1.408-0.823-1.642-0.823
			c-1.588,0-3.042,0.256-4.355,0.767c-1.316,0.514-2.431,1.196-3.342,2.055c-0.911,0.859-1.718,1.896-2.421,3.112
			c-0.705,1.216-1.265,2.463-1.681,3.743c-0.417,1.279-0.761,2.67-1.035,4.168s-0.457,2.894-0.548,4.188
			c-0.091,1.292-0.136,2.617-0.136,3.975c0,3.07,0.951,5.497,2.852,7.279c1.901,1.776,4.428,2.668,7.58,2.668h34.15
			c3.151,0,5.676-0.892,7.579-2.668c1.902-1.782,2.853-4.209,2.853-7.279C114.507,105.192,114.46,103.867,114.369,102.575z"/>
	</g>
</g>
</svg>
