<?xml version="1.0" encoding="utf-8"?>
<!-- Generator: Adobe Illustrator 16.0.0, SVG Export Plug-In . SVG Version: 6.00 Build 0)  -->
<!DOCTYPE svg PUBLIC "-//W3C//DTD SVG 1.1//EN" "http://www.w3.org/Graphics/SVG/1.1/DTD/svg11.dtd">
<svg version="1.1" id="圖層_1" xmlns="http://www.w3.org/2000/svg" xmlns:xlink="http://www.w3.org/1999/xlink" x="0px" y="0px"
	 width="174px" height="174px" viewBox="0 0 174 174" enable-background="new 0 0 174 174" xml:space="preserve">
<g>
	<g>
		<path fill="#FFFFFF" d="M118.5,97.763H89.777v-23.53c0-1.485-1.195-2.689-2.667-2.689c-1.472,0-2.665,1.205-2.665,2.689v23.53
			H55.65c-0.982,0-1.852,0.802-1.852,1.793v17.254c0,0.99,0.869,1.793,1.852,1.793h62.85c0.98,0,1.701-0.803,1.701-1.793V99.556
			C120.201,98.564,119.48,97.763,118.5,97.763z M65.087,111.769c-1.962,0-3.553-1.605-3.553-3.586s1.591-3.586,3.553-3.586
			s3.553,1.605,3.553,3.586S67.049,111.769,65.087,111.769z M75.748,111.769c-1.963,0-3.554-1.605-3.554-3.586
			s1.591-3.586,3.554-3.586s3.554,1.605,3.554,3.586S77.71,111.769,75.748,111.769z M109.172,111.88H87.185
			c-1.963,0-3.554-1.604-3.554-3.585c0-1.085,0.479-2.056,1.233-2.713c0.624-0.542,1.433-0.872,2.32-0.872h21.987
			c1.963,0,3.553,1.605,3.553,3.585C112.725,110.275,111.135,111.88,109.172,111.88z M111.01,73.859
			c0,5.24-2.021,10.167-5.695,13.871c-1.039,1.051-1.039,2.754,0,3.805c0.521,0.525,1.203,0.787,1.885,0.787
			s1.365-0.262,1.885-0.787c4.678-4.721,7.256-10.999,7.256-17.675c0-6.676-2.578-12.953-7.256-17.673
			c-1.041-1.05-2.729-1.05-3.77,0s-1.041,2.752,0,3.802C108.988,63.693,111.01,68.619,111.01,73.859z M98.48,85.662
			c0.521,0.525,1.203,0.788,1.885,0.788s1.365-0.263,1.885-0.788c3.125-3.151,4.846-7.344,4.846-11.803
			c0-4.458-1.721-8.649-4.846-11.802c-1.041-1.052-2.729-1.051-3.77,0c-1.041,1.049-1.041,2.753,0,3.802
			c2.119,2.137,3.285,4.977,3.285,8c0,3.022-1.166,5.863-3.285,7.999C97.439,82.909,97.439,84.612,98.48,85.662z M67.023,92.321
			c0.682,0,1.363-0.262,1.883-0.787c1.041-1.051,1.041-2.754,0-3.805c-3.672-3.704-5.693-8.63-5.693-13.871
			c0-5.24,2.021-10.166,5.693-13.871c1.041-1.049,1.041-2.752,0-3.802c-1.039-1.05-2.728-1.05-3.768,0
			c-4.68,4.721-7.256,10.998-7.256,17.673c0,6.677,2.576,12.954,7.256,17.675C65.659,92.06,66.34,92.321,67.023,92.321z
			 M71.972,85.662c0.52,0.525,1.202,0.788,1.884,0.788c0.683,0,1.364-0.263,1.885-0.788c1.041-1.05,1.041-2.753,0-3.804
			c-2.117-2.136-3.284-4.977-3.284-7.999c0-3.022,1.167-5.863,3.284-8c1.041-1.049,1.041-2.753,0-3.802
			c-1.04-1.051-2.728-1.051-3.769,0c-3.125,3.152-4.846,7.343-4.846,11.802S68.847,82.51,71.972,85.662z"/>
	</g>
</g>
</svg>
