<?xml version="1.0" encoding="utf-8"?>
<!-- Generator: Adobe Illustrator 16.0.0, SVG Export Plug-In . SVG Version: 6.00 Build 0)  -->
<!DOCTYPE svg PUBLIC "-//W3C//DTD SVG 1.1//EN" "http://www.w3.org/Graphics/SVG/1.1/DTD/svg11.dtd">
<svg version="1.1" id="圖層_1" xmlns="http://www.w3.org/2000/svg" xmlns:xlink="http://www.w3.org/1999/xlink" x="0px" y="0px"
	 width="174px" height="174px" viewBox="0 0 174 174" enable-background="new 0 0 174 174" xml:space="preserve">
<g>
	<g>
		<path fill="#FFFFFF" d="M115.992,84.307l-9.092-9.113V64.665c0-1.903-1.539-3.446-3.441-3.446c-1.898,0-3.438,1.542-3.438,3.446
			V68.3l-6.771-6.787c-3.348-3.353-9.168-3.347-12.508,0.006L58.006,84.307c-1.342,1.348-1.342,3.529,0,4.875
			c1.344,1.348,3.523,1.348,4.865,0l22.735-22.788c0.741-0.738,2.046-0.738,2.782-0.002l22.738,22.79
			c0.676,0.674,1.555,1.01,2.434,1.01c0.88,0,1.761-0.336,2.434-1.01C117.336,87.836,117.336,85.654,115.992,84.307z M88.193,72.936
			c-0.66-0.662-1.729-0.662-2.388,0l-20,20.039c-0.315,0.316-0.494,0.748-0.494,1.198v14.616c0,3.43,2.774,6.209,6.196,6.209h9.901
			V99.629h11.179v15.369h9.902c3.422,0,6.196-2.779,6.196-6.209V94.173c0-0.45-0.178-0.882-0.495-1.198L88.193,72.936z"/>
	</g>
</g>
</svg>
