<?xml version="1.0" encoding="utf-8"?>
<!-- Generator: Adobe Illustrator 16.0.0, SVG Export Plug-In . SVG Version: 6.00 Build 0)  -->
<!DOCTYPE svg PUBLIC "-//W3C//DTD SVG 1.1//EN" "http://www.w3.org/Graphics/SVG/1.1/DTD/svg11.dtd">
<svg version="1.1" id="圖層_1" xmlns="http://www.w3.org/2000/svg" xmlns:xlink="http://www.w3.org/1999/xlink" x="0px" y="0px"
	 width="174px" height="174px" viewBox="0 0 174 174" enable-background="new 0 0 174 174" xml:space="preserve">
<g>
	<g>
		<path fill="#FFFFFF" d="M113.444,56.197H60.557c-3.285,0-5.957,2.683-5.957,5.979v32.813c0,3.296,2.672,5.979,5.957,5.979h18.972
			v9.13h-6.074c-1.517,0-2.743,1.232-2.743,2.754v2.2c0,1.519,1.227,2.751,2.743,2.751h27.089c1.517,0,2.743-1.232,2.743-2.751v-2.2
			c0-1.521-1.227-2.754-2.743-2.754H94.47v-9.13h18.975c3.284,0,5.956-2.683,5.956-5.979V62.177
			C119.4,58.88,116.729,56.197,113.444,56.197z M112.969,94.513H61.031V62.653h51.938V94.513z M85.999,91.991
			c2.457,0,4.324-0.284,6.355-1.102c0.381-0.153,0.582-0.573,0.459-0.969l-0.151-0.487c-0.079-0.261-0.264-0.477-0.508-0.597
			c-0.245-0.122-0.528-0.134-0.784-0.038c-1.384,0.527-3.031,0.803-4.603,0.803c-5.719,0-9.826-3.66-9.826-10.095
			c0-7.358,5.144-11.982,11.018-11.982c5.95,0,9.171,3.892,9.171,8.899c0,4.432-2.07,6.55-3.721,6.512
			c-1.076-0.037-1.346-1.078-0.96-3.352l0.993-6.145c0.1-0.619-0.266-1.216-0.861-1.407c-1.009-0.322-2.336-0.538-3.547-0.538
			c-5.529,0-8.984,4.275-8.984,8.976c0,3.159,1.803,5.009,4.299,5.009c2.023,0,3.84-1.003,5.031-2.947
			c0.197,2.028,1.503,2.947,3.297,2.947c4.147,0,7.295-3.543,7.295-9.17c0-6.472-4.836-11.134-11.591-11.134
			c-8.677,0-14.358,6.822-14.358,14.679C74.022,87.406,79.628,91.991,85.999,91.991z M89.07,78.351
			c-0.347,2.235-1.841,4.045-3.265,4.045c-1.265,0-1.918-0.923-1.918-2.388c0-2.966,1.998-5.469,4.531-5.469
			c0.498,0,0.883,0.075,1.189,0.151L89.07,78.351z"/>
	</g>
</g>
</svg>
