<?xml version="1.0" encoding="utf-8"?>
<!-- Generator: Adobe Illustrator 16.0.0, SVG Export Plug-In . SVG Version: 6.00 Build 0)  -->
<!DOCTYPE svg PUBLIC "-//W3C//DTD SVG 1.1//EN" "http://www.w3.org/Graphics/SVG/1.1/DTD/svg11.dtd">
<svg version="1.1" id="圖層_1" xmlns="http://www.w3.org/2000/svg" xmlns:xlink="http://www.w3.org/1999/xlink" x="0px" y="0px"
	 width="174px" height="174px" viewBox="0 0 174 174" enable-background="new 0 0 174 174" xml:space="preserve">
<g>
	<g>
		<path fill="#FFFFFF" d="M116.438,69.934c-3.04-5.207-7.163-9.329-12.373-12.37c-5.21-3.041-10.896-4.561-17.063-4.561
			s-11.855,1.52-17.063,4.561c-5.211,3.038-9.334,7.163-12.374,12.37c-3.04,5.211-4.561,10.898-4.561,17.066
			c0,6.166,1.521,11.853,4.561,17.064c3.04,5.207,7.163,9.332,12.371,12.371c5.211,3.039,10.898,4.561,17.066,4.561
			s11.855-1.521,17.063-4.561s9.333-7.164,12.373-12.371c3.038-5.211,4.558-10.898,4.558-17.064
			C120.996,80.833,119.477,75.142,116.438,69.934z M113.074,98c-1.506,3.496-3.52,6.508-6.043,9.031
			c-2.522,2.521-5.534,4.535-9.03,6.041c-3.497,1.506-7.163,2.256-10.999,2.256s-7.502-0.754-11-2.256
			c-3.498-1.506-6.508-3.52-9.03-6.041c-2.522-2.523-4.536-5.535-6.043-9.031c-1.504-3.496-2.258-7.166-2.258-11
			c0-3.839,0.754-7.505,2.258-11.001c1.504-3.497,3.519-6.508,6.043-9.03c2.522-2.523,5.532-4.537,9.03-6.041
			c3.498-1.505,7.164-2.258,11-2.258s7.502,0.75,10.999,2.258c3.496,1.504,6.508,3.518,9.03,6.041
			c2.523,2.522,4.537,5.533,6.043,9.03c1.505,3.496,2.258,7.162,2.258,11.001C115.332,90.836,114.579,94.504,113.074,98z
			 M101.389,91.381c-0.737-0.236-1.462-0.176-2.17,0.178c-0.709,0.352-1.181,0.914-1.417,1.682
			c-0.735,2.361-2.101,4.273-4.094,5.734c-1.992,1.461-4.229,2.189-6.706,2.189c-2.479,0-4.715-0.732-6.707-2.189
			c-1.992-1.463-3.355-3.373-4.094-5.734c-0.235-0.768-0.7-1.326-1.395-1.682c-0.693-0.354-1.409-0.414-2.147-0.178
			c-0.767,0.236-1.326,0.699-1.682,1.395c-0.355,0.693-0.414,1.41-0.178,2.146c1.093,3.57,3.129,6.449,6.11,8.633
			c2.979,2.184,6.343,3.273,10.092,3.273c3.748,0,7.112-1.09,10.094-3.273c2.977-2.186,5.015-5.063,6.107-8.633
			c0.236-0.736,0.178-1.453-0.178-2.146C102.67,92.08,102.123,91.619,101.389,91.381z M75.668,84.73c1.565,0,2.9-0.554,4.007-1.66
			c1.105-1.106,1.66-2.44,1.66-4.006c0-1.565-0.555-2.9-1.66-4.006c-1.106-1.106-2.441-1.66-4.007-1.66
			c-1.563,0-2.898,0.554-4.005,1.66c-1.106,1.106-1.662,2.441-1.662,4.006c0,1.566,0.556,2.9,1.662,4.006S74.105,84.73,75.668,84.73
			z M98.332,73.397c-1.563,0-2.899,0.554-4.006,1.66c-1.105,1.106-1.66,2.441-1.66,4.006c0,1.566,0.555,2.9,1.66,4.006
			c1.106,1.106,2.443,1.66,4.006,1.66s2.9-0.554,4.006-1.66c1.106-1.106,1.661-2.44,1.661-4.006c0-1.565-0.555-2.9-1.661-4.006
			C101.232,73.951,99.895,73.397,98.332,73.397z"/>
	</g>
</g>
</svg>
