<?xml version="1.0" encoding="utf-8"?>
<!-- Generator: Adobe Illustrator 16.0.0, SVG Export Plug-In . SVG Version: 6.00 Build 0)  -->
<!DOCTYPE svg PUBLIC "-//W3C//DTD SVG 1.1//EN" "http://www.w3.org/Graphics/SVG/1.1/DTD/svg11.dtd">
<svg version="1.1" id="圖層_1" xmlns="http://www.w3.org/2000/svg" xmlns:xlink="http://www.w3.org/1999/xlink" x="0px" y="0px"
	 width="174px" height="174px" viewBox="0 0 174 174" enable-background="new 0 0 174 174" xml:space="preserve">
<path fill="#FFFFFF" d="M86.997,52.503c-19.049,0-34.494,15.445-34.494,34.493c0,19.059,15.445,34.501,34.494,34.501
	c19.056,0,34.501-15.442,34.501-34.501C121.498,67.948,106.053,52.503,86.997,52.503L86.997,52.503z M115.42,85.504h-9.455
	c-0.117-4.952-0.805-9.631-1.955-13.827c1.846-1.07,3.266-2.314,4.16-3.684C112.395,72.695,115.068,78.788,115.42,85.504
	L115.42,85.504z M103.211,109.348c-0.277,0.549-1.252,1.385-2.877,2.211c0.592-1.068,1.148-2.211,1.662-3.42
	C102.633,108.602,103.049,109.025,103.211,109.348L103.211,109.348z M71.998,108.139c0.521,1.209,1.069,2.352,1.671,3.42
	c-1.633-0.826-2.608-1.662-2.879-2.211C70.952,109.025,71.368,108.602,71.998,108.139L71.998,108.139z M70.79,64.651
	c0.271-0.555,1.246-1.383,2.879-2.21c-0.602,1.068-1.15,2.21-1.671,3.412C71.368,65.4,70.952,64.974,70.79,64.651L70.79,64.651z
	 M101.996,65.861c-0.514-1.21-1.07-2.352-1.662-3.42c1.625,0.827,2.6,1.655,2.877,2.21C103.049,64.974,102.633,65.4,101.996,65.861
	L101.996,65.861z M90,59.855c0.234,0.016,0.469,0.03,0.695,0.06c2.16,1.597,4.219,4.51,5.844,8.393
	c-1.83,0.526-4.014,0.945-6.539,1.135V59.855z M83.307,59.915c0.226-0.023,0.46-0.044,0.694-0.06v9.587
	c-2.526-0.189-4.716-0.608-6.54-1.135C79.088,64.425,81.145,61.512,83.307,59.915L83.307,59.915z M84.001,75.455v10.049h-9.952
	c0.109-4.184,0.66-8.057,1.531-11.498C78.105,74.744,80.956,75.25,84.001,75.455L84.001,75.455z M84.001,91.5v7.045
	c-3.046,0.205-5.896,0.704-8.421,1.451c-0.652-2.6-1.129-5.457-1.371-8.496H84.001z M84.001,104.551v9.594
	c-0.234-0.021-0.469-0.037-0.694-0.059c-2.162-1.596-4.219-4.511-5.846-8.4C79.286,105.159,81.475,104.748,84.001,104.551
	L84.001,104.551z M90.695,114.086c-0.227,0.021-0.461,0.037-0.695,0.059v-9.594c2.525,0.197,4.715,0.608,6.539,1.135
	C94.914,109.575,92.855,112.482,90.695,114.086L90.695,114.086z M90,98.545V91.5h9.791c-0.242,3.039-0.719,5.896-1.377,8.496
	C95.887,99.249,93.047,98.75,90,98.545L90,98.545z M90,85.504V75.455c3.047-0.205,5.887-0.711,8.414-1.449
	c0.879,3.441,1.428,7.314,1.531,11.498H90z M65.824,67.993c0.901,1.369,2.323,2.613,4.159,3.684
	c-1.141,4.196-1.836,8.875-1.955,13.827h-9.446C58.934,78.788,61.605,72.695,65.824,67.993L65.824,67.993z M58.897,91.5h9.277
	c0.279,3.846,0.902,7.485,1.809,10.824c-1.836,1.071-3.265,2.314-4.159,3.677C62.243,102.018,59.776,97.022,58.897,91.5L58.897,91.5
	z M108.176,106.001c-0.9-1.362-2.32-2.605-4.166-3.677c0.914-3.339,1.537-6.979,1.816-10.824h9.277
	C114.227,97.022,111.758,102.018,108.176,106.001L108.176,106.001z M108.176,106.001"/>
</svg>
