<?xml version="1.0" encoding="utf-8"?>
<!-- Generator: Adobe Illustrator 16.0.0, SVG Export Plug-In . SVG Version: 6.00 Build 0)  -->
<!DOCTYPE svg PUBLIC "-//W3C//DTD SVG 1.1//EN" "http://www.w3.org/Graphics/SVG/1.1/DTD/svg11.dtd">
<svg version="1.1" id="圖層_1" xmlns="http://www.w3.org/2000/svg" xmlns:xlink="http://www.w3.org/1999/xlink" x="0px" y="0px"
	 width="174px" height="174px" viewBox="0 0 174 174" enable-background="new 0 0 174 174" xml:space="preserve">
<path fill="#FFFFFF" d="M70.394,52.011l-1.814-1.803c6.957-6.941,18.28-6.941,25.237-0.011l-1.813,1.827
	C86.046,46.082,76.347,46.082,70.394,52.011L70.394,52.011z M90.672,53.338c-5.225-5.194-13.721-5.194-18.95,0.012l1.826,1.804
	c4.213-4.196,11.084-4.196,15.299,0L90.672,53.338z M76.808,58.401c2.414-2.414,6.367-2.414,8.779,0l1.823-1.815
	c-3.422-3.425-9.002-3.425-12.429,0L76.808,58.401z M98.594,82.258l-0.576,0.573c-1.295,1.278-1.295,3.363,0,4.653l0.26,0.246
	c1.281,1.29,3.365,1.29,4.66,0l4.365-4.337l0.566-0.574c1.293-1.277,1.293-3.363,0-4.655l-0.26-0.245
	c-1.283-1.289-3.365-1.289-4.66,0L98.594,82.258z M108.197,84.295l-4.354,4.337c-1.283,1.275-1.283,3.365,0,4.652l0.246,0.246
	c1.283,1.293,3.379,1.293,4.672,0l4.355-4.335l0.564-0.574c1.295-1.278,1.295-3.364,0.012-4.654l-0.258-0.246
	c-1.283-1.278-3.379-1.29-4.674,0L108.197,84.295z M122.592,105.396l-19.479,19.397c-1.623,1.618-4.283,1.618-5.908,0l-3.342-3.326
	l-3.555,3.528c0,0-5.276,5.217-12.443,3.739c-0.044-0.011-0.104-0.022-0.162-0.034c-0.308-0.06-0.624-0.155-0.942-0.247
	c-0.26-0.082-0.531-0.167-0.791-0.272c-0.259-0.091-0.515-0.172-0.773-0.29c-0.531-0.234-1.061-0.492-1.604-0.797
	c-0.149-0.095-0.316-0.211-0.48-0.316c-0.447-0.281-0.908-0.586-1.365-0.938c-0.167-0.129-0.354-0.27-0.531-0.413
	c-0.61-0.491-1.223-1.019-1.835-1.629c-6.896-6.87-6.592-12.985-5.308-16.068c0.012-0.011,1.06-3.868,2.332-8.464
	c0.363-1.313,0.753-2.672,1.116-4.032l-8.099-8.078c-1.636-1.606-1.636-4.255,0-5.873l19.468-19.399
	c1.622-1.621,4.284-1.621,5.908,0l11.3,11.253l1.023-1.031c1.295-1.28,3.377-1.28,4.672,0l0.26,0.257
	c1.283,1.288,1.283,3.365,0,4.655l-0.588,0.574l-3.768,3.763l-0.588,0.573c-1.283,1.277-3.365,1.29-4.66,0l-0.248-0.246
	c-1.296-1.289-1.296-3.377,0-4.655l0.578-0.574v-0.011l1.27-1.267l-9.568-9.53L63.203,86.84l5.228,5.19
	c0.882-3.162,1.681-5.928,2.104-7.243c1.317-4.172,4.662-4.02,6.25-1.477c1.235,1.959,0.271,6.413-0.365,11.453
	c-0.13,0.996-0.457,2.635-0.857,4.373l21.196,21.112l21.268-21.183l-1.578-1.582l-1.848,1.852c-1.293,1.278-3.377,1.278-4.672,0
	l-0.258-0.258c-1.283-1.281-1.283-3.352,0-4.643l0.576-0.586l4.354-4.337c1.295-1.277,3.379-1.277,4.674,0l0.246,0.258
	c1.295,1.274,1.295,3.364,0,4.651l-0.576,0.565l0.012,0.012l-0.459,0.445l4.096,4.079
	C124.215,101.143,124.215,103.775,122.592,105.396L122.592,105.396z M68.17,77.52c0.199,0.201,0.516,0.188,0.717,0l6.225-6.213
	c0.203-0.186,0.203-0.516,0-0.702c-0.199-0.201-0.519-0.201-0.705-0.012l-6.236,6.211C67.969,77.005,67.969,77.321,68.17,77.52
	L68.17,77.52z M111.375,110.695c-0.813-0.82-2.141-0.82-2.953,0c-0.813,0.809-0.813,2.121,0,2.942c0.824,0.809,2.141,0.809,2.953,0
	C112.188,112.816,112.188,111.504,111.375,110.695L111.375,110.695z M111.375,110.695"/>
</svg>
