<?xml version="1.0" encoding="utf-8"?>
<!-- Generator: Adobe Illustrator 16.0.0, SVG Export Plug-In . SVG Version: 6.00 Build 0)  -->
<!DOCTYPE svg PUBLIC "-//W3C//DTD SVG 1.1//EN" "http://www.w3.org/Graphics/SVG/1.1/DTD/svg11.dtd">
<svg version="1.1" id="圖層_1" xmlns="http://www.w3.org/2000/svg" xmlns:xlink="http://www.w3.org/1999/xlink" x="0px" y="0px"
	 width="174px" height="174px" viewBox="0 0 174 174" enable-background="new 0 0 174 174" xml:space="preserve">
<g>
	<g>
		<path fill="#FFFFFF" d="M96.191,79.263c-0.008,0-17.143-0.007-18.359-0.007h-0.008c-1.566,0-2.836,1.277-2.827,2.82l0.059,17.488
			c0.008,1.543,1.269,2.82,2.822,2.82h0.005c0.881,0,1.666-0.436,2.181-1.055l1.112,17.02c0.097,1.521,1.373,2.66,2.917,2.66h5.814
			c1.538,0,2.813-1.152,2.919-2.674l1.104-17.059c0.522,0.664,1.299,1.107,2.178,1.107h0.017c1.545,0,2.813-1.299,2.821-2.828
			l0.06-17.458C99.005,80.57,97.751,79.263,96.191,79.263z M87.004,77.396c4.314,0,7.814-3.462,7.814-7.739
			c0-4.268-3.5-7.731-7.814-7.731c-4.32,0-7.821,3.463-7.821,7.731C79.183,73.933,82.684,77.396,87.004,77.396z M69.652,66.607
			c0,0-13.463,0-14.418,0h-0.008c-1.225,0-2.225,1.004-2.225,2.215l0.044,13.742c0.008,1.211,1.001,2.215,2.219,2.215h0.007
			c0.693,0,1.306-0.341,1.709-0.834l0.881,13.375c0.074,1.188,1.073,2.088,2.291,2.088h4.566c1.211,0,2.21-0.908,2.291-2.104
			l0.874-13.396c0.403,0.518,1.014,0.871,1.71,0.871h0.008c1.223,0,2.208-1.026,2.216-2.223l0.044-13.722
			C71.869,67.634,70.875,66.607,69.652,66.607z M62.437,65.144c3.388,0,6.14-2.724,6.14-6.077c0-3.359-2.752-6.076-6.14-6.076
			c-3.396,0-6.142,2.716-6.142,6.076C56.295,62.42,59.04,65.144,62.437,65.144z M118.775,66.607h-0.008c-0.955,0-14.419,0-14.419,0
			c-1.224,0-2.217,1.026-2.217,2.228l0.045,13.722c0.007,1.196,1,2.223,2.216,2.223h0.008c0.694,0,1.307-0.354,1.717-0.871
			l0.873,13.396c0.074,1.195,1.082,2.104,2.291,2.104h4.568c1.209,0,2.209-0.9,2.291-2.088l0.873-13.375
			c0.402,0.493,1.021,0.834,1.709,0.834h0.008c1.224,0,2.216-1.004,2.216-2.215l0.052-13.742
			C120.998,67.611,119.998,66.607,118.775,66.607z M111.565,65.144c3.388,0,6.142-2.724,6.142-6.077
			c0-3.359-2.754-6.076-6.142-6.076c-3.396,0-6.142,2.716-6.142,6.076C105.424,62.42,108.17,65.144,111.565,65.144z"/>
	</g>
</g>
</svg>
