<?xml version="1.0" encoding="utf-8"?>
<!-- Generator: Adobe Illustrator 16.0.0, SVG Export Plug-In . SVG Version: 6.00 Build 0)  -->
<!DOCTYPE svg PUBLIC "-//W3C//DTD SVG 1.1//EN" "http://www.w3.org/Graphics/SVG/1.1/DTD/svg11.dtd">
<svg version="1.1" id="圖層_1" xmlns="http://www.w3.org/2000/svg" xmlns:xlink="http://www.w3.org/1999/xlink" x="0px" y="0px"
	 width="174px" height="174px" viewBox="0 0 174 174" enable-background="new 0 0 174 174" xml:space="preserve">
<g>
	<g>
		<path fill="#FFFFFF" d="M115.904,84.324h-7.612c-1.985,0-3.599,1.58-3.599,3.524v0.386c0,1.957,1.613,3.525,3.609,3.525h7.602
			c1.996,0,3.609-1.58,3.609-3.525v-0.386C119.514,85.904,117.9,84.324,115.904,84.324z M115.916,75.527h-1.592V58.458
			c0-2.45-2.051-4.458-4.552-4.458H79.726c-2.498,0-4.551,2.008-4.551,4.458v12.246c-6.065,3.351-12.31,6.852-12.328,6.862
			c-3.39,1.364-8.36,5.779-8.36,16.201c0,0.932,0.064,1.794,0.155,2.621c0.019,0.247,0.054,0.48,0.086,0.707
			c0.088,0.612,0.198,1.194,0.329,1.75c0.045,0.196,0.086,0.401,0.132,0.594c0.175,0.643,0.386,1.243,0.614,1.813
			c0.109,0.283,0.242,0.541,0.363,0.806c0.132,0.282,0.271,0.548,0.416,0.819c0.166,0.298,0.34,0.602,0.527,0.889
			c0.043,0.066,0.086,0.119,0.129,0.196c4.39,6.478,12.475,6.51,12.475,6.51h5.462v5.07c0,2.449,2.053,4.458,4.551,4.458h30.047
			c2.501,0,4.552-2.009,4.552-4.458v-6.18h0.691v-0.007h0.889c1.996,0,3.609-1.582,3.609-3.527v-0.384
			c0-1.944-1.613-3.525-3.609-3.525h-7.612c-1.985,0-3.599,1.581-3.599,3.525v0.396c0,1.944,1.613,3.522,3.609,3.522h2.852v2.388
			h-32.81V79.737c1.646-1.032,3.171-2.009,4.05-2.675c4.408-3.342,8.588-5.992,9.158-8.41c0.734-3.128-1.723-5.77-5.98-3.6
			c-1.336,0.677-4.092,2.17-7.228,3.898v-7.884h32.81v14.449h-1.963v0.011h-0.889c-1.986,0-3.609,1.578-3.609,3.521v0.39
			c0,1.954,1.623,3.522,3.599,3.522h7.624c1.984,0,3.598-1.579,3.598-3.522v-0.4C119.514,77.105,117.9,75.527,115.916,75.527z
			 M94.744,113.318c1.262,0,2.281,0.986,2.281,2.224c0,1.235-1.02,2.235-2.281,2.235c-1.25,0-2.271-1-2.271-2.235
			C92.474,114.314,93.494,113.318,94.744,113.318z M99.561,58.296h-9.621c-0.296,0-0.549-0.247-0.549-0.536
			c0-0.303,0.253-0.547,0.549-0.547h9.621c0.296,0,0.548,0.244,0.548,0.547C100.108,58.049,99.856,58.296,99.561,58.296z
			 M115.904,93.121h-7.612c-1.976,0-3.599,1.578-3.599,3.522v0.4c0,1.944,1.613,3.521,3.599,3.521h7.612
			c1.996,0,3.598-1.576,3.609-3.521v-0.4C119.514,94.699,117.9,93.121,115.904,93.121z"/>
	</g>
</g>
</svg>
