<?xml version="1.0" encoding="utf-8"?>
<!-- Generator: Adobe Illustrator 16.0.0, SVG Export Plug-In . SVG Version: 6.00 Build 0)  -->
<!DOCTYPE svg PUBLIC "-//W3C//DTD SVG 1.1//EN" "http://www.w3.org/Graphics/SVG/1.1/DTD/svg11.dtd">
<svg version="1.1" id="圖層_1" xmlns="http://www.w3.org/2000/svg" xmlns:xlink="http://www.w3.org/1999/xlink" x="0px" y="0px"
	 width="174px" height="174px" viewBox="0 0 174 174" enable-background="new 0 0 174 174" xml:space="preserve">
<g>
	<g>
		<path fill="#FFFFFF" d="M110.896,61.792c-0.506,0-1.006,0.025-1.5,0.067v-4.411c0-3.004-2.457-5.448-5.477-5.448H70.08
			c-3.02,0-5.476,2.444-5.476,5.448v59.103c0,3.004,2.456,5.449,5.476,5.449h33.84c3.02,0,5.477-2.445,5.477-5.449V96.957
			c0.498,0.043,0.998,0.066,1.5,0.066c9.762,0,17.703-7.902,17.703-17.616C128.6,69.694,120.658,61.792,110.896,61.792z
			 M82.443,57.212h7.92c0.973,0,1.764,0.785,1.764,1.754s-0.791,1.756-1.764,1.756h-7.92c-0.974,0-1.764-0.787-1.764-1.756
			S81.468,57.212,82.443,57.212z M88.762,114.889c0,0.969-0.789,1.756-1.761,1.756c-0.975,0-1.764-0.787-1.764-1.756v-1.754h3.525
			V114.889z M105.869,109.625H68.13V65.671c0-1.07,0.874-1.939,1.949-1.939h32.762c-5.723,2.922-9.65,8.848-9.65,15.676
			c0,2.086,0.363,4.124,1.082,6.067l-2.9,11.381c-0.18,0.705,0.025,1.453,0.543,1.967c0.395,0.393,0.924,0.605,1.467,0.605
			c0.17,0,0.342-0.021,0.512-0.064l11.975-3.02V109.625z M110.896,92.896c-1.441,0-2.869-0.23-4.242-0.68
			c-0.373-0.123-0.775-0.135-1.158-0.039l-9.244,2.334l2.207-8.663c0.109-0.432,0.076-0.885-0.094-1.297
			c-0.68-1.635-1.023-3.365-1.023-5.145c0-7.438,6.08-13.488,13.555-13.488c7.473,0,13.555,6.051,13.555,13.488
			S118.369,92.896,110.896,92.896z M111.225,77.426c-2.121-0.639-2.523-0.923-2.523-1.786c0-0.848,1.402-1.074,2.23-1.074
			c0.797,0,1.746,0.252,2.307,0.613c0.119,0.075,0.262,0.102,0.4,0.071c0.139-0.028,0.258-0.112,0.336-0.229l1.096-1.69
			c0.076-0.118,0.104-0.262,0.074-0.398c-0.031-0.137-0.113-0.258-0.232-0.333c-0.674-0.434-1.527-0.763-2.439-0.946v-1.668
			c0-0.294-0.238-0.529-0.531-0.529h-2.021c-0.141,0-0.277,0.055-0.377,0.154s-0.156,0.232-0.156,0.375v1.656
			c-2.307,0.461-3.771,1.993-3.771,3.998c0.002,3.305,2.838,4.158,4.715,4.725c2.068,0.623,2.361,0.893,2.355,1.568
			c0,0.17-0.041,0.371-0.334,0.572c-0.381,0.264-1.033,0.414-1.787,0.414h-0.014c-0.98-0.001-2.08-0.439-2.678-1.066
			c-0.201-0.213-0.537-0.222-0.752-0.021l-1.467,1.382c-0.215,0.201-0.223,0.536-0.021,0.748c0.928,0.977,2.305,1.678,3.754,1.928
			v1.612c0,0.293,0.238,0.529,0.533,0.529h2.021c0.293,0,0.531-0.236,0.531-0.529v-1.745c0.617-0.161,1.168-0.405,1.635-0.727
			c1.072-0.739,1.662-1.837,1.662-3.086C115.797,78.804,113.045,77.976,111.225,77.426z"/>
	</g>
</g>
</svg>
