<?xml version="1.0" encoding="utf-8"?>
<!-- Generator: Adobe Illustrator 16.0.0, SVG Export Plug-In . SVG Version: 6.00 Build 0)  -->
<!DOCTYPE svg PUBLIC "-//W3C//DTD SVG 1.1//EN" "http://www.w3.org/Graphics/SVG/1.1/DTD/svg11.dtd">
<svg version="1.1" id="圖層_1" xmlns="http://www.w3.org/2000/svg" xmlns:xlink="http://www.w3.org/1999/xlink" x="0px" y="0px"
	 width="174px" height="174px" viewBox="0 0 174 174" enable-background="new 0 0 174 174" xml:space="preserve">
<g>
	<g>
		<path fill="#FFFFFF" d="M80.68,81.056c0-1.616-1.3-2.927-2.901-2.927s-2.901,1.311-2.901,2.927c0,1.615,1.3,2.925,2.901,2.925
			S80.68,82.671,80.68,81.056z M96.207,90.004c-1.602,0-2.9,1.312-2.9,2.928c0,1.615,1.299,2.925,2.9,2.925
			c1.603,0,2.901-1.31,2.901-2.925C99.108,91.315,97.81,90.004,96.207,90.004z M120.125,90.865l-1.052-1.448
			c-1.138-1.578-1.166-3.716-0.043-5.321l1.023-1.462c1.564-2.239,0.839-5.351-1.564-6.655l-1.563-0.848
			c-1.706-0.918-2.646-2.838-2.318-4.775l0.299-1.764c0.455-2.697-1.55-5.193-4.266-5.308l-1.778-0.071
			c-1.934-0.086-3.611-1.406-4.151-3.285l-0.498-1.721c-0.754-2.639-3.626-4.002-6.128-2.912l-1.636,0.703
			c-1.778,0.774-3.854,0.314-5.147-1.148l-1.181-1.332c-1.806-2.037-4.977-2.023-6.769,0.056l-1.166,1.349
			c-1.279,1.479-3.342,1.965-5.133,1.219l-1.65-0.688c-2.517-1.048-5.36,0.373-6.086,3.012L68.849,60.2
			c-0.513,1.894-2.162,3.241-4.096,3.342l-1.778,0.101c-2.715,0.158-4.678,2.682-4.18,5.379l0.326,1.764
			c0.355,1.923-0.554,3.857-2.246,4.805l-1.55,0.875c-2.375,1.334-3.058,4.461-1.451,6.671l1.053,1.448
			c1.138,1.578,1.166,3.714,0.043,5.32l-1.023,1.463c-1.564,2.238-0.84,5.351,1.563,6.656l1.564,0.846
			c1.707,0.917,2.645,2.84,2.317,4.776l-0.299,1.763c-0.454,2.697,1.551,5.193,4.267,5.308l1.777,0.072
			c1.935,0.087,3.611,1.405,4.152,3.284l0.497,1.723c0.754,2.639,3.627,4,6.129,2.91l1.636-0.703
			c1.777-0.774,3.854-0.314,5.147,1.148l1.181,1.333c1.819,2.037,4.99,2.022,6.768-0.057l1.167-1.35
			c1.279-1.476,3.342-1.964,5.133-1.218l1.65,0.688c2.517,1.046,5.36-0.374,6.086-3.013l0.469-1.734
			c0.512-1.895,2.161-3.243,4.096-3.344l1.777-0.1c2.716-0.158,4.678-2.682,4.181-5.378l-0.327-1.764
			c-0.355-1.923,0.555-3.86,2.247-4.806l1.55-0.875C121.05,96.216,121.732,93.088,120.125,90.865z M70.768,81.056
			c0-3.902,3.129-7.057,6.996-7.057c3.868,0,6.997,3.154,6.997,7.057c0,3.901-3.129,7.057-6.997,7.057
			C73.896,88.112,70.768,84.942,70.768,81.056z M79.115,99.257c-0.598,0.731-1.678,0.831-2.403,0.229s-0.825-1.692-0.228-2.423
			l18.357-22.305c0.598-0.73,1.679-0.831,2.403-0.229c0.726,0.602,0.825,1.691,0.228,2.424L79.115,99.257z M96.207,99.988
			c-3.867,0-6.996-3.156-6.996-7.057c0-3.902,3.129-7.057,6.996-7.057c3.868,0,6.996,3.154,6.996,7.057
			C103.203,96.832,100.075,99.988,96.207,99.988z"/>
	</g>
</g>
</svg>
