<?xml version="1.0" encoding="utf-8"?>
<!-- Generator: Adobe Illustrator 16.0.0, SVG Export Plug-In . SVG Version: 6.00 Build 0)  -->
<!DOCTYPE svg PUBLIC "-//W3C//DTD SVG 1.1//EN" "http://www.w3.org/Graphics/SVG/1.1/DTD/svg11.dtd">
<svg version="1.1" id="圖層_1" xmlns="http://www.w3.org/2000/svg" xmlns:xlink="http://www.w3.org/1999/xlink" x="0px" y="0px"
	 width="174px" height="174px" viewBox="0 0 174 174" enable-background="new 0 0 174 174" xml:space="preserve">
<g>
	<g>
		<path fill="#FFFFFF" d="M87,87.002c4.143,0,7.678-1.441,10.607-4.324c2.932-2.879,4.396-6.354,4.396-10.426
			c0-4.07-1.464-7.546-4.396-10.428c-2.93-2.879-6.465-4.321-10.607-4.321s-7.678,1.442-10.607,4.321
			c-2.932,2.882-4.396,6.357-4.396,10.428c0,4.072,1.464,7.547,4.396,10.426C79.322,85.561,82.857,87.002,87,87.002z
			 M114.369,102.576c-0.092-1.293-0.274-2.689-0.549-4.188c-0.271-1.498-0.617-2.889-1.034-4.168
			c-0.417-1.281-0.977-2.529-1.682-3.744c-0.702-1.217-1.511-2.252-2.421-3.111c-0.914-0.859-2.025-1.542-3.342-2.056
			c-1.316-0.511-2.768-0.767-4.355-0.767c-0.234,0-0.781,0.273-1.641,0.824c-0.859,0.552-1.83,1.167-2.911,1.844
			c-1.082,0.679-2.489,1.292-4.22,1.843c-1.732,0.551-3.471,0.826-5.217,0.826c-1.744,0-3.482-0.275-5.215-0.826
			s-3.141-1.164-4.22-1.843c-1.082-0.677-2.052-1.292-2.911-1.844c-0.859-0.551-1.407-0.824-1.641-0.824
			c-1.588,0-3.042,0.256-4.355,0.767c-1.316,0.514-2.432,1.196-3.342,2.056c-0.912,0.859-1.719,1.894-2.422,3.111
			c-0.705,1.215-1.264,2.463-1.681,3.744c-0.417,1.279-0.761,2.67-1.035,4.168c-0.273,1.498-0.456,2.895-0.548,4.188
			c-0.092,1.291-0.136,2.617-0.136,3.975c0,3.07,0.95,5.496,2.853,7.277c1.9,1.777,4.428,2.668,7.579,2.668h34.15
			c3.151,0,5.676-0.891,7.579-2.668c1.902-1.781,2.853-4.207,2.853-7.277C114.507,105.193,114.46,103.867,114.369,102.576z"/>
	</g>
</g>
</svg>
