<?xml version="1.0" encoding="utf-8"?>
<!-- Generator: Adobe Illustrator 16.0.0, SVG Export Plug-In . SVG Version: 6.00 Build 0)  -->
<!DOCTYPE svg PUBLIC "-//W3C//DTD SVG 1.1//EN" "http://www.w3.org/Graphics/SVG/1.1/DTD/svg11.dtd">
<svg version="1.1" id="圖層_1" xmlns="http://www.w3.org/2000/svg" xmlns:xlink="http://www.w3.org/1999/xlink" x="0px" y="0px"
	 width="174px" height="174px" viewBox="0 0 174 174" enable-background="new 0 0 174 174" xml:space="preserve">
<g>
	<g>
		<path fill="#FFFFFF" d="M74.007,87.262c10.22,0,18.509-8.341,18.509-18.622c0-10.283-8.289-18.64-18.509-18.64
			s-18.509,8.341-18.509,18.624C55.498,78.906,63.787,87.262,74.007,87.262z M67.541,75.993c0.169-0.617,0.337-1.219,0.521-1.834
			c0.214-0.71,0.413-0.787,1.057-0.448c1.103,0.571,2.268,0.895,3.493,1.049c0.782,0.094,1.563,0.015,2.283-0.309
			c1.363-0.602,1.578-2.188,0.429-3.146c-0.398-0.324-0.842-0.57-1.303-0.771c-1.194-0.523-2.436-0.925-3.57-1.604
			c-1.822-1.094-2.987-2.62-2.85-4.855c0.154-2.528,1.579-4.117,3.877-4.949c0.949-0.355,0.949-0.339,0.966-1.341v-1.018
			c0.015-0.757,0.153-0.879,0.889-0.91h0.688c1.594,0,1.594,0,1.594,1.604c0,1.125,0,1.142,1.119,1.31
			c0.857,0.14,1.67,0.387,2.467,0.741c0.443,0.199,0.597,0.509,0.475,0.97c-0.199,0.694-0.383,1.389-0.613,2.067
			c-0.214,0.647-0.413,0.74-1.026,0.447c-1.241-0.602-2.544-0.864-3.922-0.787c-0.368,0.016-0.705,0.063-1.042,0.217
			c-1.18,0.523-1.379,1.834-0.368,2.651c0.506,0.415,1.088,0.709,1.701,0.955c1.042,0.432,2.099,0.864,3.11,1.418
			c3.172,1.774,4.029,5.782,1.793,8.511c-0.813,0.986-1.854,1.649-3.096,1.989c-0.536,0.153-0.781,0.432-0.751,0.986
			s0,1.095,0,1.649c0,0.494-0.244,0.756-0.735,0.771c-0.582,0.017-1.18,0.017-1.762,0c-0.521-0.015-0.767-0.307-0.767-0.817
			c0-0.4,0-0.801-0.015-1.202c-0.016-0.878-0.03-0.924-0.889-1.063c-1.088-0.17-2.145-0.416-3.142-0.909
			C67.403,77.01,67.327,76.811,67.541,75.993z M115.53,88.819h-2.161c-1.425-4.395-4.214-8.294-7.938-11.315
			c0-0.139-0.03-0.294-0.061-0.432c-0.781-2.76,0.184-5.272,1.302-7.076c0.782-1.264-0.229-2.883-1.7-2.698
			c-3.294,0.417-5.562,1.634-7.124,3.006c-1.073,0.94-1.84,2.205-2.176,3.607c-2.36,9.836-11.17,17.159-21.666,17.159
			c-5.103,0-9.791-1.727-13.544-4.624c-1.303,2.836-2.008,5.935-2.008,9.188c0,1.758,0.214,3.469,0.613,5.119
			c0,0,0,0.029,0.015,0.077c0.413,1.71,1.042,3.36,1.839,4.917c1.057,2.297,2.589,4.979,4.703,7.153
			c3.05,3.161,3.57,7.076,3.647,8.772v0.832c0.061,0.832,0.751,1.495,1.593,1.495h9.685c0.872,0,1.593-0.709,1.593-1.603v-2.406
			c1.41,0.186,2.85,0.294,4.306,0.294c1.149,0,2.268-0.063,3.387-0.186v2.298c0,0.878,0.704,1.603,1.594,1.603h9.714
			c0.873,0,1.593-0.709,1.593-1.603v-2.406c0.016-0.801,0.292-3.992,3.294-6.721l0.322-0.277c0.03-0.032,0.062-0.046,0.092-0.077
			c3.341-2.991,5.808-6.722,7.079-10.885h2.038c1.623,0,2.941-1.325,2.941-2.96V91.78C118.472,90.146,117.154,88.819,115.53,88.819z
			 M103.41,89.344c-1.334,0-2.405-1.079-2.405-2.42c0-1.342,1.071-2.421,2.405-2.421c1.333,0,2.405,1.079,2.405,2.421
			C105.815,88.265,104.743,89.344,103.41,89.344z"/>
	</g>
</g>
</svg>
