<?xml version="1.0" encoding="utf-8"?>
<!-- Generator: Adobe Illustrator 16.0.0, SVG Export Plug-In . SVG Version: 6.00 Build 0)  -->
<!DOCTYPE svg PUBLIC "-//W3C//DTD SVG 1.1//EN" "http://www.w3.org/Graphics/SVG/1.1/DTD/svg11.dtd">
<svg version="1.1" id="圖層_1" xmlns="http://www.w3.org/2000/svg" xmlns:xlink="http://www.w3.org/1999/xlink" x="0px" y="0px"
	 width="174px" height="174px" viewBox="0 0 174 174" enable-background="new 0 0 174 174" xml:space="preserve">
<g>
	<g>
		<path fill="#FFFFFF" d="M87,54.5c-17.92,0-32.5,14.579-32.5,32.5s14.58,32.5,32.5,32.5s32.5-14.579,32.5-32.5S104.92,54.5,87,54.5
			z M89.708,113.947v-2.572c0-1.495-1.213-2.708-2.708-2.708s-2.708,1.213-2.708,2.708v2.572
			c-12.775-1.276-22.964-11.463-24.238-24.238h2.571c1.495,0,2.708-1.214,2.708-2.709c0-1.494-1.213-2.708-2.708-2.708h-2.571
			c1.274-12.775,11.463-22.964,24.238-24.238v2.571c0,1.495,1.213,2.708,2.708,2.708s2.708-1.213,2.708-2.708v-2.571
			c12.775,1.274,22.964,11.463,24.238,24.238h-2.571c-1.495,0-2.708,1.214-2.708,2.708c0,1.495,1.213,2.709,2.708,2.709h2.571
			C112.672,102.484,102.483,112.671,89.708,113.947z M101.896,84.292H89.708v-8.125c0-1.494-1.213-2.708-2.708-2.708
			s-2.708,1.214-2.708,2.708v9.479c0,2.24,1.822,4.063,4.063,4.063h13.541c1.495,0,2.709-1.214,2.709-2.709
			C104.604,85.506,103.391,84.292,101.896,84.292z"/>
	</g>
</g>
</svg>
