<?xml version="1.0" encoding="utf-8"?>
<!-- Generator: Adobe Illustrator 16.0.0, SVG Export Plug-In . SVG Version: 6.00 Build 0)  -->
<!DOCTYPE svg PUBLIC "-//W3C//DTD SVG 1.1//EN" "http://www.w3.org/Graphics/SVG/1.1/DTD/svg11.dtd">
<svg version="1.1" id="圖層_1" xmlns="http://www.w3.org/2000/svg" xmlns:xlink="http://www.w3.org/1999/xlink" x="0px" y="0px"
	 width="174px" height="174px" viewBox="0 0 174 174" enable-background="new 0 0 174 174" xml:space="preserve">
<g>
	<g>
		<g>
			<path fill="#FFFFFF" d="M127.688,89.562l-4.924-12.8c-0.921-2.451-2.935-4.535-6.741-4.555H90.154
				c-3.788,0.02-5.802,2.104-6.741,4.555l-4.924,12.8c-1.953,0.256-5.413,2.571-5.406,6.95v12.57c0,2.059,1.662,3.733,3.707,3.733
				h1.093v3.194c-0.012,6.416,9.002,6.341,9.002,0v-3.194h32.406v3.194c0.024,6.341,9.039,6.416,9.039,0v-3.194h1.1
				c2.046,0,3.708-1.668,3.708-3.733v-12.57C133.126,92.133,129.659,89.817,127.688,89.562z M83.154,103.601h-0.024
				c-2.299,0-4.152-1.93-4.146-4.307c-0.013-2.384,1.835-4.312,4.121-4.312h0.074c2.28,0,4.127,1.928,4.122,4.312
				C87.306,101.671,85.446,103.601,83.154,103.601z M87.658,89.443c-1.359,0-2.28-1.394-1.749-2.656l2.595-6.18
				c0.389-0.977,1.143-2.458,2.786-2.482h23.584c1.618,0.024,2.026,0.939,2.786,2.482l2.595,6.18
				c0.531,1.263-0.389,2.656-1.748,2.656H87.658z M122.733,95.293h0.074c2.262,0,4.108,1.929,4.121,4.313
				c-0.019,2.376-1.878,4.306-4.151,4.306h-0.025c-2.311,0-4.17-1.93-4.183-4.306C118.582,97.222,120.429,95.293,122.733,95.293z"/>
		</g>
	</g>
	<g>
		<g>
			<path fill="#FFFFFF" d="M76.918,77.392h-9.043v-6.073c0-1.117-0.9-2.023-2.01-2.023s-2.01,0.906-2.01,2.023v7.086
				c0,1.674,1.353,3.036,3.014,3.036h10.049c1.109,0,2.01-0.907,2.01-2.024S78.027,77.392,76.918,77.392z"/>
		</g>
	</g>
	<path fill="#FFFFFF" d="M65.865,55.124c-13.297,0-24.115,10.898-24.115,24.292c0,13.395,10.818,24.292,24.115,24.292
		c1.614,0,3.191-0.164,4.718-0.47v-4.164c-0.884,0.216-1.783,0.39-2.708,0.482v-1.922c0-1.117-0.9-2.024-2.01-2.024
		s-2.01,0.907-2.01,2.024v1.922c-9.479-0.953-17.039-8.567-17.984-18.116h1.908c1.109,0,2.01-0.907,2.01-2.024
		s-0.9-2.024-2.01-2.024h-1.908c0.945-9.549,8.505-17.162,17.984-18.116v1.922c0,1.117,0.9,2.024,2.01,2.024s2.01-0.907,2.01-2.024
		v-1.922c7.416,0.747,13.642,5.578,16.46,12.216c1.069-0.779,2.321-1.303,3.727-1.568C84.384,61.233,75.819,55.124,65.865,55.124z"
		/>
</g>
</svg>
