<?xml version="1.0" encoding="utf-8"?>
<!-- Generator: Adobe Illustrator 16.0.0, SVG Export Plug-In . SVG Version: 6.00 Build 0)  -->
<!DOCTYPE svg PUBLIC "-//W3C//DTD SVG 1.1//EN" "http://www.w3.org/Graphics/SVG/1.1/DTD/svg11.dtd">
<svg version="1.1" id="圖層_1" xmlns="http://www.w3.org/2000/svg" xmlns:xlink="http://www.w3.org/1999/xlink" x="0px" y="0px"
	 width="174px" height="174px" viewBox="0 0 174 174" enable-background="new 0 0 174 174" xml:space="preserve">
<g>
	<g>
		<path fill="#FFFFFF" d="M82.548,67.902c-2.861,0-5.18,2.318-5.18,5.182c0,2.854,2.318,5.18,5.18,5.18
			c2.863,0,5.18-2.318,5.18-5.18C87.729,70.22,85.412,67.902,82.548,67.902z M116.124,94.202l-4.82-9.085
			c-1.074-2.026-1.634-4.283-1.634-6.569c0-14.45-11.773-26.147-26.254-26.031c-14.436,0.116-25.961,11.863-25.814,26.3
			c0.045,4.158,1.066,8.09,2.838,11.556c3.539,6.9,5.396,14.521,5.396,22.256v6.938c0,1.059,0.857,1.919,1.918,1.919h26.989
			c1.06,0,1.92-0.86,1.92-1.919v-6.762h7.535c3.016,0,5.479-2.463,5.479-5.479v-9.593l4.413-0.085
			C115.84,97.616,116.944,95.745,116.124,94.202z M96.386,73.981c0,0.491-0.293,0.929-0.744,1.12l-2.901,1.236
			c-0.3,0.13-0.537,0.367-0.661,0.675l-0.015,0.038c-0.114,0.292-0.114,0.621,0.007,0.914l1.197,2.885
			c0.193,0.453,0.086,0.982-0.269,1.328l-1.296,1.297c-0.346,0.346-0.867,0.453-1.32,0.268l-2.916-1.166
			c-0.291-0.115-0.621-0.115-0.922,0.008c-0.014,0.008-0.037,0.016-0.053,0.023c-0.299,0.123-0.537,0.359-0.668,0.66l-1.182,2.879
			c-0.191,0.45-0.637,0.751-1.127,0.751h-1.836c-0.49,0-0.928-0.292-1.119-0.744l-1.221-2.855c-0.131-0.308-0.385-0.545-0.691-0.661
			c-0.021-0.006-0.053-0.021-0.076-0.029c-0.299-0.115-0.629-0.115-0.92,0l-2.848,1.174c-0.453,0.184-0.982,0.085-1.328-0.269
			l-1.297-1.298c-0.346-0.345-0.453-0.867-0.27-1.318l1.152-2.863c0.123-0.299,0.115-0.629-0.008-0.928
			c-0.016-0.039-0.031-0.07-0.047-0.108c-0.123-0.307-0.359-0.552-0.668-0.675l-2.824-1.174c-0.451-0.193-0.752-0.638-0.752-1.129
			v-1.834h-0.006c0-0.492,0.291-0.93,0.744-1.119l2.838-1.214c0.301-0.132,0.537-0.376,0.66-0.675
			c0.016-0.039,0.031-0.07,0.039-0.107c0.123-0.301,0.123-0.631,0-0.928l-1.166-2.834c-0.184-0.452-0.084-0.981,0.268-1.328
			l1.297-1.296c0.346-0.345,0.867-0.452,1.32-0.269l2.879,1.16c0.291,0.114,0.621,0.114,0.92,0c0.023-0.009,0.055-0.024,0.076-0.031
			c0.309-0.123,0.553-0.361,0.684-0.668l1.189-2.848c0.191-0.453,0.637-0.752,1.129-0.752h1.834c0.49,0,0.928,0.292,1.121,0.745
			l1.227,2.877c0.131,0.3,0.369,0.529,0.668,0.652c0.016,0.007,0.031,0.016,0.047,0.016c0.299,0.123,0.637,0.13,0.936,0l2.869-1.183
			c0.453-0.184,0.983-0.084,1.328,0.27l1.297,1.297c0.346,0.346,0.453,0.867,0.27,1.32l-1.167,2.916
			c-0.114,0.299-0.114,0.629,0.007,0.92c0,0.009,0.008,0.016,0.008,0.023c0.124,0.308,0.361,0.553,0.668,0.684l2.887,1.205
			c0.452,0.191,0.752,0.637,0.752,1.128V73.981z"/>
	</g>
</g>
</svg>
