<?xml version="1.0" encoding="utf-8"?>
<!-- Generator: Adobe Illustrator 16.0.0, SVG Export Plug-In . SVG Version: 6.00 Build 0)  -->
<!DOCTYPE svg PUBLIC "-//W3C//DTD SVG 1.1//EN" "http://www.w3.org/Graphics/SVG/1.1/DTD/svg11.dtd">
<svg version="1.1" id="圖層_1" xmlns="http://www.w3.org/2000/svg" xmlns:xlink="http://www.w3.org/1999/xlink" x="0px" y="0px"
	 width="174px" height="174px" viewBox="0 0 174 174" enable-background="new 0 0 174 174" xml:space="preserve">
<g>
	<g>
		<path fill="#FFFFFF" d="M87,87c4.143,0,7.678-1.44,10.607-4.323c2.932-2.879,4.396-6.354,4.396-10.427
			c0-4.069-1.464-7.545-4.396-10.428c-2.93-2.879-6.465-4.319-10.607-4.319c-4.142,0-7.678,1.44-10.608,4.319
			c-2.931,2.883-4.395,6.358-4.395,10.428c0,4.072,1.464,7.548,4.395,10.427C79.322,85.56,82.858,87,87,87z M114.369,102.574
			c-0.092-1.293-0.274-2.688-0.549-4.186c-0.271-1.5-0.617-2.891-1.034-4.17s-0.977-2.527-1.682-3.742
			c-0.702-1.219-1.511-2.254-2.421-3.112c-0.914-0.859-2.025-1.543-3.342-2.056c-1.316-0.511-2.768-0.767-4.355-0.767
			c-0.234,0-0.781,0.274-1.642,0.823c-0.858,0.553-1.829,1.168-2.91,1.845c-1.082,0.678-2.489,1.293-4.22,1.844
			c-1.732,0.549-3.471,0.826-5.217,0.826c-1.745,0-3.482-0.277-5.215-0.826c-1.733-0.551-3.141-1.166-4.22-1.844
			c-1.082-0.677-2.051-1.292-2.911-1.845c-0.86-0.549-1.408-0.823-1.642-0.823c-1.588,0-3.042,0.256-4.355,0.767
			c-1.316,0.513-2.431,1.196-3.342,2.056c-0.911,0.858-1.718,1.893-2.421,3.112c-0.705,1.215-1.265,2.463-1.681,3.742
			c-0.417,1.279-0.761,2.67-1.035,4.17c-0.273,1.498-0.457,2.893-0.548,4.186c-0.091,1.291-0.136,2.617-0.136,3.977
			c0,3.07,0.951,5.496,2.852,7.277c1.901,1.777,4.428,2.668,7.58,2.668h34.15c3.151,0,5.676-0.891,7.579-2.668
			c1.902-1.781,2.853-4.207,2.853-7.277C114.507,105.191,114.46,103.865,114.369,102.574z"/>
	</g>
</g>
</svg>
