<?xml version="1.0" encoding="utf-8"?>
<!-- Generator: Adobe Illustrator 16.0.0, SVG Export Plug-In . SVG Version: 6.00 Build 0)  -->
<!DOCTYPE svg PUBLIC "-//W3C//DTD SVG 1.1//EN" "http://www.w3.org/Graphics/SVG/1.1/DTD/svg11.dtd">
<svg version="1.1" id="圖層_1" xmlns="http://www.w3.org/2000/svg" xmlns:xlink="http://www.w3.org/1999/xlink" x="0px" y="0px"
	 width="174px" height="174px" viewBox="0 0 174 174" enable-background="new 0 0 174 174" xml:space="preserve">
<g>
	<g>
		<path fill="#FFFFFF" d="M117.551,109.16l-13.663-13.665c-0.599-0.599-0.155-1.342-0.155-1.342
			c6.172-10.289,4.829-23.464-4.028-32.325c-10.441-10.442-27.431-10.442-37.872,0c-10.441,10.443-10.441,27.435,0,37.878
			c8.857,8.859,22.032,10.2,32.319,4.028c0,0,0.744-0.443,1.371,0.184l13.634,13.636c2.72,2.72,6.522,3.367,8.934,0.955l0.416-0.414
			C120.917,115.683,120.27,111.88,117.551,109.16z M94.76,94.762c-7.715,7.715-20.268,7.715-27.983,0
			c-7.714-7.716-7.714-20.271,0-27.987c7.715-7.716,20.268-7.716,27.983,0C102.475,74.491,102.475,87.045,94.76,94.762z
			 M72.791,66.093c-1.406,0.594-2.064,2.216-1.469,3.621c0.596,1.406,2.216,2.064,3.623,1.47c6.028-2.553,13.008,0.278,15.559,6.307
			c0.447,1.055,1.469,1.688,2.547,1.688c0.359,0,0.724-0.07,1.075-0.22c1.405-0.595,2.063-2.217,1.47-3.622
			C91.855,66.5,81.626,62.353,72.791,66.093z"/>
	</g>
</g>
</svg>
