<?xml version="1.0" encoding="utf-8"?>
<!-- Generator: Adobe Illustrator 16.0.0, SVG Export Plug-In . SVG Version: 6.00 Build 0)  -->
<!DOCTYPE svg PUBLIC "-//W3C//DTD SVG 1.1//EN" "http://www.w3.org/Graphics/SVG/1.1/DTD/svg11.dtd">
<svg version="1.1" id="圖層_1" xmlns="http://www.w3.org/2000/svg" xmlns:xlink="http://www.w3.org/1999/xlink" x="0px" y="0px"
	 width="174px" height="174px" viewBox="0 0 174 174" enable-background="new 0 0 174 174" xml:space="preserve">
<g>
	<g>
		<path fill="#FFFFFF" d="M119.375,83.971l-10.153-10.253V61.873c0-2.141-1.719-3.877-3.843-3.877c-2.119,0-3.838,1.736-3.838,3.877
			v4.089l-7.561-7.634c-3.738-3.772-10.238-3.766-13.967,0.006L54.623,83.971c-1.498,1.517-1.498,3.971,0,5.482
			c1.5,1.518,3.935,1.518,5.434,0l25.387-25.635c0.828-0.831,2.285-0.831,3.107-0.003l25.392,25.638
			c0.754,0.76,1.735,1.137,2.716,1.137c0.983,0,1.967-0.377,2.718-1.137C120.875,87.941,120.875,85.487,119.375,83.971z
			 M88.333,71.179c-0.737-0.745-1.932-0.745-2.667,0L63.333,93.721c-0.353,0.355-0.552,0.842-0.552,1.348v16.443
			c0,3.859,3.098,6.986,6.919,6.986h11.057v-17.29H93.24v17.29h11.058c3.82,0,6.919-3.127,6.919-6.986V95.068
			c0-0.506-0.198-0.992-0.553-1.348L88.333,71.179z"/>
	</g>
</g>
</svg>
