<?xml version="1.0" encoding="utf-8"?>
<!-- Generator: Adobe Illustrator 16.0.0, SVG Export Plug-In . SVG Version: 6.00 Build 0)  -->
<!DOCTYPE svg PUBLIC "-//W3C//DTD SVG 1.1//EN" "http://www.w3.org/Graphics/SVG/1.1/DTD/svg11.dtd">
<svg version="1.1" id="圖層_1" xmlns="http://www.w3.org/2000/svg" xmlns:xlink="http://www.w3.org/1999/xlink" x="0px" y="0px"
	 width="174px" height="174px" viewBox="0 0 174 174" enable-background="new 0 0 174 174" xml:space="preserve">
<g>
	<g>
		<path fill="#FFFFFF" d="M115.797,74.313h-1.831v20.591c0,3.217-1.83,6.106-5.501,6.106H72.559v0.986
			c0,2.838,3.149,5.695,6.396,5.695h27.467l10.502,6.303l-1.531-6.303h0.404c3.245,0,4.703-2.857,4.703-5.695V79.204
			C120.5,76.369,119.042,74.313,115.797,74.313z M72.591,97.838h30.52c3.661,0,7.056-2.281,7.056-5.485V66.545
			c0-3.216-3.395-6.54-7.056-6.54H61.395c-3.67,0-7.895,3.324-7.895,6.54v25.808c0,2.953,3.574,5.094,7.013,5.421l-2.234,8.659
			L72.591,97.838z M95.906,74.096c2.076,0,3.768,1.728,3.768,3.848c0,2.132-1.691,3.846-3.768,3.846
			c-2.074,0-3.767-1.714-3.767-3.846C92.14,75.823,93.832,74.096,95.906,74.096z M81.827,74.096c2.087,0,3.769,1.728,3.769,3.848
			c0,2.132-1.681,3.846-3.769,3.846c-2.072,0-3.764-1.714-3.764-3.846C78.063,75.823,79.754,74.096,81.827,74.096z M67.759,74.096
			c2.076,0,3.769,1.728,3.769,3.848c0,2.132-1.692,3.846-3.769,3.846c-2.084,0-3.765-1.714-3.765-3.846
			C63.994,75.823,65.674,74.096,67.759,74.096z"/>
	</g>
</g>
</svg>
