<?xml version="1.0" encoding="utf-8"?>
<!-- Generator: Adobe Illustrator 16.0.0, SVG Export Plug-In . SVG Version: 6.00 Build 0)  -->
<!DOCTYPE svg PUBLIC "-//W3C//DTD SVG 1.1//EN" "http://www.w3.org/Graphics/SVG/1.1/DTD/svg11.dtd">
<svg version="1.1" id="圖層_1" xmlns="http://www.w3.org/2000/svg" xmlns:xlink="http://www.w3.org/1999/xlink" x="0px" y="0px"
	 width="174px" height="174px" viewBox="0 0 174 174" enable-background="new 0 0 174 174" xml:space="preserve">
<g>
	<g>
		<path fill="#FFFFFF" d="M87,86.344c6.616,0,11.98-6.569,11.98-14.672C98.98,63.569,97.218,57,87,57
			c-10.219,0-11.979,6.568-11.979,14.672C75.021,79.775,80.384,86.344,87,86.344z M109.601,108.154
			c-0.221-14.116-2.05-18.138-16.04-20.685c0,0-1.971,2.531-6.561,2.531s-6.56-2.531-6.56-2.531
			c-13.839,2.519-15.778,6.482-16.033,20.227c-0.021,1.121-0.03,1.181-0.034,1.049c0,0.245,0.002,0.697,0.002,1.484
			c0,0,3.331,6.771,22.625,6.771c19.295,0,22.627-6.771,22.627-6.771v-1.097C109.623,109.213,109.615,109.056,109.601,108.154z
			 M103.625,83.725c5.374,0,9.73-5.336,9.73-11.917s-1.431-11.916-9.73-11.916c-1.396,0-2.597,0.151-3.631,0.434
			c1.917,3.564,2.18,7.892,2.18,11.346c0,3.912-1.052,7.647-2.988,10.739C100.518,83.249,102.025,83.725,103.625,83.725z
			 M121.981,101.439c-0.181-11.466-1.665-14.732-13.028-16.8c0,0-1.6,2.055-5.328,2.055c-0.154,0-0.304-0.004-0.45-0.012
			c2.368,1.077,4.523,2.577,6.11,4.771c2.743,3.792,3.375,8.889,3.504,16.374c7.645-1.523,9.212-4.704,9.212-4.704
			c0-0.414,0-0.699,0.001-0.893C121.999,102.299,121.992,102.176,121.981,101.439z M70.375,83.725c1.6,0,3.107-0.477,4.439-1.314
			c-1.938-3.092-2.988-6.826-2.988-10.738c0-3.455,0.262-7.782,2.179-11.347c-1.032-0.282-2.233-0.434-3.63-0.434
			c-8.301,0-9.73,5.335-9.73,11.916S65.001,83.725,70.375,83.725z M70.825,86.682c-0.146,0.007-0.296,0.012-0.45,0.012
			c-3.729,0-5.329-2.055-5.329-2.055c-11.362,2.067-12.848,5.333-13.027,16.799c-0.012,0.738-0.018,0.861-0.021,0.793
			c0,0.193,0.001,0.478,0.001,0.893c0,0,1.566,3.181,9.211,4.704c0.13-7.485,0.761-12.582,3.505-16.375
			C66.302,89.259,68.456,87.759,70.825,86.682z"/>
	</g>
</g>
</svg>
