<?xml version="1.0" encoding="utf-8"?>
<!-- Generator: Adobe Illustrator 16.0.0, SVG Export Plug-In . SVG Version: 6.00 Build 0)  -->
<!DOCTYPE svg PUBLIC "-//W3C//DTD SVG 1.1//EN" "http://www.w3.org/Graphics/SVG/1.1/DTD/svg11.dtd">
<svg version="1.1" id="twitter" xmlns="http://www.w3.org/2000/svg" xmlns:xlink="http://www.w3.org/1999/xlink" x="0px" y="0px"
	 width="42px" height="42px" viewBox="0 0 42 42" enable-background="new 0 0 42 42" xml:space="preserve">
<path fill="#FFFFFF" d="M10.048,27.916c2.008,1.251,4.387,1.972,6.937,1.953c8.383-0.064,13.065-7.097,12.731-13.37
	c0.877-0.635,1.637-1.427,2.235-2.327c-0.808,0.361-1.676,0.607-2.588,0.722c0.928-0.558,1.637-1.438,1.966-2.483
	c-0.869,0.517-1.833,0.896-2.858,1.104c-0.831-0.861-2.008-1.393-3.308-1.383c-2.914,0.022-5.035,2.726-4.355,5.512
	c-3.754-0.157-7.095-1.909-9.342-4.592c-1.168,2.015-0.578,4.634,1.443,5.947c-0.741-0.017-1.439-0.213-2.051-0.543
	c-0.032,2.068,1.481,3.99,3.656,4.404c-0.635,0.176-1.33,0.22-2.037,0.092c0.587,1.77,2.265,3.045,4.24,3.067
	C14.833,27.502,12.446,28.177,10.048,27.916z"/>
</svg>
