<?xml version="1.0" encoding="utf-8"?>
<!-- Generator: Adobe Illustrator 23.0.2, SVG Export Plug-In . SVG Version: 6.00 Build 0)  -->
<svg version="1.1" id="Layer_1" xmlns="http://www.w3.org/2000/svg" xmlns:xlink="http://www.w3.org/1999/xlink" x="0px" y="0px"
	 viewBox="0 0 960 600" style="enable-background:new 0 0 960 600;" xml:space="preserve">
<style type="text/css">
	.st0{enable-background:new    ;}
	.st1{fill:#6B6ECF;}
	.st2{fill:#E7CB94;}
	.st3{fill:#A55194;}
	.st4{fill:#E7969C;}
	.st5{fill:#7B4173;}
	.st6{fill:#CE6DBD;}
	.st7{fill:#DE9ED6;}
	.st8{fill:#393B79;}
	.st9{fill:#5254A3;}
	.st10{fill:#9C9EDE;}
	.st11{fill:#8CA252;}
	.st12{fill:#B5CF6B;}
	.st13{fill:#CEDB9C;}
	.st14{fill:#8C6D31;}
</style>
<g transform="translate(480,300)scale(1.5,1.5)">
	<g class="st0">
		<path class="st1" d="M25.4,15.6c10.7,7.7,26.1,19.2,33.3,27.1l-10.1,9.1C42.4,44.4,28.8,33,18,24.7v51.8H5V27.7
			c-9.1,9.7-19.8,18.4-31.8,24.6c-1.9-3.2-5.6-8.1-8.2-10.8C-16.8,33-1.2,17.5,8.1,2.2h-39.9V-10h86.7V2.2H23.8
			c-1.7,3.1-3.7,6.2-5.8,9.2v10.4L25.4,15.6z"/>
		<path class="st1" d="M95.2,34c-0.2,1.4-0.4,2.8-0.7,4.1c5.2,5.1,16,17.6,18.8,20.9l-8,10c-3.3-5.2-9-12.7-13.9-18.8
			C88,60,82.1,69.4,72.5,76.4c-1.6-2.5-6-7.2-8.5-9C77,58.1,81.6,45.6,83.2,34H65.5V22.8H84v-2.5V6.9h-4c-2,5.1-4.3,9.7-6.8,13.4
			c-2.2-2-6.9-5.4-9.6-6.9C69,6.2,72.8-5.3,74.8-16.7l11.4,2.3c-0.7,3.5-1.5,6.9-2.5,10.3h26.4v11H96v13.5v2.4h16.4V34H95.2z
			 M153.2-8.1v80.4h-12.1v-5.7h-14.5v7.2h-11.5V-8.1H153.2z M141.1,55.4V3.1h-14.5v52.3H141.1z"/>
		<path class="st1" d="M193,30c-1.8,9.1-4.5,18.5-7.8,26c1.5,1,3.4,2.4,6.1,4c6.8,4.1,16.2,4.7,27.9,4.7c11.5,0,29.4-1,40.5-2.6
			c-1.4,3.2-3.4,9-3.5,12.2c-8.2,0.5-25.9,1.2-37.6,1.2c-13.2,0-21.7-1.1-28.9-5.3c-4.2-2.3-7.7-5.6-9.8-5.6
			c-2.3,0-5.8,6.8-8.3,12.5l-7.9-11.3c3.4-4.2,7.1-7.5,10.5-9.6c2.2-4.9,4.2-11.2,5.7-17.3h-12.6c2.3-5.9,5-13.9,7.3-21.7h-9V6.6
			h23.3c-2.1,7-4.4,15-6.8,22h4l1.8-0.4L193,30z M176.1,3.8c-1-4.5-3.7-11.8-5.4-17.2l10.5-3.2c1.9,5.4,4.4,12.1,5.8,16.6L176.1,3.8
			z M215.8,9.8c0.3-1.6,0.7-3.2,1-4.9h-24v-9.7h13.3c-1.3-2.6-3.1-5.5-4.7-7.9l9.4-3.7c2.3,3.1,5.1,7.3,6.4,10l-3.5,1.6h15
			c2.3-3.6,4.9-8.4,6.3-11.9l11.5,3.2c-2.1,3.1-4.1,6-6,8.7h16v9.7h-27c-0.8,1.8-1.6,3.3-2.4,4.9h21.7v48.3h-48.4V9.8H215.8z
			 M237.1,18.2h-25.5v5.5h25.5V18.2z M237.1,31.2h-25.5v5.4h25.5V31.2z M237.1,44.2h-25.5v5.5h25.5V44.2z"/>
	</g>
	<g class="st0">
		<path class="st2" d="M71.8,112.6c-1.2,1.3-2.5,2.6-3.7,3.6c-0.4-0.7-1.5-2.4-2.2-3.1c2.6-1.8,5.2-4.6,6.6-7.6l3.3,1.1
			c-0.4,0.9-0.9,1.8-1.5,2.7h20.1v3.4H71.8z M66.5,134.4c1.2-1.5,2.7-4.1,3.6-6.2l3.7,1c-0.9,2.2-2.4,5-3.6,6.8L66.5,134.4z
			 M91.5,120.1v4.1h3.8v3.4H66.8v-3.4h4.4v-4.1h-3.4v-3.4h3.4v-2.9h3.4v2.9h2.2v-2.9h3.2v2.9h2.5v-2.9h3.2v2.9h2.4v-2.9h3.5v2.9h3.1
			v3.4H91.5z M74.5,124.1h2.2v-4.1h-2.2V124.1z M79,129.1c0.4,1.9,0.8,4.4,0.8,6l-3.7,0.5c0-1.5-0.2-4.2-0.6-6.1L79,129.1z
			 M79.9,120.1v4.1h2.5v-4.1H79.9z M85.5,128.8c0.8,1.9,1.6,4.3,1.9,5.9l-3.8,0.7c-0.2-1.5-0.9-4.1-1.7-6.1L85.5,128.8z M87.9,120.1
			h-2.4v4.1h2.4V120.1z M91.9,127.9c1.3,1.9,3,4.6,3.7,6.3l-3.7,1.6c-0.6-1.7-2.2-4.4-3.5-6.5L91.9,127.9z"/>
	</g>
	<g class="st0">
		<path class="st3" d="M-259.6-10.8c3.4,2.5,8.4,6.1,10.7,8.7l-3.2,2.9c-2-2.4-6.3-6-9.8-8.7V8.7h-4.2V-6.9
			C-269-3.8-272.4-1-276.3,1c-0.6-1-1.8-2.6-2.6-3.5c5.8-2.7,10.8-7.7,13.8-12.6h-12.8V-19h27.7v3.9h-10c-0.5,1-1.2,2-1.9,2.9v3.3
			L-259.6-10.8z"/>
		<path class="st3" d="M-237.2-4.9c-0.1,0.4-0.1,0.9-0.2,1.3c1.7,1.6,5.1,5.6,6,6.7l-2.6,3.2c-1.1-1.7-2.9-4.1-4.4-6
			c-1.1,3.1-3,6.1-6,8.4c-0.5-0.8-1.9-2.3-2.7-2.9c4.2-3,5.6-7,6.1-10.7h-5.7v-3.6h5.9v-0.8v-4.3h-1.3c-0.6,1.6-1.4,3.1-2.2,4.3
			c-0.7-0.6-2.2-1.7-3.1-2.2c1.7-2.3,2.9-6,3.6-9.6l3.6,0.7c-0.2,1.1-0.5,2.2-0.8,3.3h8.4v3.5h-4.5v4.3v0.8h5.2v3.6H-237.2z
			 M-218.7-18.4V7.4h-3.9V5.6h-4.6v2.3h-3.7v-26.2H-218.7z M-222.5,2v-16.7h-4.6V2H-222.5z"/>
		<path class="st3" d="M-205.9-6.2c-0.6,2.9-1.4,5.9-2.5,8.3c0.5,0.3,1.1,0.8,2,1.3c2.2,1.3,5.2,1.5,8.9,1.5c3.7,0,9.4-0.3,13-0.8
			c-0.4,1-1.1,2.9-1.1,3.9c-2.6,0.2-8.3,0.4-12,0.4c-4.2,0-6.9-0.4-9.2-1.7c-1.3-0.7-2.5-1.8-3.1-1.8c-0.7,0-1.9,2.2-2.7,4l-2.5-3.6
			c1.1-1.3,2.3-2.4,3.4-3.1c0.7-1.6,1.3-3.6,1.8-5.5h-4c0.7-1.9,1.6-4.4,2.3-6.9h-2.9v-3.4h7.5c-0.7,2.2-1.4,4.8-2.2,7h1.3l0.6-0.1
			L-205.9-6.2z M-211.3-14.5c-0.3-1.4-1.2-3.8-1.7-5.5l3.4-1c0.6,1.7,1.4,3.9,1.9,5.3L-211.3-14.5z M-198.6-12.6
			c0.1-0.5,0.2-1,0.3-1.6h-7.7v-3.1h4.3c-0.4-0.8-1-1.8-1.5-2.5l3-1.2c0.7,1,1.6,2.3,2,3.2l-1.1,0.5h4.8c0.7-1.2,1.6-2.7,2-3.8
			l3.7,1c-0.7,1-1.3,1.9-1.9,2.8h5.1v3.1h-8.6c-0.3,0.6-0.5,1.1-0.8,1.6h6.9V2.8h-15.5v-15.5H-198.6z M-191.8-9.9h-8.2v1.8h8.2V-9.9
			z M-191.8-5.8h-8.2V-4h8.2V-5.8z M-191.8-1.6h-8.2v1.8h8.2V-1.6z"/>
		<path class="st3" d="M-177.1-6c-1.2-1.1-3.8-2.6-5.9-3.5l2-2.8c2,0.7,4.7,2.1,6,3.2L-177.1-6z M-173.2-1.6
			c-1.6,3.4-3.5,7-5.4,10.1l-3.3-2.5c1.6-2.4,4-6.4,5.8-10.1L-173.2-1.6z M-175.2-14.5c-1.2-1.2-3.8-2.7-5.9-3.6l2.1-2.8
			c2.1,0.8,4.7,2.2,6.1,3.4L-175.2-14.5z M-166.1-14.9c-1.1,3.6-2.8,6.5-5,8.5c-0.7-0.7-2.3-2-3.2-2.5c3.3-2.6,5-7,5.6-12.3l3.9,0.5
			c-0.1,0.8-0.3,1.5-0.4,2.3h10.4c0,0,0,0.9-0.1,1.4c-0.3,5.2-0.7,7.5-1.6,8.4c-0.7,0.8-1.5,1-2.7,1.1c-0.9,0.1-2.5,0.1-4.1,0.1
			c-0.1-1.1-0.5-2.5-1.1-3.4c1.4,0.1,2.9,0.2,3.6,0.2c0.5,0,0.8,0,1.1-0.3c0.4-0.4,0.7-1.5,0.9-4H-166.1z M-154.7-5.3
			c-1.1,3.5-2.8,6.2-5.1,8.3c2.1,1.1,4.5,1.8,7.1,2.3c-0.9,0.8-2,2.4-2.5,3.5c-2.9-0.7-5.6-1.9-7.9-3.3c-2.7,1.6-5.9,2.7-9.4,3.4
			c-0.4-1-1.2-2.6-1.9-3.4c3-0.5,5.8-1.3,8.1-2.5c-1.5-1.4-2.9-3.1-4-5l2.5-0.8h-4.3v-3.4h14.3l0.5-0.1L-154.7-5.3z M-166.6-2.9
			c0.9,1.4,2.1,2.7,3.6,3.8c1.3-1.1,2.4-2.3,3.2-3.8H-166.6z"/>
		<path class="st3" d="M-124,5.4c0.2,0,0.4,0,0.5-0.2c0.1-0.1,0.2-0.4,0.3-0.7c0.1-0.5,0.1-1.8,0.1-3.2c0.5,0.4,1.3,0.8,1.9,1
			c0,1.6-0.2,3.4-0.3,4.1c-0.2,0.6-0.4,1.1-0.9,1.4c-0.4,0.3-1,0.5-1.6,0.5h-1.4c-0.7,0-1.4-0.2-1.9-0.7c-0.5-0.5-0.6-1-0.6-2.8V1.2
			c-1.2,2.7-2.9,5.3-5.3,7.7c-0.6-0.5-1.8-1.5-2.7-1.9c1.6-1.6,2.9-3.3,4-5.1l-2.1,1.2c-0.2-0.4-0.4-1-0.6-1.6
			c-5.2,3.1-6,3.9-6.5,4.5c-0.3-0.7-1.2-2-1.7-2.5c0.6-0.5,1.5-1.7,1.5-3.3v-4.7l-1.6,2.7c-0.3-1-0.8-2.3-1.3-3.6V8.8h-3.3V-1.4
			c-0.6,1.8-1.3,3.4-2,4.6c-0.4-1-1.2-2.4-1.7-3.3c1.6-2.7,3-7.2,3.7-11v-0.1h-3v-3.5h3v-6.4h3.3v6.4h2.5v3.5h-2.5v0.4
			c0.5,0.8,2.2,3.9,2.9,5.3v-14.1h7.9v14.2h-5.1v5.9l2.8-1.5c-0.4-0.9-0.9-1.8-1.3-2.5l2.3-1.2c1.1,1.9,2.5,4.4,3.2,6
			c1.3-2.3,2.2-4.7,2.8-7.1h-4c0.5-2.8,1-7.2,1.3-10.7h-1.1v-3.2h11v3.2h-2.9c-0.1,2.3-0.2,4.9-0.6,7.7h3.8v3h-4.4
			c-0.1,0.5-0.3,1.1-0.4,1.5h0.9v8.9c0,0.2,0,0.4,0.1,0.5c0.1,0.1,0.3,0.2,0.4,0.2H-124z M-138.5-16.5v2.7h2.4v-2.7H-138.5z
			 M-136.1-8.3v-2.8h-2.4v2.8H-136.1z M-128.1-8.7c0.5-2.8,0.6-5.4,0.7-7.7h-1.1c-0.3,2.5-0.6,5.3-1,7.7H-128.1z"/>
		<path class="st3" d="M-110.3-12.6c-2,1.1-4.2,2-6.5,2.8c-0.5-0.9-1.6-2.4-2.3-3.1c6.1-1.7,11.4-4.7,13.9-8.7l3.4,1.3
			c-0.2,0.2-0.3,0.5-0.4,0.7c3.2,2.7,8.6,5.2,13.3,6.5c-0.9,0.8-2,2.3-2.6,3.3c-2.1-0.8-4.4-1.8-6.6-3v1.9h-12.2V-12.6z M-118.8,6.1
			c1.1-2.2,2.3-5.4,3-8.1l3.4,1.3c-0.7,2.6-1.8,6.1-2.8,8.4L-118.8,6.1z M-94.1-8c-1.2,2.2-3.4,5.1-5.2,6.8c-0.7-0.6-2-1.4-2.9-1.8
			c0.9-0.9,1.9-2.1,2.7-3.3h-15v-3.2h17.3l0.6-0.2L-94.1-8z M-93.3-3.1c1.4,2.8,3.3,6.5,4.2,8.8l-3.8,1.4c-0.4-1.1-1-2.6-1.7-4.2
			c-0.5,4.3-1.7,5.4-5.2,5.4h-6.1c-4.5,0-5.6-1.1-5.6-4.5v-5.5h3.8v5.4c0,1,0.3,1.2,2.2,1.2h5.5c1.5,0,1.8-0.5,2-3.7
			c0.7,0.5,2.2,1.1,3.3,1.3c-0.7-1.5-1.4-3.1-2-4.4L-93.3-3.1z M-105.1-4.7c1.6,1.8,3.8,4.4,4.9,6l-3.3,1.9c-1-1.6-3.1-4.3-4.6-6.3
			L-105.1-4.7z M-100.1-14c-1.5-1-3-2-4.3-3.1c-1.1,1.2-2.3,2.1-3.7,3.1H-100.1z"/>
	</g>
	<g class="st0">
		<path class="st1" d="M-60.7-47h2v0.9h-4.2V-47h1.7c-0.1-0.3-0.4-0.8-0.7-1.1l1-0.5c0.3,0.4,0.6,0.9,0.8,1.2L-60.7-47z M-62.6-44.1
			h3.5v0.9h-3.5V-44.1z M-59.3-39.6h-2.2v0.4h-1v-3.4h3.2V-39.6z M-59.2-45.5v0.9h-3.2v-0.9H-59.2z M-61.4-41.7v1.2h1.1v-1.2H-61.4z
			 M-55.2-40.4c0.5,0,0.5-0.2,0.6-1.5c0.3,0.2,0.8,0.4,1.1,0.5c-0.1,1.6-0.5,2.1-1.6,2.1h-1.6c-1.2,0-1.6-0.4-1.6-1.6v-3.9h3.1v-2.1
			h-3.1V-48h4.3v4.8h-1.2v-0.5h-1.9v2.8c0,0.4,0.1,0.5,0.6,0.5H-55.2z"/>
		<path class="st1" d="M-53-43.9c0.2-0.7,0.4-1.8,0.4-2.6l0.8,0.1c0,0.8-0.2,2-0.4,2.8L-53-43.9z M-50.5-44.5
			c-0.1-0.4-0.2-0.9-0.3-1.4v6.8h-1v-9.3h1v1.8l0.5-0.2c0.1,0.4,0.3,0.9,0.4,1.3v-0.6h1.3c-0.1-0.2-0.1-0.4-0.2-0.6l0.9-0.2h-1.7
			v-0.9h2.2c-0.1-0.2-0.1-0.4-0.2-0.5l1-0.2c0.1,0.2,0.2,0.5,0.3,0.7h2.2v0.9h-1.6l0.8,0.2c-0.1,0.2-0.2,0.4-0.4,0.7h1.5v0.9h-6
			c0,0.1,0.1,0.2,0.1,0.3L-50.5-44.5z M-50.5-39.9c0.3-0.5,0.6-1.2,0.8-1.8l0.9,0.4c-0.2,0.5-0.5,1.3-0.7,1.8L-50.5-39.9z
			 M-44.3-41.9h-2.4c0.4,0.3,0.7,0.7,0.9,0.9l-0.7,0.6c-0.3-0.3-0.9-0.9-1.3-1.3l0.3-0.2h-1.9v-2.8h5.1V-41.9z M-46.2-40.1
			c0.3,0,0.3-0.1,0.4-0.8c0.2,0.1,0.6,0.3,0.9,0.3c-0.1,1-0.4,1.3-1.2,1.3h-1.4c-1.1,0-1.3-0.3-1.3-1.1v-1.1h1v1.1
			c0,0.2,0.1,0.3,0.4,0.3H-46.2z M-45.4-44.1h-2.9v0.4h2.9V-44.1z M-45.4-43h-2.9v0.4h2.9V-43z M-47.9-46.9c0.1,0.2,0.2,0.5,0.3,0.7
			l-0.4,0.1h1.6c0.1-0.3,0.3-0.6,0.4-0.8H-47.9z M-44.6-41.8c0.4,0.6,0.8,1.3,1.1,1.8l-0.9,0.4c-0.2-0.5-0.7-1.3-1-1.8L-44.6-41.8z"
			/>
		<path class="st1" d="M-37.8-43.8v1.4l0.4-0.6c1,0.4,2.5,1,3.3,1.4l-0.7,1.1c-0.7-0.4-2.1-1-3.1-1.4v2.8h-1.3v-4.6h-3.7v-1.2h3.6
			v-3.5h1.3v1.2h3.2v1.1h-3.2v1.2h4.2v1.2H-37.8z"/>
	</g>
	<g class="st0">
		<path class="st4" d="M104-41.9c-0.3,0.3-0.5,0.5-0.8,0.7c4.5,2.2,8.2,3,10.4,3.4c-1.1,0.8-2.3,2.5-2.9,3.7
			c-2.2-0.7-5.7-2-10.5-4.9c-3.4,2.2-7.6,4-11.5,5.2c-0.5-0.8-1.3-1.9-2.1-2.8v13.1c0,2.1-0.3,3.3-1.6,4.1c-1.1,0.7-2.9,0.9-5.4,0.9
			c-0.1-1.2-0.6-3.3-1.2-4.4c1.5,0.1,2.9,0,3.4,0c0.5,0,0.6-0.2,0.6-0.7v-10.2c-0.8,0.9-1.7,1.7-2.5,2.6l-1.2-3
			c-0.4,5.6-1.2,11.7-3,16.1c-0.7-0.9-2.6-2.5-3.5-2.9c2.4-6,2.6-14.7,2.6-21.1v-15.7h12v20.4c3.4-0.9,7-2.2,10-3.9
			C95.8-41,94.5-41,93.1-41c-0.1-0.9-0.4-1.9-0.7-2.8c1,0,1.9,0,2.2,0c0.4,0,0.5-0.1,0.5-0.5V-54h-7v-3.6H99v13.3
			c0,0.8-0.1,1.4-0.3,1.8c0.6-0.4,1.2-0.9,1.7-1.3L104-41.9z M78.9-42c0,1.9,0,4-0.1,6.3c1.1-0.7,2.3-1.6,3.7-2.6v-4.5l-1.5,1
			c-0.4-0.7-1.2-1.8-2-2.9V-42z M78.9-53v5.5l1.3-0.9c0.7,0.8,1.5,1.7,2.2,2.5V-53H78.9z M112.7-27.9c-4.9,5.3-13.2,8-23.1,9.5
			c-0.5-1.1-1.5-2.7-2.3-3.8c9.1-1,17.2-3.3,21.1-7.5L112.7-27.9z M95-45.9c-2,1.1-4,2.1-5.9,3.1l-1.8-3c1.9-0.6,4.4-1.6,7-2.7
			L95-45.9z M90.6-53.7c1.1,1.1,2.6,2.6,3.5,3.5l-2.9,2.1c-0.7-1-2.2-2.6-3.4-3.7L90.6-53.7z M108.4-31.5
			c-4.1,3.3-10.7,5.8-16.9,7.1c-0.6-0.9-1.5-2.2-2.4-3c5.7-1.1,12.2-3.2,15.5-5.9L108.4-31.5z M104.5-35.3
			c-3.3,2.5-8.1,4.6-12.4,5.7c-0.7-0.7-1.6-1.8-2.6-2.6c3.8-1,8.8-2.9,11.3-4.8L104.5-35.3z M107.3-46.1c-1.9,1-3.8,2-5.6,2.9
			l-1.7-3c1.8-0.5,4.1-1.5,6.7-2.6L107.3-46.1z M107.5-54h-7.2v-3.6h11.3v13.1c0,1.7-0.2,2.6-1.3,3.1c-1.1,0.5-2.6,0.5-4.5,0.5
			c0-1-0.3-2.2-0.7-3.3h2c0.4,0,0.4-0.1,0.4-0.5V-54z M103-53.7c1.2,1.1,2.7,2.6,3.5,3.5l-2.8,2.1c-0.7-1-2.2-2.6-3.3-3.7L103-53.7z
			"/>
		<path class="st4" d="M128-50.4c-0.6,3.1-2.5,6.2-7.2,8.3c-0.6-1.1-2-2.6-3-3.4c3.5-1.2,4.8-3.1,5.4-4.9h-5.7v-4h6v-4.3h4.8v4.3
			h2.5v-4.4h4.5v4.4h3.6v-4.4h4.8v4.4h2.5v-4.4h4.7v4.4h5.9v4h-5.9v1.6c0,1.2,0.1,1.7,0.8,1.7h2.6c0.7,0,1.8-0.1,2.5-0.3
			c0,1.2,0.2,2.9,0.4,4c-0.7,0.2-1.8,0.3-2.8,0.3h-3.2c-4.1,0-5-1.7-5-5.8v-1.5h-2.5v6.8h-12.9v-6.8H128z M118-41.9h38.3v9.5h-4.2
			v6.9c0,2.3-0.5,3.5-2.2,4.2c-1.7,0.7-4,0.7-7.1,0.7c-0.2-1.4-1-3.3-1.6-4.5c1.9,0.1,4.2,0.1,4.8,0c0.6,0,0.8-0.1,0.8-0.6v-4.7
			h-7.6v12h-5.2v-12h-6.8v9.5h-5.1v-11.6H118V-41.9z M122.9-37.7v3.3h11.4v-2.6h5.2v2.6h11.8v-3.3H122.9z M135.2-50.4v2.9h3.6v-2.9
			H135.2z"/>
	</g>
	<g class="st0">
		<path class="st5" d="M3.1-88.7c1.3-1.6,2.9-4.2,3.9-6.6l3.7,1c-1.1,2.4-2.6,5.3-3.9,7.1L3.1-88.7z M8.1-95.5H4.6v-20.4h10.2v7.9
			c3.6-1,4.9-2.5,5.5-4.7h-4.5v-3.3h16.5c0,0,0,0.8-0.1,1.3c-0.3,4.4-0.5,6.4-1.3,7.2c-0.6,0.7-1.3,0.9-2.2,1
			c-0.8,0.1-2.2,0.1-3.7,0.1c-0.1-1-0.4-2.2-0.9-3c1.2,0.1,2.3,0.1,2.8,0.1c0.4,0,0.7-0.1,1-0.3c0.3-0.3,0.5-1.2,0.6-3H24
			c-0.7,3.3-2.2,5.7-6.5,7.2h13.7v9.5H16.6v-9.3l-0.1,0c-0.3-0.8-1.1-2-1.8-2.7V-97H8.1V-95.5z M8.1-112.6v4.2h3.1v-4.2H8.1z
			 M11.2-100.4v-4.6H8.1v4.6H11.2z M15.9-94.4c0.4,2.1,0.8,4.8,0.8,6.5L13-87.3c0-1.7-0.3-4.5-0.6-6.7L15.9-94.4z M22.7-94.7
			c0.8,2,1.6,4.7,1.9,6.5l-3.8,0.8c-0.2-1.7-0.9-4.5-1.7-6.6L22.7-94.7z M20.2-99h7.2v-3.4h-7.2V-99z M29.2-95.5
			c1.3,2,3,4.9,3.7,6.7l-3.7,1.6C28.6-89,27-92,25.7-94.1L29.2-95.5z"/>
		<path class="st5" d="M59.3-101.8v14.6h-4V-98H43.4c-0.6,4-2,7.8-4.9,10.9c-0.6-0.9-2-2.4-2.9-3c4-4.4,4.4-10.3,4.4-15.7v-10.8h3.8
			v6.8h10.4v-7.2h3.9v11.1H43.9v0.3c0,1.3,0,2.6-0.1,3.9H59.3z"/>
	</g>
	<g class="st0">
		<path class="st3" d="M-43.2-70.1c1.2,1.2,3.9,4.5,4.5,5.3l-2.2,3c-0.5-1-1.4-2.5-2.3-3.9v13.3h-3.6v-12.4c-1,2.8-2.2,5.3-3.5,7
			c-0.4-1.1-1.3-2.6-1.9-3.6c2.1-2.6,4-6.9,5-10.8h-4.1v-3.6h4.6v-6.5h3.6v6.5h4.1v3.6h-4.1V-70.1z M-23.1-80.4v27.8h-3.8v-1.8h-7.6
			v1.8h-3.6v-27.8H-23.1z M-34.5-76.8v4h7.6v-4H-34.5z M-34.5-69.4v4.1h7.6v-4.1H-34.5z M-26.9-57.8v-4.1h-7.6v4.1H-26.9z"/>
		<path class="st3" d="M-12.2-64c-0.3-0.8-0.8-2-1.3-3.1v14.9h-3.3v-12.4c-0.6,2.2-1.4,4.3-2.2,5.7c-0.3-1.1-1-2.8-1.5-3.8
			c1.5-2.3,2.8-6.4,3.5-10h-2.6v-3.5h2.8v-6h3.3v6h2.1v3.5h-2.1v1.4c0.7,1,2.5,3.9,2.9,4.7L-12.2-64z M8.1-61.8
			C7.2-60,6-58.5,4.6-57.1c0.6,0.7,1.2,1.1,2,1.2c0.6,0.1,1-1.1,1.2-3.3c0.5,0.7,1.8,1.7,2.4,2c-0.8,4-2.1,5.1-3.5,5
			C4.8-52.4,3.2-53.4,2-55c-1.5,1.1-3.2,2-5.1,2.7c-0.4-0.7-1.3-1.8-2-2.4c2-0.7,3.9-1.7,5.5-2.9c-0.7-1.5-1.2-3.2-1.6-5.1h-4.4
			c0,0.2,0,0.5-0.1,0.7c1.3,1.1,3.1,2.5,4.1,3.5l-2.3,2.2c-0.5-0.6-1.5-1.5-2.4-2.3c-0.7,2.3-2,4.6-4.4,6.4
			c-0.5-0.6-1.8-1.8-2.5-2.2c3.4-2.5,4.3-5.8,4.4-8.3h-1.9v-2.9h8.9c-0.5-3.3-0.9-7-1.1-11.2c-1.2,2.4-2.8,4.8-4.4,6.7l1.8-0.2
			c-0.2-0.5-0.3-1-0.4-1.4l2.2-0.6c0.5,1.5,1.1,3.4,1.3,4.6l-2.4,0.7c0-0.3-0.1-0.7-0.2-1.1c-3.8,0.6-4.6,0.8-5,1
			c-0.2-0.5-0.6-1.9-0.9-2.6c0.5-0.1,1.1-0.6,1.6-1.4c0.3-0.4,0.9-1.2,1.5-2.3c-1.7,0.2-2.2,0.4-2.6,0.5c-0.2-0.6-0.6-1.9-0.9-2.6
			c0.4-0.1,0.8-0.5,1.2-1.2c0.4-0.6,1.5-2.9,2.1-5.1l2.7,0.7c-0.7,1.9-1.8,3.8-2.8,5.3l1.4-0.1c0.3-0.6,0.6-1.3,0.9-2l2.7,0.9
			C-2.9-78.5-3-80.2-3-81.9h3.1C0.2-75.6,0.7-70,1.5-65.7h2.9c-0.5-0.5-1.2-1-1.7-1.4l1.4-1.2c-1.5,0.3-2,0.4-2.3,0.6
			c-0.1-0.5-0.6-1.9-0.9-2.6c0.5-0.2,1-0.7,1.6-1.5c0.3-0.3,0.9-1.2,1.5-2.3c-1.7,0.2-2.2,0.4-2.5,0.5C1.4-74,1-75.3,0.7-76
			c0.4-0.1,0.8-0.5,1.1-1.1c0.3-0.5,1.4-2.7,1.9-4.8l2.7,0.7c-0.6,1.7-1.6,3.5-2.5,4.9l1.4-0.1c0.3-0.6,0.6-1.3,0.8-2L9-77.5
			c-1.2,2.4-2.8,4.9-4.3,6.8l1.8-0.2c-0.2-0.4-0.3-0.9-0.4-1.3l2.2-0.6c0.5,1.5,1.2,3.5,1.5,4.6l-2.3,0.8c-0.1-0.4-0.2-0.8-0.3-1.3
			c-0.8,0.1-1.5,0.2-2,0.3c0.9,0.6,1.9,1.4,2.4,2l-0.8,0.8h2.6v2.9H5.5L8.1-61.8z M2.1-62.7c0.3,1.1,0.5,2,0.9,2.8
			c0.7-0.9,1.4-1.8,1.9-2.8H2.1z"/>
		<path class="st3" d="M39.8-56.7c0,2-0.4,3.1-1.7,3.6c-1.3,0.6-3.3,0.7-6.1,0.7c-0.1-1-0.7-2.7-1.2-3.6c1.8,0.1,3.9,0.1,4.5,0.1
			c0.6,0,0.8-0.2,0.8-0.8v-4.8h-6.8v8.9h-3.8v-8.9h-6.5c-0.6,3.5-1.7,7-4,9.5c-0.6-0.7-2.1-2-3-2.5c3.5-3.8,3.8-9.5,3.8-14V-80h24.2
			V-56.7z M25.4-65.1v-3.9h-6v0.6c0,1,0,2.2-0.1,3.4H25.4z M19.4-76.3v3.7h6v-3.7H19.4z M36-76.3h-6.8v3.7H36V-76.3z M36-65.1v-3.9
			h-6.8v3.9H36z"/>
		<path class="st3" d="M73.1-77.2c0,0,0,1.3,0,1.7c-0.4,14.3-0.8,19.4-2.1,21.1c-0.9,1.2-1.8,1.5-3.1,1.8c-1.2,0.2-3.1,0.1-5,0.1
			c-0.1-1.1-0.6-2.7-1.2-3.7c2,0.2,3.9,0.2,4.8,0.2c0.6,0,1-0.1,1.4-0.5c0.9-1,1.3-5.8,1.7-17.1h-6.8c-0.8,1.9-1.8,3.7-2.8,5.1
			c-0.5-0.5-1.6-1.2-2.5-1.8v14.9h-8.5v2.3h-3.5V-77H49c0.4-1.6,0.8-3.6,0.9-5.2l4.2,0.6c-0.5,1.6-1.1,3.2-1.7,4.6h5v5.2
			c1.9-2.7,3.4-6.6,4.3-10.3l3.6,0.8c-0.3,1.4-0.8,2.7-1.2,4.1H73.1z M54-73.6h-5.1v5.2H54V-73.6z M54-58.9v-6.3h-5.1v6.3H54z
			 M64.6-60.6c-0.9-1.9-2.9-5.1-4.4-7.4l3-1.7c1.6,2.2,3.7,5.2,4.7,7.1L64.6-60.6z"/>
	</g>
	<g class="st0">
		<path class="st6" d="M-68.4,122.3c-0.9,1.9-2.3,4.1-3.5,5.5c-0.6-0.5-1.9-1.5-2.6-2c1.2-1.2,2.2-2.9,2.9-4.5L-68.4,122.3z
			 M-56.6,113.6h-17.9v-2.9h7.2c-0.2-0.4-0.3-0.7-0.4-1l2.5-0.5h-7.8V100h15.4v9.2H-64c0.3,0.4,0.5,1,0.7,1.5h6.7V113.6z
			 M-63.7,121.2v4.2c0,1.6-0.2,2.3-1.3,2.8c-1,0.4-2.3,0.5-4,0.5c-0.2-1-0.6-2.2-1.1-3c1,0,2,0,2.3,0s0.4-0.1,0.4-0.4v-4.1h-5.2
			v-6.6h14.4v6.6H-63.7z M-69.4,103.5h8v-1.2h-8V103.5z M-69.4,106.9h8v-1.2h-8V106.9z M-69,118.8h7.2v-1.7H-69V118.8z M-45.1,118.4
			c-2.4,4.3-6.2,7.8-10.4,10.2c-0.6-0.9-1.6-2.1-2.5-2.9c0.1,0.3,0.2,0.5,0.3,0.7l-2.8,1.3c-0.5-1.3-1.6-3.6-2.6-5.2l2.7-1.1
			c0.8,1.2,1.8,2.9,2.4,4.2c3.8-1.8,7.5-4.9,9.4-8.5L-45.1,118.4z M-46.4,100.9c-2.2,3.1-5.4,5.9-8.4,7.7c-0.6-0.8-1.7-2-2.7-2.7
			c2.7-1.4,5.9-4,7.5-6.6L-46.4,100.9z M-45.7,109.6c-2.4,3.2-5.8,6.2-9.1,8.2c-0.6-0.9-1.7-2-2.6-2.7c2.9-1.6,6.4-4.3,8.2-7
			L-45.7,109.6z"/>
		<path class="st6" d="M-18.7,114.2v14.6h-4V118h-11.8c-0.6,4-2,7.8-4.9,10.9c-0.6-0.9-2-2.4-2.9-3c4-4.4,4.4-10.3,4.4-15.7V99.4
			h3.8v6.8h10.4v-7.2h3.9V110h-14.3v0.3c0,1.3,0,2.6-0.1,3.9H-18.7z"/>
	</g>
	<g class="st0">
		<path class="st7" d="M-209.1-129.8v1.4l0.4-0.6c1,0.4,2.5,1,3.3,1.4l-0.7,1.1c-0.7-0.4-2.1-1-3.1-1.4v2.8h-1.3v-4.6h-3.7v-1.2h3.6
			v-3.5h1.3v1.2h3.2v1.1h-3.2v1.2h4.2v1.2H-209.1z"/>
		<path class="st7" d="M-201.4-129.8c-0.2,0.9-0.4,1.8-0.8,2.6c0.2,0.1,0.3,0.2,0.6,0.4c0.7,0.4,1.6,0.5,2.8,0.5
			c1.2,0,2.9-0.1,4-0.3c-0.1,0.3-0.3,0.9-0.3,1.2c-0.8,0.1-2.6,0.1-3.8,0.1c-1.3,0-2.2-0.1-2.9-0.5c-0.4-0.2-0.8-0.6-1-0.6
			c-0.2,0-0.6,0.7-0.8,1.2l-0.8-1.1c0.3-0.4,0.7-0.8,1-0.9c0.2-0.5,0.4-1.1,0.6-1.7h-1.3c0.2-0.6,0.5-1.4,0.7-2.2h-0.9v-1.1h2.3
			c-0.2,0.7-0.4,1.5-0.7,2.2h0.4l0.2,0L-201.4-129.8z M-203-132.4c-0.1-0.4-0.4-1.2-0.5-1.7l1.1-0.3c0.2,0.5,0.4,1.2,0.6,1.7
			L-203-132.4z M-199.8-126.8h-1.1v-5.1h2.2c-0.5-0.2-0.9-0.4-1.3-0.6l0.8-0.6c0.3,0.1,0.8,0.3,1.2,0.5c0.3-0.2,0.6-0.3,0.8-0.5
			h-3.6v-0.9h4.6l0.2-0.1l0.7,0.6c-0.5,0.5-1.1,1-1.8,1.4c0.2,0.1,0.4,0.2,0.6,0.3h1.2v4.1c0,0.5-0.1,0.7-0.4,0.9
			c-0.3,0.2-0.8,0.2-1.3,0.2c-0.1-0.3-0.2-0.7-0.3-0.9c0.3,0,0.7,0,0.8,0c0.1,0,0.2,0,0.2-0.2v-0.5h-1.2v1.5h-1.1v-1.5h-1.1V-126.8z
			 M-199.8-131.1v0.5h1.1v-0.5H-199.8z M-198.6-129.2v-0.6h-1.1v0.6H-198.6z M-196.4-131.1h-1.2v0.5h1.2V-131.1z M-196.4-129.2v-0.6
			h-1.2v0.6H-196.4z"/>
	</g>
	<g class="st0">
		<path class="st8" d="M-91.3,18.3h-1.1v-2.2h3.8v-0.4h-3.3v-0.8h7.8v0.8h-3.4v0.4h3.9v2.2h-1.1L-85,19c-0.5-0.2-1.6-0.4-2.3-0.6
			l0.2-0.7c0.7,0.1,1.7,0.3,2.2,0.5v-1.4h-0.5l0.4,0.5c-0.5,0.2-1.3,0.4-1.8,0.5l-0.4-0.6c0.4-0.1,0.9-0.3,1.4-0.4h-1.7v2.1h-1.2
			v-2.1h-1.9c0.5,0.1,1.2,0.3,1.6,0.4l-0.3,0.6c-0.4-0.2-1.2-0.4-1.7-0.5l0.3-0.6h-0.5v1.4c0.6-0.1,1.4-0.2,2.3-0.3l0,0.7
			c-0.8,0.2-1.5,0.3-2.1,0.5L-91.3,18.3z M-84.9,22.8c0.5,0,0.6-0.2,0.7-1c0.2,0.2,0.7,0.3,1,0.4c-0.1,1.2-0.5,1.5-1.6,1.5h-2.1
			c-1.4,0-1.7-0.3-1.7-1.3v0h-1.7v0.4h-1.1v-3.6h6.9v3.2h-3v0c0,0.4,0.1,0.4,0.7,0.4H-84.9z M-90.3,20v0.5h1.7V20H-90.3z
			 M-88.7,21.6v-0.4h-1.7v0.4H-88.7z M-85.7,20h-1.8v0.5h1.8V20z M-85.7,21.6v-0.4h-1.8v0.4H-85.7z"/>
		<path class="st8" d="M-80.6,21.9c-0.3,0.6-0.7,1.3-1.1,1.7c-0.2-0.2-0.6-0.5-0.8-0.6c0.4-0.4,0.7-0.9,0.9-1.4L-80.6,21.9z
			 M-76.9,19.1h-5.6v-0.9h2.2c-0.1-0.1-0.1-0.2-0.1-0.3l0.8-0.2h-2.4v-2.9h4.8v2.9h-2c0.1,0.1,0.2,0.3,0.2,0.5h2.1V19.1z
			 M-79.2,21.5v1.3c0,0.5-0.1,0.7-0.4,0.9c-0.3,0.1-0.7,0.2-1.3,0.2c0-0.3-0.2-0.7-0.3-1c0.3,0,0.6,0,0.7,0c0.1,0,0.1,0,0.1-0.1
			v-1.3h-1.6v-2.1h4.5v2.1H-79.2z M-80.9,16h2.5v-0.4h-2.5V16z M-80.9,17h2.5v-0.4h-2.5V17z M-80.8,20.7h2.2v-0.5h-2.2V20.7z
			 M-73.3,20.6c-0.8,1.3-1.9,2.4-3.2,3.2c-0.2-0.3-0.5-0.7-0.8-0.9c0,0.1,0.1,0.1,0.1,0.2l-0.9,0.4c-0.1-0.4-0.5-1.1-0.8-1.6
			l0.8-0.3c0.2,0.4,0.6,0.9,0.8,1.3c1.2-0.6,2.3-1.5,2.9-2.7L-73.3,20.6z M-73.8,15.2c-0.7,1-1.7,1.8-2.6,2.4
			c-0.2-0.2-0.5-0.6-0.8-0.8c0.8-0.4,1.8-1.3,2.3-2L-73.8,15.2z M-73.5,17.9c-0.7,1-1.8,1.9-2.8,2.6c-0.2-0.3-0.5-0.6-0.8-0.8
			c0.9-0.5,2-1.3,2.6-2.2L-73.5,17.9z"/>
		<path class="st8" d="M-65.6,18.8c0.6,0.6,1.5,1,2.4,1.2c-0.3,0.2-0.6,0.7-0.8,1c-0.7-0.2-1.3-0.6-1.9-1c-0.1,1.1-0.2,1.6-0.4,1.8
			c-0.2,0.2-0.5,0.3-0.7,0.3c-0.3,0-0.8,0-1.2,0c0-0.3-0.1-0.7-0.3-0.9c0.4,0,0.8,0.1,1,0.1c0.1,0,0.2,0,0.3-0.1
			c0.1-0.1,0.1-0.3,0.2-0.6h-2.4v1.6c0,0.4,0.1,0.4,0.9,0.4h2.4c0.6,0,0.7-0.2,0.8-1.1c0.3,0.2,0.8,0.3,1.1,0.4
			c-0.2,1.4-0.5,1.8-1.8,1.8h-2.5c-1.6,0-2-0.3-2-1.5v-1.9c-0.4,0.3-0.8,0.5-1.3,0.7c-0.1-0.3-0.5-0.8-0.7-1
			c0.8-0.3,1.5-0.8,2.1-1.3h-1.8v-1.1h2.8c0.2-0.2,0.3-0.5,0.5-0.8h-2.7v-1h1.4c-0.2-0.3-0.4-0.6-0.6-0.8l0.9-0.5
			c0.3,0.3,0.7,0.8,0.8,1.1l-0.4,0.2h0.9c0.2-0.5,0.3-1,0.3-1.5l1.2,0.1c-0.1,0.5-0.2,0.9-0.3,1.4h0.9c0.3-0.4,0.5-0.9,0.7-1.3
			l1.1,0.3c-0.2,0.3-0.4,0.7-0.6,0.9h1.2v1h-3.6c-0.1,0.3-0.2,0.5-0.4,0.8h4.7v1.1H-65.6z M-66.3,19.6c-0.2-0.2-0.5-0.5-0.7-0.8H-69
			c-0.2,0.3-0.5,0.5-0.8,0.8H-66.3z"/>
		<path class="st8" d="M-60,16.6c-0.1,0.7-0.6,1.4-1.6,1.9c-0.1-0.2-0.5-0.6-0.7-0.8c0.8-0.3,1.1-0.7,1.2-1.1h-1.3v-0.9h1.4v-1h1.1
			v1h0.6v-1h1v1h0.8v-1h1.1v1h0.6v-1h1.1v1h1.3v0.9h-1.3v0.4c0,0.3,0,0.4,0.2,0.4h0.6c0.2,0,0.4,0,0.6-0.1c0,0.3,0,0.6,0.1,0.9
			c-0.2,0.1-0.4,0.1-0.6,0.1h-0.7c-0.9,0-1.1-0.4-1.1-1.3v-0.3h-0.6v1.5h-2.9v-1.5H-60z M-62.3,18.5h8.7v2.2h-0.9v1.6
			c0,0.5-0.1,0.8-0.5,1c-0.4,0.2-0.9,0.2-1.6,0.2c-0.1-0.3-0.2-0.7-0.4-1c0.4,0,1,0,1.1,0c0.1,0,0.2,0,0.2-0.1v-1.1h-1.7v2.7h-1.2
			v-2.7h-1.6v2.1h-1.2v-2.6h-1V18.5z M-61.2,19.4v0.8h2.6v-0.6h1.2v0.6h2.7v-0.8H-61.2z M-58.4,16.6v0.7h0.8v-0.7H-58.4z"/>
	</g>
	<g class="st0">
		<path class="st9" d="M31.1-26.1c-0.3,0.6-0.7,1.3-1.1,1.7c-0.2-0.2-0.6-0.5-0.8-0.6c0.4-0.4,0.7-0.9,0.9-1.4L31.1-26.1z
			 M34.8-28.9h-5.6v-0.9h2.2c-0.1-0.1-0.1-0.2-0.1-0.3l0.8-0.2h-2.4v-2.9h4.8v2.9h-2c0.1,0.1,0.2,0.3,0.2,0.5h2.1V-28.9z M32.6-26.5
			v1.3c0,0.5-0.1,0.7-0.4,0.9c-0.3,0.1-0.7,0.2-1.3,0.2c0-0.3-0.2-0.7-0.3-1c0.3,0,0.6,0,0.7,0c0.1,0,0.1,0,0.1-0.1v-1.3h-1.6v-2.1
			h4.5v2.1H32.6z M30.8-32h2.5v-0.4h-2.5V-32z M30.8-31h2.5v-0.4h-2.5V-31z M30.9-27.3h2.2v-0.5h-2.2V-27.3z M38.4-27.4
			c-0.8,1.3-1.9,2.4-3.2,3.2c-0.2-0.3-0.5-0.7-0.8-0.9c0,0.1,0.1,0.1,0.1,0.2l-0.9,0.4c-0.1-0.4-0.5-1.1-0.8-1.6l0.8-0.3
			c0.2,0.4,0.6,0.9,0.8,1.3c1.2-0.6,2.3-1.5,2.9-2.7L38.4-27.4z M38-32.8c-0.7,1-1.7,1.8-2.6,2.4c-0.2-0.2-0.5-0.6-0.8-0.8
			c0.8-0.4,1.8-1.3,2.3-2L38-32.8z M38.2-30.1c-0.7,1-1.8,1.9-2.8,2.6c-0.2-0.3-0.5-0.6-0.8-0.8c0.9-0.5,2-1.3,2.6-2.2L38.2-30.1z"
			/>
		<path class="st9" d="M48-28.2c-0.3,0.2-0.6,0.3-1,0.5c0.3,0.9,0.8,1.7,1.5,2.2c-0.2,0.2-0.6,0.6-0.7,0.9c-0.7-0.6-1.2-1.6-1.6-2.6
			L46-27.2c0.3,1.1,0.2,2.2-0.3,2.6c-0.3,0.3-0.6,0.4-1,0.4c-0.2,0-0.4,0-0.6,0c0-0.3-0.1-0.7-0.3-1c0.3,0,0.5,0,0.7,0
			c0.2,0,0.3,0,0.4-0.2c0.1-0.2,0.2-0.5,0.2-0.9c-0.8,0.7-1.9,1.3-2.9,1.6c-0.2-0.2-0.4-0.6-0.7-0.8c1.2-0.3,2.6-1.1,3.4-1.8
			c0-0.1-0.1-0.2-0.1-0.3c-0.7,0.6-1.7,1.1-2.6,1.4c-0.1-0.2-0.4-0.6-0.6-0.7c0.9-0.3,2.1-0.8,2.8-1.3c-0.1-0.1-0.2-0.2-0.3-0.3
			c-0.6,0.4-1.3,0.8-1.9,1c-0.1-0.2-0.4-0.6-0.6-0.7c0.6-0.2,1.4-0.5,2-0.8h-1.2v-1.4c-0.1,0.1-0.2,0.2-0.3,0.3
			c-0.1-0.2-0.5-0.6-0.7-0.8l0,0v6.8h-1.1v-5c-0.2,0.2-0.4,0.5-0.6,0.7c-0.1-0.3-0.4-0.9-0.6-1.2c0.9-0.9,1.7-2.3,2.2-3.7l1.1,0.4
			c-0.2,0.7-0.6,1.4-0.9,2.1c1-0.7,1.7-1.7,2.1-2.4l1.1,0.2c-0.1,0.2-0.2,0.3-0.3,0.5h1.5l0.2-0.1l0.7,0.5c-0.2,0.3-0.4,0.6-0.7,1
			h1.8v2.3h-3l0,0c0.3,0.3,0.6,0.6,0.8,1c0.6-0.3,1.2-0.7,1.6-1L48-28.2z M43.7-31.9c-0.1,0.2-0.3,0.4-0.4,0.5h1.5
			c0.1-0.2,0.3-0.3,0.4-0.5H43.7z M43.3-29.9h1.1v-0.6h-1.1V-29.9z M46.7-30.5h-1.2v0.6h1.2V-30.5z"/>
		<path class="st9" d="M56.3-29.5c-0.1,0.1-0.1,0.1-0.2,0.2c1,0.5,1.9,0.7,2.4,0.8c-0.2,0.2-0.5,0.6-0.7,0.9
			c-0.5-0.2-1.3-0.4-2.4-1.1c-0.8,0.5-1.7,0.9-2.6,1.2c-0.1-0.2-0.3-0.4-0.5-0.6v3c0,0.5-0.1,0.8-0.4,0.9c-0.3,0.2-0.6,0.2-1.2,0.2
			c0-0.3-0.1-0.7-0.3-1c0.3,0,0.7,0,0.8,0c0.1,0,0.1,0,0.1-0.2v-2.3c-0.2,0.2-0.4,0.4-0.6,0.6l-0.3-0.7c-0.1,1.3-0.3,2.7-0.7,3.7
			c-0.2-0.2-0.6-0.6-0.8-0.7c0.5-1.4,0.6-3.3,0.6-4.8v-3.6h2.7v4.6c0.8-0.2,1.6-0.5,2.3-0.9c-0.2,0-0.5,0-0.8,0
			c0-0.2-0.1-0.4-0.2-0.6c0.2,0,0.4,0,0.5,0c0.1,0,0.1,0,0.1-0.1v-2.2h-1.6v-0.8h2.5v3c0,0.2,0,0.3-0.1,0.4c0.1-0.1,0.3-0.2,0.4-0.3
			L56.3-29.5z M50.6-29.6c0,0.4,0,0.9,0,1.4c0.2-0.2,0.5-0.4,0.8-0.6v-1L51-29.5c-0.1-0.2-0.3-0.4-0.5-0.7V-29.6z M50.6-32v1.3
			l0.3-0.2c0.2,0.2,0.3,0.4,0.5,0.6V-32H50.6z M58.2-26.3c-1.1,1.2-3,1.8-5.2,2.2c-0.1-0.3-0.3-0.6-0.5-0.9c2.1-0.2,3.9-0.8,4.8-1.7
			L58.2-26.3z M54.2-30.4c-0.5,0.2-0.9,0.5-1.3,0.7l-0.4-0.7c0.4-0.1,1-0.4,1.6-0.6L54.2-30.4z M53.2-32.2c0.2,0.3,0.6,0.6,0.8,0.8
			l-0.6,0.5c-0.2-0.2-0.5-0.6-0.8-0.9L53.2-32.2z M57.2-27.2c-0.9,0.8-2.4,1.3-3.8,1.6c-0.1-0.2-0.3-0.5-0.5-0.7
			c1.3-0.2,2.8-0.7,3.5-1.3L57.2-27.2z M56.4-28c-0.7,0.6-1.9,1-2.8,1.3c-0.2-0.2-0.4-0.4-0.6-0.6c0.9-0.2,2-0.6,2.6-1.1L56.4-28z
			 M57-30.5c-0.4,0.2-0.9,0.5-1.3,0.7l-0.4-0.7c0.4-0.1,0.9-0.3,1.5-0.6L57-30.5z M57-32.3h-1.6v-0.8H58v3c0,0.4-0.1,0.6-0.3,0.7
			c-0.2,0.1-0.6,0.1-1,0.1c0-0.2-0.1-0.5-0.1-0.7h0.5c0.1,0,0.1,0,0.1-0.1V-32.3z M56-32.2c0.3,0.2,0.6,0.6,0.8,0.8l-0.6,0.5
			c-0.2-0.2-0.5-0.6-0.8-0.9L56-32.2z"/>
	</g>
	<g class="st0">
		<path class="st1" d="M165.1,136.3c0.4,0.4,1.2,1.4,1.4,1.7l-0.7,0.9c-0.2-0.3-0.4-0.8-0.7-1.2v4.2h-1.1V138
			c-0.3,0.9-0.7,1.7-1.1,2.2c-0.1-0.4-0.4-0.8-0.6-1.1c0.7-0.8,1.2-2.2,1.6-3.4h-1.3v-1.1h1.4v-2h1.1v2h1.3v1.1h-1.3V136.3z
			 M171.3,133.1v8.7h-1.2v-0.6h-2.4v0.6h-1.1v-8.7H171.3z M167.8,134.2v1.2h2.4v-1.2H167.8z M167.8,136.5v1.3h2.4v-1.3H167.8z
			 M170.1,140.1v-1.3h-2.4v1.3H170.1z"/>
		<path class="st1" d="M174.8,138.2c-0.1-0.2-0.2-0.6-0.4-1v4.6h-1V138c-0.2,0.7-0.4,1.3-0.7,1.8c-0.1-0.3-0.3-0.9-0.5-1.2
			c0.5-0.7,0.9-2,1.1-3.1h-0.8v-1.1h0.9v-1.9h1v1.9h0.7v1.1h-0.7v0.4c0.2,0.3,0.8,1.2,0.9,1.5L174.8,138.2z M181.1,138.9
			c-0.3,0.6-0.7,1-1.1,1.5c0.2,0.2,0.4,0.3,0.6,0.4c0.2,0,0.3-0.3,0.4-1c0.2,0.2,0.6,0.5,0.8,0.6c-0.3,1.2-0.7,1.6-1.1,1.6
			c-0.6-0.1-1.1-0.4-1.5-0.9c-0.5,0.3-1,0.6-1.6,0.8c-0.1-0.2-0.4-0.6-0.6-0.8c0.6-0.2,1.2-0.5,1.7-0.9c-0.2-0.5-0.4-1-0.5-1.6h-1.4
			c0,0.1,0,0.1,0,0.2c0.4,0.3,1,0.8,1.3,1.1l-0.7,0.7c-0.2-0.2-0.5-0.5-0.8-0.7c-0.2,0.7-0.6,1.4-1.4,2c-0.1-0.2-0.6-0.6-0.8-0.7
			c1.1-0.8,1.3-1.8,1.4-2.6h-0.6v-0.9h2.8c-0.2-1-0.3-2.2-0.3-3.5c-0.4,0.7-0.9,1.5-1.4,2.1l0.6-0.1c-0.1-0.1-0.1-0.3-0.1-0.4
			l0.7-0.2c0.2,0.5,0.3,1.1,0.4,1.4l-0.7,0.2c0-0.1,0-0.2-0.1-0.3c-1.2,0.2-1.4,0.2-1.6,0.3c-0.1-0.2-0.2-0.6-0.3-0.8
			c0.2,0,0.3-0.2,0.5-0.4c0.1-0.1,0.3-0.4,0.5-0.7c-0.5,0.1-0.7,0.1-0.8,0.2c0-0.2-0.2-0.6-0.3-0.8c0.1,0,0.2-0.2,0.4-0.4
			c0.1-0.2,0.5-0.9,0.7-1.6l0.9,0.2c-0.2,0.6-0.6,1.2-0.9,1.7l0.4,0c0.1-0.2,0.2-0.4,0.3-0.6l0.8,0.3c0-0.5,0-1-0.1-1.5h1
			c0,2,0.2,3.7,0.4,5.1h0.9c-0.2-0.1-0.4-0.3-0.5-0.4l0.4-0.4c-0.5,0.1-0.6,0.1-0.7,0.2c0-0.2-0.2-0.6-0.3-0.8
			c0.2-0.1,0.3-0.2,0.5-0.5c0.1-0.1,0.3-0.4,0.5-0.7c-0.5,0.1-0.7,0.1-0.8,0.2c-0.1-0.2-0.2-0.6-0.3-0.8c0.1,0,0.2-0.2,0.4-0.3
			c0.1-0.2,0.4-0.9,0.6-1.5l0.9,0.2c-0.2,0.5-0.5,1.1-0.8,1.5l0.4,0c0.1-0.2,0.2-0.4,0.3-0.6l0.9,0.3c-0.4,0.8-0.9,1.5-1.3,2.1
			l0.5-0.1c0-0.1-0.1-0.3-0.1-0.4l0.7-0.2c0.2,0.5,0.4,1.1,0.5,1.4l-0.7,0.2c0-0.1-0.1-0.3-0.1-0.4c-0.2,0-0.5,0.1-0.6,0.1
			c0.3,0.2,0.6,0.4,0.8,0.6l-0.3,0.2h0.8v0.9h-1.2L181.1,138.9z M179.2,138.6c0.1,0.3,0.2,0.6,0.3,0.9c0.2-0.3,0.4-0.6,0.6-0.9
			H179.2z"/>
		<path class="st1" d="M190.9,141.7c0-0.2-0.1-0.4-0.1-0.6c-1.6,0.2-1.9,0.3-2.1,0.4v0c0,0,0,0,0,0c0-0.2-0.2-0.6-0.3-0.9
			c0.1,0.4,0.1,0.7,0.1,1l-0.8,0.1c0-0.2,0-0.4-0.1-0.6c-1.5,0.2-1.8,0.3-2,0.4c0-0.2-0.2-0.6-0.3-0.9h-1.4v0.8H183v-2.8
			c-0.1,0.2-0.2,0.4-0.3,0.5c-0.1-0.3-0.3-0.9-0.4-1.2c0.6-1,0.9-2.5,1.1-4h-0.9v-1h3.1v1h-1.1c-0.1,0.7-0.2,1.4-0.4,2.1h1.4v4.5
			c0.2-0.1,0.4-0.4,0.6-0.7c0.1-0.2,0.4-0.7,0.8-1.3c-0.7,0.1-0.9,0.1-1,0.2c0-0.2-0.2-0.7-0.3-1c0.1,0,0.3-0.2,0.4-0.5
			c0.1-0.2,0.5-1.1,0.7-2h-0.9v-1.1h1.5c-0.1-0.4-0.4-0.9-0.7-1.3l0.9-0.4c0.3,0.4,0.7,1,0.8,1.4l-0.6,0.3h1.5
			c0.3-0.5,0.5-1.2,0.7-1.7l1.2,0.3c-0.2,0.5-0.5,0.9-0.7,1.4h1.5v1.1h-1.9l0.7,0.3c-0.2,0.7-0.6,1.4-0.9,2l0.6,0
			c0.2-0.4,0.3-0.8,0.4-1.2l1,0.4c-0.3,0.9-0.8,1.8-1.2,2.6l0.8-0.2c0.3,0.8,0.5,1.8,0.6,2.4L190.9,141.7z M184.4,137h-0.6v2.7h0.6
			V137z M188,139.2c0.1,0.4,0.2,0.9,0.3,1.4c0.2-0.1,0.4-0.3,0.7-0.7c0.1-0.2,0.4-0.7,0.7-1.3c-0.7,0.1-0.9,0.1-1.1,0.2
			c-0.1-0.2-0.2-0.7-0.3-1c0.2-0.1,0.3-0.2,0.4-0.5c0.1-0.2,0.5-1.1,0.6-1.9h-2.6l0.7,0.3c-0.2,0.7-0.6,1.4-0.9,2l0.6,0
			c0.2-0.4,0.3-0.8,0.5-1.2l1,0.4c-0.4,0.9-0.8,1.8-1.3,2.6L188,139.2z M187.5,140.2c-0.1-0.3-0.1-0.6-0.2-0.9
			c-0.2,0.3-0.4,0.7-0.6,1L187.5,140.2z M190.6,140.2c-0.1-0.3-0.2-0.6-0.3-0.9c-0.2,0.4-0.4,0.7-0.6,1L190.6,140.2z"/>
		<path class="st1" d="M199.9,137.3v4.6h-1.3v-3.4h-3.7c-0.2,1.2-0.6,2.4-1.5,3.4c-0.2-0.3-0.6-0.7-0.9-0.9c1.2-1.4,1.4-3.2,1.4-4.9
			v-3.4h1.2v2.1h3.2v-2.3h1.2v3.5h-4.5v0.1c0,0.4,0,0.8,0,1.2H199.9z"/>
	</g>
	<g class="st0">
		<path class="st10" d="M168.9,88.4c0.4-0.5,0.9-1.3,1.2-2.1l1.1,0.3c-0.3,0.8-0.8,1.6-1.2,2.2L168.9,88.4z M170.4,86.3h-1.1v-6.4
			h3.2v2.5c1.1-0.3,1.5-0.8,1.7-1.5h-1.4v-1h5.2c0,0,0,0.3,0,0.4c-0.1,1.4-0.2,2-0.4,2.2c-0.2,0.2-0.4,0.3-0.7,0.3
			c-0.2,0-0.7,0-1.2,0c0-0.3-0.1-0.7-0.3-0.9c0.4,0,0.7,0,0.9,0c0.1,0,0.2,0,0.3-0.1c0.1-0.1,0.1-0.4,0.2-0.9h-1.4
			c-0.2,1-0.7,1.8-2,2.2h4.3v3h-4.5v-2.9l0,0c-0.1-0.2-0.3-0.6-0.6-0.8v3.4h-2.1V86.3z M170.4,81v1.3h1V81H170.4z M171.4,84.7v-1.4
			h-1v1.4H171.4z M172.8,86.6c0.1,0.6,0.2,1.5,0.3,2l-1.2,0.2c0-0.5-0.1-1.4-0.2-2.1L172.8,86.6z M175,86.5c0.2,0.6,0.5,1.5,0.6,2
			l-1.2,0.2c-0.1-0.5-0.3-1.4-0.5-2.1L175,86.5z M174.2,85.2h2.2v-1.1h-2.2V85.2z M177,86.3c0.4,0.6,0.9,1.5,1.2,2.1l-1.2,0.5
			c-0.2-0.6-0.7-1.5-1.1-2.2L177,86.3z"/>
		<path class="st10" d="M181.6,83.3c0.4,0.4,1.2,1.4,1.4,1.7l-0.7,0.9c-0.2-0.3-0.4-0.8-0.7-1.2v4.2h-1.1V85
			c-0.3,0.9-0.7,1.7-1.1,2.2c-0.1-0.4-0.4-0.8-0.6-1.1c0.7-0.8,1.2-2.2,1.6-3.4H179v-1.1h1.4v-2h1.1v2h1.3v1.1h-1.3V83.3z
			 M187.8,80.1v8.7h-1.2v-0.6h-2.4v0.6h-1.1v-8.7H187.8z M184.3,81.2v1.2h2.4v-1.2H184.3z M184.3,83.5v1.3h2.4v-1.3H184.3z
			 M186.6,87.1v-1.3h-2.4v1.3H186.6z"/>
		<path class="st10" d="M191.3,85.2c-0.1-0.2-0.2-0.6-0.4-1v4.6h-1V85c-0.2,0.7-0.4,1.3-0.7,1.8c-0.1-0.3-0.3-0.9-0.5-1.2
			c0.5-0.7,0.9-2,1.1-3.1h-0.8v-1.1h0.9v-1.9h1v1.9h0.7v1.1h-0.7v0.4c0.2,0.3,0.8,1.2,0.9,1.5L191.3,85.2z M197.6,85.9
			c-0.3,0.6-0.7,1-1.1,1.5c0.2,0.2,0.4,0.3,0.6,0.4c0.2,0,0.3-0.3,0.4-1c0.2,0.2,0.6,0.5,0.8,0.6c-0.3,1.2-0.7,1.6-1.1,1.6
			c-0.6-0.1-1.1-0.4-1.5-0.9c-0.5,0.3-1,0.6-1.6,0.8c-0.1-0.2-0.4-0.6-0.6-0.8c0.6-0.2,1.2-0.5,1.7-0.9c-0.2-0.5-0.4-1-0.5-1.6h-1.4
			c0,0.1,0,0.1,0,0.2c0.4,0.3,1,0.8,1.3,1.1l-0.7,0.7c-0.2-0.2-0.5-0.5-0.8-0.7c-0.2,0.7-0.6,1.4-1.4,2c-0.1-0.2-0.6-0.6-0.8-0.7
			c1.1-0.8,1.3-1.8,1.4-2.6h-0.6v-0.9h2.8c-0.2-1-0.3-2.2-0.3-3.5c-0.4,0.7-0.9,1.5-1.4,2.1l0.6-0.1c-0.1-0.1-0.1-0.3-0.1-0.4
			l0.7-0.2c0.2,0.5,0.3,1.1,0.4,1.4l-0.7,0.2c0-0.1,0-0.2-0.1-0.3c-1.2,0.2-1.4,0.2-1.6,0.3c-0.1-0.2-0.2-0.6-0.3-0.8
			c0.2,0,0.3-0.2,0.5-0.4c0.1-0.1,0.3-0.4,0.5-0.7c-0.5,0.1-0.7,0.1-0.8,0.2c0-0.2-0.2-0.6-0.3-0.8c0.1,0,0.2-0.2,0.4-0.4
			c0.1-0.2,0.5-0.9,0.7-1.6l0.9,0.2c-0.2,0.6-0.6,1.2-0.9,1.7l0.4,0c0.1-0.2,0.2-0.4,0.3-0.6l0.8,0.3c0-0.5,0-1-0.1-1.5h1
			c0,2,0.2,3.7,0.4,5.1h0.9c-0.2-0.1-0.4-0.3-0.5-0.4l0.4-0.4c-0.5,0.1-0.6,0.1-0.7,0.2c0-0.2-0.2-0.6-0.3-0.8
			c0.2-0.1,0.3-0.2,0.5-0.5c0.1-0.1,0.3-0.4,0.5-0.7c-0.5,0.1-0.7,0.1-0.8,0.2c-0.1-0.2-0.2-0.6-0.3-0.8c0.1,0,0.2-0.2,0.4-0.3
			c0.1-0.2,0.4-0.9,0.6-1.5l0.9,0.2c-0.2,0.5-0.5,1.1-0.8,1.5l0.4,0c0.1-0.2,0.2-0.4,0.3-0.6l0.9,0.3c-0.4,0.8-0.9,1.5-1.3,2.1
			l0.5-0.1c0-0.1-0.1-0.3-0.1-0.4l0.7-0.2c0.2,0.5,0.4,1.1,0.5,1.4l-0.7,0.2c0-0.1-0.1-0.3-0.1-0.4c-0.2,0-0.5,0.1-0.6,0.1
			c0.3,0.2,0.6,0.4,0.8,0.6l-0.3,0.2h0.8v0.9h-1.2L197.6,85.9z M195.7,85.6c0.1,0.3,0.2,0.6,0.3,0.9c0.2-0.3,0.4-0.6,0.6-0.9H195.7z
			"/>
		<path class="st10" d="M204,85.7c-0.1,0.5-0.4,1-0.7,1.4c1.3,0.4,2.9,0.5,5,0.5c-0.2,0.3-0.4,0.8-0.5,1.2c-2.2-0.1-4-0.2-5.4-0.8
			c-0.7,0.4-1.6,0.7-2.7,0.9c-0.1-0.3-0.5-0.8-0.7-1.1c1-0.2,1.7-0.4,2.3-0.6c-0.4-0.3-0.7-0.7-1-1.1l0.9-0.4H200v-4.1h3V81h-3.8V80
			h8.8V81h-3.7v0.6h3.1v4.1H204z M201.1,83.2h1.8v-0.6h-1.8V83.2z M201.1,84.8h1.8c0-0.1,0-0.2,0-0.3v-0.3h-1.8V84.8z M201.2,85.7
			c0.3,0.4,0.6,0.6,1,0.9c0.3-0.3,0.5-0.6,0.6-0.9H201.2z M206.1,84.1h-1.9v0.3c0,0.1,0,0.2,0,0.3h1.9V84.1z M204.2,82.6v0.6h1.9
			v-0.6H204.2z"/>
		<path class="st10" d="M216.2,86.6c0.7,0.5,1.6,1.1,2,1.6l-0.8,0.7c-0.5-0.5-1.4-1.2-2.2-1.8l0.6-0.5h-0.6
			c-0.4,1.1-1.2,1.8-3.2,2.2c-0.1-0.3-0.4-0.7-0.6-0.9c1.5-0.3,2.2-0.7,2.6-1.3h-2.2v-0.9h0.7V83l-0.1,0c-0.1-0.2-0.4-0.5-0.6-0.7
			v0.2h-0.9v1.4c0.3-0.1,0.6-0.2,0.8-0.2l0.2,1.1c-0.3,0.1-0.7,0.2-1,0.3v2.4c0,0.6-0.1,0.9-0.4,1.1c-0.3,0.2-0.7,0.2-1.4,0.2
			c0-0.3-0.2-0.8-0.3-1.2c0.3,0,0.6,0,0.8,0c0.1,0,0.2,0,0.2-0.2v-2l-0.9,0.3l-0.3-1.1c0.3-0.1,0.7-0.2,1.2-0.3v-1.8h-1v-1.1h1v-1.9
			h1.1v1.9h0.9v0.7c0.9-0.7,1.5-1.7,1.8-2.6l1.1,0.2c-0.1,0.2-0.2,0.4-0.3,0.6h1.3l0.2,0l0.7,0.5c-0.2,0.4-0.5,0.8-0.8,1.2h1.6v3.7
			h0.6v0.9H216.2z M213.5,84.3c0.5-0.4,0.9-0.8,1.2-1.4h-1.2V84.3z M215.6,84.9c0,0.3-0.1,0.5-0.1,0.8h1.1v-1.2l-0.3,0.4
			c-0.3-0.2-0.8-0.6-1.2-0.9c-0.3,0.4-0.6,0.7-0.9,0.9c-0.1-0.1-0.4-0.3-0.6-0.4v1.2h0.9c0-0.2,0.1-0.5,0.1-0.8H215.6z M214,81.2
			c-0.1,0.2-0.3,0.5-0.5,0.7h1.3c0.2-0.2,0.3-0.5,0.4-0.7H214z M216.6,82.9h-0.9c-0.1,0.1-0.1,0.3-0.2,0.4c0.4,0.2,0.8,0.5,1.1,0.7
			V82.9z"/>
		<path class="st10" d="M221.5,81.6c-0.1,0.7-0.6,1.4-1.6,1.9c-0.1-0.2-0.5-0.6-0.7-0.8c0.8-0.3,1.1-0.7,1.2-1.1h-1.3v-0.9h1.4v-1
			h1.1v1h0.6v-1h1v1h0.8v-1h1.1v1h0.6v-1h1.1v1h1.3v0.9h-1.3v0.4c0,0.3,0,0.4,0.2,0.4h0.6c0.2,0,0.4,0,0.6-0.1c0,0.3,0,0.6,0.1,0.9
			c-0.2,0.1-0.4,0.1-0.6,0.1h-0.7c-0.9,0-1.1-0.4-1.1-1.3v-0.3H225v1.5h-2.9v-1.5H221.5z M219.2,83.5h8.7v2.2h-0.9v1.6
			c0,0.5-0.1,0.8-0.5,1c-0.4,0.2-0.9,0.2-1.6,0.2c-0.1-0.3-0.2-0.7-0.4-1c0.4,0,1,0,1.1,0c0.1,0,0.2,0,0.2-0.1v-1.1H224v2.7h-1.2
			v-2.7h-1.6v2.1h-1.2v-2.6h-1V83.5z M220.3,84.4v0.8h2.6v-0.6h1.2v0.6h2.7v-0.8H220.3z M223.1,81.6v0.7h0.8v-0.7H223.1z"/>
	</g>
	<g class="st0">
		<path class="st11" d="M-70.1-101.7h-1.1v-2.2h3.8v-0.4h-3.3v-0.8h7.8v0.8h-3.4v0.4h3.9v2.2h-1.1l-0.2,0.7
			c-0.5-0.2-1.6-0.4-2.3-0.6l0.2-0.7c0.7,0.1,1.7,0.3,2.2,0.5v-1.4h-0.5l0.4,0.5c-0.5,0.2-1.3,0.4-1.8,0.5l-0.4-0.6
			c0.4-0.1,0.9-0.3,1.4-0.4h-1.7v2.1h-1.2v-2.1h-1.9c0.5,0.1,1.2,0.3,1.6,0.4l-0.3,0.6c-0.4-0.2-1.2-0.4-1.7-0.5l0.3-0.6H-70v1.4
			c0.6-0.1,1.4-0.2,2.3-0.3l0,0.7c-0.8,0.2-1.5,0.3-2.1,0.5L-70.1-101.7z M-63.7-97.2c0.5,0,0.6-0.2,0.7-1c0.2,0.2,0.7,0.3,1,0.4
			c-0.1,1.2-0.5,1.5-1.6,1.5h-2.1c-1.4,0-1.7-0.3-1.7-1.3v0h-1.7v0.4h-1.1v-3.6h6.9v3.2h-3v0c0,0.4,0.1,0.4,0.7,0.4H-63.7z
			 M-69.1-100v0.5h1.7v-0.5H-69.1z M-67.4-98.4v-0.4h-1.7v0.4H-67.4z M-64.5-100h-1.8v0.5h1.8V-100z M-64.5-98.4v-0.4h-1.8v0.4
			H-64.5z"/>
		<path class="st11" d="M-59.4-98.1c-0.3,0.6-0.7,1.3-1.1,1.7c-0.2-0.2-0.6-0.5-0.8-0.6c0.4-0.4,0.7-0.9,0.9-1.4L-59.4-98.1z
			 M-55.7-100.9h-5.6v-0.9h2.2c-0.1-0.1-0.1-0.2-0.1-0.3l0.8-0.2h-2.4v-2.9h4.8v2.9h-2c0.1,0.1,0.2,0.3,0.2,0.5h2.1V-100.9z
			 M-57.9-98.5v1.3c0,0.5-0.1,0.7-0.4,0.9c-0.3,0.1-0.7,0.2-1.3,0.2c0-0.3-0.2-0.7-0.3-1c0.3,0,0.6,0,0.7,0c0.1,0,0.1,0,0.1-0.1
			v-1.3h-1.6v-2.1h4.5v2.1H-57.9z M-59.7-104h2.5v-0.4h-2.5V-104z M-59.7-103h2.5v-0.4h-2.5V-103z M-59.6-99.3h2.2v-0.5h-2.2V-99.3z
			 M-52.1-99.4c-0.8,1.3-1.9,2.4-3.2,3.2c-0.2-0.3-0.5-0.7-0.8-0.9c0,0.1,0.1,0.1,0.1,0.2l-0.9,0.4c-0.1-0.4-0.5-1.1-0.8-1.6
			l0.8-0.3c0.2,0.4,0.6,0.9,0.8,1.3c1.2-0.6,2.3-1.5,2.9-2.7L-52.1-99.4z M-52.5-104.8c-0.7,1-1.7,1.8-2.6,2.4
			c-0.2-0.2-0.5-0.6-0.8-0.8c0.8-0.5,1.8-1.3,2.3-2.1L-52.5-104.8z M-52.3-102.1c-0.7,1-1.8,1.9-2.8,2.6c-0.2-0.3-0.5-0.6-0.8-0.8
			c0.9-0.5,2-1.3,2.6-2.2L-52.3-102.1z"/>
		<path class="st11" d="M-42.3-103.9c0,0,0,0.4,0,0.5c-0.1,4.5-0.2,6.1-0.6,6.6c-0.3,0.4-0.6,0.5-1,0.6c-0.4,0.1-1,0-1.6,0
			c0-0.3-0.2-0.8-0.4-1.2c0.6,0.1,1.2,0.1,1.5,0.1c0.2,0,0.3,0,0.4-0.2c0.3-0.3,0.4-1.8,0.5-5.3h-2.1c-0.3,0.6-0.6,1.1-0.9,1.6
			c-0.2-0.2-0.5-0.4-0.8-0.6v4.7h-2.7v0.7H-51v-7.4h1.1c0.1-0.5,0.2-1.1,0.3-1.6l1.3,0.2c-0.2,0.5-0.4,1-0.5,1.4h1.6v1.6
			c0.6-0.8,1.1-2,1.4-3.2l1.1,0.3c-0.1,0.4-0.2,0.8-0.4,1.3H-42.3z M-48.3-102.8h-1.6v1.6h1.6V-102.8z M-48.3-98.2v-2h-1.6v2H-48.3z
			 M-45-98.8c-0.3-0.6-0.9-1.6-1.4-2.3l0.9-0.5c0.5,0.7,1.2,1.6,1.5,2.2L-45-98.8z"/>
		<path class="st11" d="M-35.2-99.1c0.8,0.8,2.1,1.5,3.2,1.9c-0.3,0.2-0.7,0.7-0.8,1c-1.2-0.5-2.4-1.3-3.3-2.3v2.4h-1.2v-2.3
			c-0.9,1-2,1.8-3.2,2.2c-0.2-0.3-0.6-0.8-0.8-1c1.1-0.4,2.3-1.1,3.1-1.9h-2v-3.8h2.9v-0.6h-3.7v-1.1h3.7v-0.8h1.2v0.8h3.9v1.1h-3.9
			v0.6h3v3.8H-35.2z M-39.2-101.5h1.8v-0.6h-1.8V-101.5z M-39.2-100h1.8v-0.6h-1.8V-100z M-36.2-102.1v0.6h1.8v-0.6H-36.2z
			 M-34.3-100.6h-1.8v0.6h1.8V-100.6z"/>
		<path class="st11" d="M-25.1-103.8v1.1h2.5v6.5h-1.2v-0.6h-5.7v0.6h-1.2v-6.5h2.4v-1.1h-2.9v-1.1h8.9v1.1H-25.1z M-23.9-97.8v-1.2
			h-0.1H-25c-1,0-1.3-0.3-1.3-1.5v-1.1h-1.1c-0.1,1.1-0.4,2.2-1.8,2.8c-0.1-0.1-0.2-0.3-0.4-0.5v1.5H-23.9z M-29.6-101.6v1.8
			c0.9-0.5,1.1-1.1,1.2-1.8H-29.6z M-26.3-103.8h-1v1.1h1V-103.8z M-25.1-101.6v1.1c0,0.3,0,0.4,0.3,0.4h0.8c0.1,0,0.1,0,0.2,0v-1.4
			H-25.1z"/>
	</g>
	<g class="st0">
		<path class="st12" d="M-148.9,41.4c0.4-0.5,0.9-1.3,1.2-2.1l1.1,0.3c-0.3,0.8-0.8,1.6-1.2,2.2L-148.9,41.4z M-147.3,39.3h-1.1
			v-6.4h3.2v2.5c1.1-0.3,1.5-0.8,1.7-1.5h-1.4v-1h5.2c0,0,0,0.3,0,0.4c-0.1,1.4-0.2,2-0.4,2.2c-0.2,0.2-0.4,0.3-0.7,0.3
			c-0.2,0-0.7,0-1.2,0c0-0.3-0.1-0.7-0.3-0.9c0.4,0,0.7,0,0.9,0c0.1,0,0.2,0,0.3-0.1c0.1-0.1,0.1-0.4,0.2-0.9h-1.4
			c-0.2,1-0.7,1.8-2,2.2h4.3v3h-4.5v-2.9l0,0c-0.1-0.2-0.3-0.6-0.6-0.8v3.4h-2.1V39.3z M-147.3,34v1.3h1V34H-147.3z M-146.4,37.7
			v-1.4h-1v1.4H-146.4z M-144.9,39.6c0.1,0.6,0.2,1.5,0.3,2l-1.2,0.2c0-0.5-0.1-1.4-0.2-2.1L-144.9,39.6z M-142.8,39.5
			c0.2,0.6,0.5,1.5,0.6,2l-1.2,0.2c-0.1-0.5-0.3-1.4-0.5-2.1L-142.8,39.5z M-143.6,38.2h2.2v-1.1h-2.2V38.2z M-140.8,39.3
			c0.4,0.6,0.9,1.5,1.2,2.1l-1.2,0.5c-0.2-0.6-0.7-1.5-1.1-2.2L-140.8,39.3z"/>
		<path class="st12" d="M-136.2,36.3c0.4,0.4,1.2,1.4,1.4,1.7l-0.7,0.9c-0.2-0.3-0.4-0.8-0.7-1.2v4.2h-1.1V38
			c-0.3,0.9-0.7,1.7-1.1,2.2c-0.1-0.4-0.4-0.8-0.6-1.1c0.7-0.8,1.2-2.2,1.6-3.4h-1.3v-1.1h1.4v-2h1.1v2h1.3v1.1h-1.3V36.3z
			 M-129.9,33.1v8.7h-1.2v-0.6h-2.4v0.6h-1.1v-8.7H-129.9z M-133.5,34.2v1.2h2.4v-1.2H-133.5z M-133.5,36.5v1.3h2.4v-1.3H-133.5z
			 M-131.1,40.1v-1.3h-2.4v1.3H-131.1z"/>
		<path class="st12" d="M-126.3,34.6c-0.1,0.7-0.6,1.4-1.6,1.9c-0.1-0.2-0.5-0.6-0.7-0.8c0.8-0.3,1.1-0.7,1.2-1.1h-1.3v-0.9h1.4v-1
			h1.1v1h0.6v-1h1v1h0.8v-1h1.1v1h0.6v-1h1.1v1h1.3v0.9h-1.3v0.4c0,0.3,0,0.4,0.2,0.4h0.6c0.2,0,0.4,0,0.6-0.1c0,0.3,0,0.6,0.1,0.9
			c-0.2,0.1-0.4,0.1-0.6,0.1h-0.7c-0.9,0-1.1-0.4-1.1-1.3v-0.3h-0.6v1.5h-2.9v-1.5H-126.3z M-128.6,36.5h8.7v2.2h-0.9v1.6
			c0,0.5-0.1,0.8-0.5,1c-0.4,0.2-0.9,0.2-1.6,0.2c-0.1-0.3-0.2-0.7-0.4-1c0.4,0,1,0,1.1,0c0.1,0,0.2,0,0.2-0.1v-1.1h-1.7v2.7h-1.2
			v-2.7h-1.6v2.1h-1.2v-2.6h-1V36.5z M-127.5,37.4v0.8h2.6v-0.6h1.2v0.6h2.7v-0.8H-127.5z M-124.7,34.6v0.7h0.8v-0.7H-124.7z"/>
	</g>
	<g class="st0">
		<path class="st13" d="M-92.7-114.5c-0.1,0.1-0.1,0.1-0.2,0.2c1,0.5,1.9,0.7,2.4,0.8c-0.2,0.2-0.5,0.6-0.7,0.8
			c-0.5-0.2-1.3-0.5-2.4-1.1c-0.8,0.5-1.7,0.9-2.6,1.2c-0.1-0.2-0.3-0.4-0.5-0.6v3c0,0.5-0.1,0.8-0.4,0.9c-0.3,0.2-0.6,0.2-1.2,0.2
			c0-0.3-0.1-0.7-0.3-1c0.3,0,0.7,0,0.8,0c0.1,0,0.1,0,0.1-0.2v-2.3c-0.2,0.2-0.4,0.4-0.6,0.6l-0.3-0.7c-0.1,1.3-0.3,2.7-0.7,3.7
			c-0.2-0.2-0.6-0.6-0.8-0.7c0.5-1.4,0.6-3.3,0.6-4.8v-3.6h2.7v4.6c0.8-0.2,1.6-0.5,2.3-0.9c-0.2,0-0.5,0-0.8,0
			c0-0.2-0.1-0.4-0.2-0.6c0.2,0,0.4,0,0.5,0c0.1,0,0.1,0,0.1-0.1v-2.2h-1.6v-0.8h2.5v3c0,0.2,0,0.3-0.1,0.4c0.1-0.1,0.3-0.2,0.4-0.3
			L-92.7-114.5z M-98.4-114.5c0,0.4,0,0.9,0,1.4c0.2-0.2,0.5-0.4,0.8-0.6v-1l-0.3,0.2c-0.1-0.2-0.3-0.4-0.5-0.7V-114.5z M-98.4-117
			v1.2l0.3-0.2c0.2,0.2,0.3,0.4,0.5,0.6v-1.6H-98.4z M-90.8-111.3c-1.1,1.2-3,1.8-5.2,2.2c-0.1-0.3-0.3-0.6-0.5-0.9
			c2.1-0.2,3.9-0.8,4.8-1.7L-90.8-111.3z M-94.8-115.4c-0.5,0.2-0.9,0.5-1.3,0.7l-0.4-0.7c0.4-0.1,1-0.4,1.6-0.6L-94.8-115.4z
			 M-95.8-117.2c0.2,0.2,0.6,0.6,0.8,0.8l-0.6,0.5c-0.2-0.2-0.5-0.6-0.8-0.8L-95.8-117.2z M-91.8-112.2c-0.9,0.8-2.4,1.3-3.8,1.6
			c-0.1-0.2-0.3-0.5-0.5-0.7c1.3-0.2,2.8-0.7,3.5-1.3L-91.8-112.2z M-92.6-113c-0.7,0.6-1.9,1-2.8,1.3c-0.2-0.2-0.4-0.4-0.6-0.6
			c0.9-0.2,2-0.7,2.6-1.1L-92.6-113z M-92-115.5c-0.4,0.2-0.9,0.5-1.3,0.7l-0.4-0.7c0.4-0.1,0.9-0.3,1.5-0.6L-92-115.5z M-92-117.3
			h-1.6v-0.8h2.6v3c0,0.4-0.1,0.6-0.3,0.7c-0.2,0.1-0.6,0.1-1,0.1c0-0.2-0.1-0.5-0.1-0.7h0.5c0.1,0,0.1,0,0.1-0.1V-117.3z
			 M-93-117.2c0.3,0.2,0.6,0.6,0.8,0.8l-0.6,0.5c-0.2-0.2-0.5-0.6-0.8-0.8L-93-117.2z"/>
		<path class="st13" d="M-87.3-116.4c-0.1,0.7-0.6,1.4-1.6,1.9c-0.1-0.2-0.5-0.6-0.7-0.8c0.8-0.3,1.1-0.7,1.2-1.1h-1.3v-0.9h1.4v-1
			h1.1v1h0.6v-1h1v1h0.8v-1h1.1v1h0.6v-1h1.1v1h1.3v0.9h-1.3v0.4c0,0.3,0,0.4,0.2,0.4h0.6c0.2,0,0.4,0,0.6-0.1c0,0.3,0,0.7,0.1,0.9
			c-0.2,0.1-0.4,0.1-0.6,0.1H-82c-0.9,0-1.1-0.4-1.1-1.3v-0.3h-0.6v1.5h-2.9v-1.5H-87.3z M-89.6-114.5h8.7v2.2h-0.9v1.6
			c0,0.5-0.1,0.8-0.5,1c-0.4,0.2-0.9,0.2-1.6,0.2c-0.1-0.3-0.2-0.7-0.4-1c0.4,0,1,0,1.1,0c0.1,0,0.2,0,0.2-0.1v-1.1h-1.7v2.7h-1.2
			v-2.7h-1.6v2.1h-1.2v-2.6h-1V-114.5z M-88.5-113.6v0.8h2.6v-0.6h1.2v0.6h2.7v-0.8H-88.5z M-85.7-116.4v0.7h0.8v-0.7H-85.7z"/>
		<path class="st13" d="M-72.4-113.7v4.6h-1.3v-3.4h-3.7c-0.2,1.2-0.6,2.4-1.5,3.4c-0.2-0.3-0.6-0.7-0.9-0.9
			c1.2-1.4,1.4-3.2,1.4-4.9v-3.4h1.2v2.1h3.2v-2.3h1.2v3.5h-4.5v0.1c0,0.4,0,0.8,0,1.2H-72.4z"/>
	</g>
	<g class="st0">
		<path class="st14" d="M-132.9-116.6c0.4-0.5,0.9-1.3,1.2-2.1l1.1,0.3c-0.3,0.8-0.8,1.7-1.2,2.2L-132.9-116.6z M-131.3-118.7h-1.1
			v-6.4h3.2v2.5c1.1-0.3,1.5-0.8,1.7-1.5h-1.4v-1h5.2c0,0,0,0.3,0,0.4c-0.1,1.4-0.2,2-0.4,2.2c-0.2,0.2-0.4,0.3-0.7,0.3
			c-0.2,0-0.7,0-1.2,0c0-0.3-0.1-0.7-0.3-1c0.4,0,0.7,0,0.9,0c0.1,0,0.2,0,0.3-0.1c0.1-0.1,0.1-0.4,0.2-0.9h-1.4
			c-0.2,1-0.7,1.8-2,2.2h4.3v3h-4.5v-2.9l0,0c-0.1-0.2-0.3-0.6-0.6-0.8v3.4h-2.1V-118.7z M-131.3-124v1.3h1v-1.3H-131.3z
			 M-130.4-120.3v-1.5h-1v1.5H-130.4z M-128.9-118.4c0.1,0.7,0.2,1.5,0.3,2l-1.2,0.2c0-0.5-0.1-1.4-0.2-2.1L-128.9-118.4z
			 M-126.8-118.5c0.2,0.6,0.5,1.5,0.6,2l-1.2,0.2c-0.1-0.5-0.3-1.4-0.5-2.1L-126.8-118.5z M-127.6-119.8h2.2v-1.1h-2.2V-119.8z
			 M-124.8-118.7c0.4,0.6,0.9,1.5,1.2,2.1l-1.2,0.5c-0.2-0.6-0.7-1.5-1.1-2.2L-124.8-118.7z"/>
		<path class="st14" d="M-120.2-121.7c0.4,0.4,1.2,1.4,1.4,1.7l-0.7,0.9c-0.2-0.3-0.4-0.8-0.7-1.2v4.2h-1.1v-3.9
			c-0.3,0.9-0.7,1.7-1.1,2.2c-0.1-0.3-0.4-0.8-0.6-1.1c0.7-0.8,1.2-2.2,1.6-3.4h-1.3v-1.1h1.4v-2h1.1v2h1.3v1.1h-1.3V-121.7z
			 M-113.9-124.9v8.7h-1.2v-0.6h-2.4v0.6h-1.1v-8.7H-113.9z M-117.5-123.8v1.2h2.4v-1.2H-117.5z M-117.5-121.5v1.3h2.4v-1.3H-117.5z
			 M-115.1-117.9v-1.3h-2.4v1.3H-115.1z"/>
		<path class="st14" d="M-105.4-120.7v4.6h-1.3v-3.4h-3.7c-0.2,1.2-0.6,2.4-1.5,3.4c-0.2-0.3-0.6-0.7-0.9-0.9
			c1.2-1.4,1.4-3.2,1.4-4.9v-3.4h1.2v2.1h3.2v-2.3h1.2v3.5h-4.5v0.1c0,0.4,0,0.8,0,1.2H-105.4z"/>
	</g>
</g>
</svg>
