<svg id="圖層_1" data-name="圖層 1" xmlns="http://www.w3.org/2000/svg" viewBox="0 0 370 370"><defs><style>.cls-1{fill:none;stroke:#354575;stroke-linecap:round;stroke-linejoin:round;stroke-width:13px;}</style></defs><title>190104_button</title><circle class="cls-1" cx="253.83" cy="120.25" r="43.6"/><circle class="cls-1" cx="117.17" cy="120.25" r="43.6"/><path class="cls-1" d="M113.82,181.87h6.69a75.55,75.55,0,0,1,75.55,75.55v24.81a0,0,0,0,1,0,0H38.27a0,0,0,0,1,0,0V257.42A75.55,75.55,0,0,1,113.82,181.87Z"/><path class="cls-1" d="M257.18,181.87h-6.69a75.22,75.22,0,0,0-50,18.92c15.67,13.84,21.56,34.07,21.56,56.63v24.81H332.73V257.42A75.54,75.54,0,0,0,257.18,181.87Z"/></svg>