<svg id="圖層_1" data-name="圖層 1" xmlns="http://www.w3.org/2000/svg" viewBox="0 0 370 370"><defs><style>.cls-1{fill:none;stroke:#354575;stroke-linecap:round;stroke-linejoin:round;stroke-width:13px;}.cls-2{fill:#354575;}</style></defs><title>190104_button</title><path class="cls-1" d="M200,285.19A113.89,113.89,0,1,1,272.2,213"/><path class="cls-1" d="M197.69,274c-9.79,10.79-21.33,17-33.69,17-35.38,0-64.07-51-64.07-114S128.62,63,164,63s64.07,51,64.07,114a197,197,0,0,1-3.26,36"/><line class="cls-1" x1="164" y1="63" x2="164" y2="291"/><line class="cls-1" x1="65.07" y1="120" x2="262.93" y2="120"/><line class="cls-1" x1="50" y1="177" x2="278" y2="177"/><line class="cls-1" x1="65.07" y1="234" x2="198" y2="234"/><path class="cls-2" d="M314,208H197.69a5,5,0,0,0-5,5v93a5,5,0,0,0,5,5H314a5,5,0,0,0,5-5V213A5,5,0,0,0,314,208Zm-79.71,81.73a4,4,0,0,1-4,4h-16a4,4,0,0,1-4-4V265.27a4,4,0,0,1,4-4h16a4,4,0,0,1,4,4Zm33.54-.15a4,4,0,0,1-4,4h-16a4,4,0,0,1-4-4V250.42a4,4,0,0,1,4-4h16a4,4,0,0,1,4,4Zm33.54.26a4,4,0,0,1-4,4h-16a4,4,0,0,1-4-4V275.16a4,4,0,0,1,4-4h16a4,4,0,0,1,4,4Z"/></svg>