<svg id="圖層_1" data-name="圖層 1" xmlns="http://www.w3.org/2000/svg" viewBox="0 0 370 370"><defs><style>.cls-1{fill:none;stroke:#fff;stroke-linecap:round;stroke-linejoin:round;stroke-width:7px;}</style></defs><title>190104_button</title><circle class="cls-1" cx="255.91" cy="118.59" r="45.58"/><circle class="cls-1" cx="114.09" cy="121.51" r="45.58"/><path class="cls-1" d="M110.59,182h7a79,79,0,0,1,79,79v25.93a0,0,0,0,1,0,0H31.62a0,0,0,0,1,0,0V260.93A79,79,0,0,1,110.59,182Z"/><path class="cls-1" d="M259.41,179h-7a78.72,78.72,0,0,0-55.53,22.82A96.67,96.67,0,0,1,214.79,258V284H338.38V258A79,79,0,0,0,259.41,179Z"/></svg>