<svg id="圖層_1" data-name="圖層 1" xmlns="http://www.w3.org/2000/svg" viewBox="0 0 840 980"><title>181106</title><circle cx="831.4" cy="971.7" r="9.8"/><circle cx="831.48" cy="931.73" r="8.79"/><circle cx="831.49" cy="891.77" r="7.93"/><circle cx="831.47" cy="851.8" r="6.79"/><circle cx="831.47" cy="811.78" r="5.98"/><circle cx="832.49" cy="771.77" r="4.29"/><circle cx="832.47" cy="731.8" r="1.98"/><circle cx="811.47" cy="951.77" r="9.61"/><circle cx="811.47" cy="911.8" r="8.41"/><circle cx="811.47" cy="871.77" r="7.59"/><circle cx="811.47" cy="831.76" r="6.45"/><circle cx="812.45" cy="791.82" r="5.13"/><circle cx="812.48" cy="751.75" r="3.42"/><circle cx="812.44" cy="711.81" r="1.14"/><circle cx="791.38" cy="971.7" r="9.8"/><circle cx="791.46" cy="931.73" r="8.79"/><circle cx="791.47" cy="891.77" r="7.93"/><circle cx="791.45" cy="851.8" r="6.79"/><circle cx="791.45" cy="811.78" r="5.98"/><circle cx="792.47" cy="771.77" r="4.29"/><circle cx="792.45" cy="731.8" r="1.98"/><circle cx="771.45" cy="951.77" r="9.61"/><circle cx="771.45" cy="911.8" r="8.41"/><circle cx="771.45" cy="871.77" r="7.59"/><circle cx="771.45" cy="831.76" r="6.45"/><circle cx="772.43" cy="791.82" r="5.13"/><circle cx="772.46" cy="751.75" r="3.42"/><circle cx="772.43" cy="711.81" r="1.14"/><circle cx="751.36" cy="971.7" r="9.8"/><circle cx="751.44" cy="931.73" r="8.79"/><circle cx="751.45" cy="891.77" r="7.93"/><circle cx="751.43" cy="851.8" r="6.79"/><circle cx="751.43" cy="811.78" r="5.98"/><circle cx="752.45" cy="771.77" r="4.29"/><circle cx="752.43" cy="731.8" r="1.98"/><circle cx="731.43" cy="951.77" r="9.61"/><circle cx="731.43" cy="911.8" r="8.41"/><circle cx="731.43" cy="871.77" r="7.59"/><circle cx="731.43" cy="831.76" r="6.45"/><circle cx="732.41" cy="791.82" r="5.13"/><circle cx="732.44" cy="751.75" r="3.42"/><circle cx="732.41" cy="711.81" r="1.14"/><circle cx="711.34" cy="971.7" r="9.8"/><circle cx="711.43" cy="931.73" r="8.79"/><circle cx="711.43" cy="891.77" r="7.93"/><circle cx="711.41" cy="851.8" r="6.79"/><circle cx="711.42" cy="811.78" r="5.98"/><circle cx="712.43" cy="771.77" r="4.29"/><circle cx="712.42" cy="731.8" r="1.98"/><circle cx="691.41" cy="951.77" r="9.61"/><circle cx="691.41" cy="911.8" r="8.41"/><circle cx="691.41" cy="871.77" r="7.59"/><circle cx="691.41" cy="831.76" r="6.45"/><circle cx="692.4" cy="791.82" r="5.13"/><circle cx="692.42" cy="751.75" r="3.42"/><circle cx="692.39" cy="711.81" r="1.14"/><circle cx="671.32" cy="971.7" r="9.8"/><circle cx="671.41" cy="931.73" r="8.79"/><circle cx="671.41" cy="891.77" r="7.93"/><circle cx="671.39" cy="851.8" r="6.79"/><circle cx="671.4" cy="811.78" r="5.98"/><circle cx="672.41" cy="771.77" r="4.29"/><circle cx="672.4" cy="731.8" r="1.98"/><circle cx="651.4" cy="951.77" r="9.61"/><circle cx="651.4" cy="911.8" r="8.41"/><circle cx="651.4" cy="871.77" r="7.59"/><circle cx="651.4" cy="831.76" r="6.45"/><circle cx="652.38" cy="791.82" r="5.13"/><circle cx="652.4" cy="751.75" r="3.42"/><circle cx="652.37" cy="711.81" r="1.14"/><circle cx="631.3" cy="971.7" r="9.8"/><circle cx="631.39" cy="931.73" r="8.79"/><circle cx="631.39" cy="891.77" r="7.93"/><circle cx="631.38" cy="851.8" r="6.79"/><circle cx="631.38" cy="811.78" r="5.98"/><circle cx="632.39" cy="771.77" r="4.29"/><circle cx="632.38" cy="731.8" r="1.98"/><circle cx="611.38" cy="951.77" r="9.61"/><circle cx="611.38" cy="911.8" r="8.41"/><circle cx="611.38" cy="871.77" r="7.59"/><circle cx="611.38" cy="831.76" r="6.45"/><circle cx="612.36" cy="791.82" r="5.13"/><circle cx="612.39" cy="751.75" r="3.42"/><circle cx="612.35" cy="711.81" r="1.14"/><circle cx="591.28" cy="971.7" r="9.8"/><circle cx="591.37" cy="931.73" r="8.79"/><circle cx="591.37" cy="891.77" r="7.93"/><circle cx="591.36" cy="851.8" r="6.79"/><circle cx="591.36" cy="811.78" r="5.98"/><circle cx="592.37" cy="771.77" r="4.29"/><circle cx="592.36" cy="731.8" r="1.98"/><circle cx="571.36" cy="951.77" r="9.61"/><circle cx="571.36" cy="911.8" r="8.41"/><circle cx="571.36" cy="871.77" r="7.59"/><circle cx="571.36" cy="831.76" r="6.45"/><circle cx="572.34" cy="791.82" r="5.13"/><circle cx="572.37" cy="751.75" r="3.42"/><circle cx="572.33" cy="711.81" r="1.14"/><circle cx="551.26" cy="971.7" r="9.8"/><circle cx="551.35" cy="931.73" r="8.79"/><circle cx="551.35" cy="891.77" r="7.93"/><circle cx="551.34" cy="851.8" r="6.79"/><circle cx="551.34" cy="811.78" r="5.98"/><circle cx="552.35" cy="771.77" r="4.29"/><circle cx="552.34" cy="731.8" r="1.98"/><circle cx="531.34" cy="951.77" r="9.61"/><circle cx="531.34" cy="911.8" r="8.41"/><circle cx="531.34" cy="871.77" r="7.59"/><circle cx="531.34" cy="831.76" r="6.45"/><circle cx="532.32" cy="791.82" r="5.13"/><circle cx="532.35" cy="751.75" r="3.42"/><circle cx="532.31" cy="711.81" r="1.14"/><circle cx="511.25" cy="971.7" r="9.8"/><circle cx="511.33" cy="931.73" r="8.79"/><circle cx="511.33" cy="891.77" r="7.93"/><circle cx="511.32" cy="851.8" r="6.79"/><circle cx="511.32" cy="811.78" r="5.98"/><circle cx="512.33" cy="771.77" r="4.29"/><circle cx="512.32" cy="731.8" r="1.98"/><circle cx="491.32" cy="951.77" r="9.61"/><circle cx="491.32" cy="911.8" r="8.41"/><circle cx="491.32" cy="871.77" r="7.59"/><circle cx="491.32" cy="831.76" r="6.45"/><circle cx="492.3" cy="791.82" r="5.13"/><circle cx="492.33" cy="751.75" r="3.42"/><circle cx="492.29" cy="711.81" r="1.14"/><circle cx="471.23" cy="971.7" r="9.8"/><circle cx="471.31" cy="931.73" r="8.79"/><circle cx="471.31" cy="891.77" r="7.93"/><circle cx="471.3" cy="851.8" r="6.79"/><circle cx="471.3" cy="811.78" r="5.98"/><circle cx="472.31" cy="771.77" r="4.29"/><circle cx="472.3" cy="731.8" r="1.98"/><circle cx="451.3" cy="951.77" r="9.61"/><circle cx="451.3" cy="911.8" r="8.41"/><circle cx="451.3" cy="871.77" r="7.59"/><circle cx="451.3" cy="831.76" r="6.45"/><circle cx="452.28" cy="791.82" r="5.13"/><circle cx="452.31" cy="751.75" r="3.42"/><circle cx="452.27" cy="711.81" r="1.14"/><circle cx="431.21" cy="971.7" r="9.8"/><circle cx="431.29" cy="931.73" r="8.79"/><circle cx="431.29" cy="891.77" r="7.93"/><circle cx="431.28" cy="851.8" r="6.79"/><circle cx="431.28" cy="811.78" r="5.98"/><circle cx="432.3" cy="771.77" r="4.29"/><circle cx="432.28" cy="731.8" r="1.98"/><circle cx="411.28" cy="951.77" r="9.61"/><circle cx="411.28" cy="911.8" r="8.41"/><circle cx="411.28" cy="871.77" r="7.59"/><circle cx="411.28" cy="831.76" r="6.45"/><circle cx="412.26" cy="791.82" r="5.13"/><circle cx="412.29" cy="751.75" r="3.42"/><circle cx="412.25" cy="711.81" r="1.14"/><circle cx="391.19" cy="971.7" r="9.8"/><circle cx="391.27" cy="931.73" r="8.79"/><circle cx="391.28" cy="891.77" r="7.93"/><circle cx="391.26" cy="851.8" r="6.79"/><circle cx="391.26" cy="811.78" r="5.98"/><circle cx="392.28" cy="771.77" r="4.29"/><circle cx="392.26" cy="731.8" r="1.98"/><circle cx="371.26" cy="951.77" r="9.61"/><circle cx="371.26" cy="911.8" r="8.41"/><circle cx="371.26" cy="871.77" r="7.59"/><circle cx="371.26" cy="831.76" r="6.45"/><circle cx="372.24" cy="791.82" r="5.13"/><circle cx="372.27" cy="751.75" r="3.42"/><circle cx="372.23" cy="711.81" r="1.14"/><circle cx="351.17" cy="971.7" r="9.8"/><circle cx="351.25" cy="931.73" r="8.79"/><circle cx="351.26" cy="891.77" r="7.93"/><circle cx="351.24" cy="851.8" r="6.79"/><circle cx="351.24" cy="811.78" r="5.98"/><circle cx="352.26" cy="771.77" r="4.29"/><circle cx="352.24" cy="731.8" r="1.98"/><circle cx="331.24" cy="951.77" r="9.61"/><circle cx="331.24" cy="911.8" r="8.41"/><circle cx="331.24" cy="871.77" r="7.59"/><circle cx="331.24" cy="831.76" r="6.45"/><circle cx="332.22" cy="791.82" r="5.13"/><circle cx="332.25" cy="751.75" r="3.42"/><circle cx="332.22" cy="711.81" r="1.14"/><circle cx="311.15" cy="971.7" r="9.8"/><circle cx="311.23" cy="931.73" r="8.79"/><circle cx="311.24" cy="891.77" r="7.93"/><circle cx="311.22" cy="851.8" r="6.79"/><circle cx="311.22" cy="811.78" r="5.98"/><circle cx="312.24" cy="771.77" r="4.29"/><circle cx="312.22" cy="731.8" r="1.98"/><circle cx="291.22" cy="951.77" r="9.61"/><circle cx="291.22" cy="911.8" r="8.41"/><circle cx="291.22" cy="871.77" r="7.59"/><circle cx="291.22" cy="831.76" r="6.45"/><circle cx="292.2" cy="791.82" r="5.13"/><circle cx="292.23" cy="751.75" r="3.42"/><circle cx="292.2" cy="711.81" r="1.14"/><circle cx="271.13" cy="971.7" r="9.8"/><circle cx="271.22" cy="931.73" r="8.79"/><circle cx="271.22" cy="891.77" r="7.93"/><circle cx="271.2" cy="851.8" r="6.79"/><circle cx="271.21" cy="811.78" r="5.98"/><circle cx="272.22" cy="771.77" r="4.29"/><circle cx="272.21" cy="731.8" r="1.98"/><circle cx="251.2" cy="951.77" r="9.61"/><circle cx="251.2" cy="911.8" r="8.41"/><circle cx="251.2" cy="871.77" r="7.59"/><circle cx="251.2" cy="831.76" r="6.45"/><circle cx="252.19" cy="791.82" r="5.13"/><circle cx="252.21" cy="751.75" r="3.42"/><circle cx="252.18" cy="711.81" r="1.14"/><circle cx="231.11" cy="971.7" r="9.8"/><circle cx="231.2" cy="931.73" r="8.79"/><circle cx="231.2" cy="891.77" r="7.93"/><circle cx="231.18" cy="851.8" r="6.79"/><circle cx="231.19" cy="811.78" r="5.98"/><circle cx="232.2" cy="771.77" r="4.29"/><circle cx="232.19" cy="731.8" r="1.98"/><circle cx="211.19" cy="951.77" r="9.61"/><circle cx="211.19" cy="911.8" r="8.41"/><circle cx="211.19" cy="871.77" r="7.59"/><circle cx="211.19" cy="831.76" r="6.45"/><circle cx="212.17" cy="791.82" r="5.13"/><circle cx="212.19" cy="751.75" r="3.42"/><circle cx="212.16" cy="711.81" r="1.14"/><circle cx="191.09" cy="971.7" r="9.8"/><circle cx="191.18" cy="931.73" r="8.79"/><circle cx="191.18" cy="891.77" r="7.93"/><circle cx="191.17" cy="851.8" r="6.79"/><circle cx="191.17" cy="811.78" r="5.98"/><circle cx="192.18" cy="771.77" r="4.29"/><circle cx="192.17" cy="731.8" r="1.98"/><circle cx="171.17" cy="951.77" r="9.61"/><circle cx="171.17" cy="911.8" r="8.41"/><circle cx="171.17" cy="871.77" r="7.59"/><circle cx="171.17" cy="831.76" r="6.45"/><circle cx="172.15" cy="791.82" r="5.13"/><circle cx="172.18" cy="751.75" r="3.42"/><circle cx="172.14" cy="711.81" r="1.14"/><circle cx="151.07" cy="971.7" r="9.8"/><circle cx="151.16" cy="931.73" r="8.79"/><circle cx="151.16" cy="891.77" r="7.93"/><circle cx="151.15" cy="851.8" r="6.79"/><circle cx="151.15" cy="811.78" r="5.98"/><circle cx="152.16" cy="771.77" r="4.29"/><circle cx="152.15" cy="731.8" r="1.98"/><circle cx="131.15" cy="951.77" r="9.61"/><circle cx="131.15" cy="911.8" r="8.41"/><circle cx="131.15" cy="871.77" r="7.59"/><circle cx="131.15" cy="831.76" r="6.45"/><circle cx="132.13" cy="791.82" r="5.13"/><circle cx="132.16" cy="751.75" r="3.42"/><circle cx="132.12" cy="711.81" r="1.14"/><circle cx="111.05" cy="971.7" r="9.8"/><circle cx="111.14" cy="931.73" r="8.79"/><circle cx="111.14" cy="891.77" r="7.93"/><circle cx="111.13" cy="851.8" r="6.79"/><circle cx="111.13" cy="811.78" r="5.98"/><circle cx="112.14" cy="771.77" r="4.29"/><circle cx="112.13" cy="731.8" r="1.98"/><circle cx="91.13" cy="951.77" r="9.61"/><circle cx="91.13" cy="911.8" r="8.41"/><circle cx="91.13" cy="871.77" r="7.59"/><circle cx="91.13" cy="831.76" r="6.45"/><circle cx="92.11" cy="791.82" r="5.13"/><circle cx="92.14" cy="751.75" r="3.42"/><circle cx="92.1" cy="711.81" r="1.14"/><circle cx="71.04" cy="971.7" r="9.8"/><circle cx="71.12" cy="931.73" r="8.79"/><circle cx="71.12" cy="891.77" r="7.93"/><circle cx="71.11" cy="851.8" r="6.79"/><circle cx="71.11" cy="811.78" r="5.98"/><circle cx="72.12" cy="771.77" r="4.29"/><circle cx="72.11" cy="731.8" r="1.98"/><circle cx="51.11" cy="951.77" r="9.61"/><circle cx="51.11" cy="911.8" r="8.41"/><circle cx="51.11" cy="871.77" r="7.59"/><circle cx="51.11" cy="831.76" r="6.45"/><circle cx="52.09" cy="791.82" r="5.13"/><circle cx="52.12" cy="751.75" r="3.42"/><circle cx="52.08" cy="711.81" r="1.14"/><circle cx="31.02" cy="971.7" r="9.8"/><circle cx="31.1" cy="931.73" r="8.79"/><circle cx="31.1" cy="891.77" r="7.93"/><circle cx="31.09" cy="851.8" r="6.79"/><circle cx="31.09" cy="811.78" r="5.98"/><circle cx="32.1" cy="771.77" r="4.29"/><circle cx="32.09" cy="731.8" r="1.98"/><circle cx="11.09" cy="951.77" r="9.61"/><circle cx="11.09" cy="911.8" r="8.41"/><circle cx="11.09" cy="871.77" r="7.59"/><circle cx="11.09" cy="831.76" r="6.45"/><circle cx="12.07" cy="791.82" r="5.13"/><circle cx="12.1" cy="751.75" r="3.42"/><circle cx="12.06" cy="711.81" r="1.14"/><circle cx="-9" cy="971.7" r="9.8"/></svg>