<svg id="圖層_1" data-name="圖層 1" xmlns="http://www.w3.org/2000/svg" viewBox="0 0 1920 1080"><title>工作區域 45</title><circle cx="1918.51" cy="1070.2" r="9.8"/><circle cx="1918.59" cy="1030.22" r="8.79"/><circle cx="1918.6" cy="990.26" r="7.93"/><circle cx="1918.58" cy="950.29" r="6.79"/><circle cx="1918.58" cy="910.27" r="5.98"/><circle cx="1919.6" cy="870.26" r="4.29"/><circle cx="1919.58" cy="830.29" r="1.98"/><circle cx="1898.58" cy="1050.26" r="9.61"/><circle cx="1898.58" cy="1010.29" r="8.41"/><circle cx="1898.58" cy="970.26" r="7.59"/><circle cx="1898.58" cy="930.25" r="6.45"/><circle cx="1899.56" cy="890.32" r="5.13"/><circle cx="1899.59" cy="850.24" r="3.42"/><circle cx="1899.55" cy="810.3" r="1.14"/><circle cx="1878.49" cy="1070.2" r="9.8"/><circle cx="1878.57" cy="1030.22" r="8.79"/><circle cx="1878.58" cy="990.26" r="7.93"/><circle cx="1878.56" cy="950.29" r="6.79"/><circle cx="1878.56" cy="910.27" r="5.98"/><circle cx="1879.58" cy="870.26" r="4.29"/><circle cx="1879.56" cy="830.29" r="1.98"/><circle cx="1858.56" cy="1050.26" r="9.61"/><circle cx="1858.56" cy="1010.29" r="8.41"/><circle cx="1858.56" cy="970.26" r="7.59"/><circle cx="1858.56" cy="930.25" r="6.45"/><circle cx="1859.54" cy="890.32" r="5.13"/><circle cx="1859.57" cy="850.24" r="3.42"/><circle cx="1859.54" cy="810.3" r="1.14"/><circle cx="1838.47" cy="1070.2" r="9.8"/><circle cx="1838.55" cy="1030.22" r="8.79"/><circle cx="1838.56" cy="990.26" r="7.93"/><circle cx="1838.54" cy="950.29" r="6.79"/><circle cx="1838.54" cy="910.27" r="5.98"/><circle cx="1839.56" cy="870.26" r="4.29"/><circle cx="1839.54" cy="830.29" r="1.98"/><circle cx="1818.54" cy="1050.26" r="9.61"/><circle cx="1818.54" cy="1010.29" r="8.41"/><circle cx="1818.54" cy="970.26" r="7.59"/><circle cx="1818.54" cy="930.25" r="6.45"/><circle cx="1819.52" cy="890.32" r="5.13"/><circle cx="1819.55" cy="850.24" r="3.42"/><circle cx="1819.52" cy="810.3" r="1.14"/><circle cx="1798.45" cy="1070.2" r="9.8"/><circle cx="1798.54" cy="1030.22" r="8.79"/><circle cx="1798.54" cy="990.26" r="7.93"/><circle cx="1798.52" cy="950.29" r="6.79"/><circle cx="1798.53" cy="910.27" r="5.98"/><circle cx="1799.54" cy="870.26" r="4.29"/><circle cx="1799.53" cy="830.29" r="1.98"/><circle cx="1778.52" cy="1050.26" r="9.61"/><circle cx="1778.52" cy="1010.29" r="8.41"/><circle cx="1778.52" cy="970.26" r="7.59"/><circle cx="1778.52" cy="930.25" r="6.45"/><circle cx="1779.51" cy="890.32" r="5.13"/><circle cx="1779.53" cy="850.24" r="3.42"/><circle cx="1779.5" cy="810.3" r="1.14"/><circle cx="1758.43" cy="1070.2" r="9.8"/><circle cx="1758.52" cy="1030.22" r="8.79"/><circle cx="1758.52" cy="990.26" r="7.93"/><circle cx="1758.5" cy="950.29" r="6.79"/><circle cx="1758.51" cy="910.27" r="5.98"/><circle cx="1759.52" cy="870.26" r="4.29"/><circle cx="1759.51" cy="830.29" r="1.98"/><circle cx="1738.51" cy="1050.26" r="9.61"/><circle cx="1738.51" cy="1010.29" r="8.41"/><circle cx="1738.51" cy="970.26" r="7.59"/><circle cx="1738.51" cy="930.25" r="6.45"/><circle cx="1739.49" cy="890.32" r="5.13"/><circle cx="1739.51" cy="850.24" r="3.42"/><circle cx="1739.48" cy="810.3" r="1.14"/><circle cx="1718.41" cy="1070.2" r="9.8"/><circle cx="1718.5" cy="1030.22" r="8.79"/><circle cx="1718.5" cy="990.26" r="7.93"/><circle cx="1718.49" cy="950.29" r="6.79"/><circle cx="1718.49" cy="910.27" r="5.98"/><circle cx="1719.5" cy="870.26" r="4.29"/><circle cx="1719.49" cy="830.29" r="1.98"/><circle cx="1698.49" cy="1050.26" r="9.61"/><circle cx="1698.49" cy="1010.29" r="8.41"/><circle cx="1698.49" cy="970.26" r="7.59"/><circle cx="1698.49" cy="930.25" r="6.45"/><circle cx="1699.47" cy="890.32" r="5.13"/><circle cx="1699.5" cy="850.24" r="3.42"/><circle cx="1699.46" cy="810.3" r="1.14"/><circle cx="1678.39" cy="1070.2" r="9.8"/><circle cx="1678.48" cy="1030.22" r="8.79"/><circle cx="1678.48" cy="990.26" r="7.93"/><circle cx="1678.47" cy="950.29" r="6.79"/><circle cx="1678.47" cy="910.27" r="5.98"/><circle cx="1679.48" cy="870.26" r="4.29"/><circle cx="1679.47" cy="830.29" r="1.98"/><circle cx="1658.47" cy="1050.26" r="9.61"/><circle cx="1658.47" cy="1010.29" r="8.41"/><circle cx="1658.47" cy="970.26" r="7.59"/><circle cx="1658.47" cy="930.25" r="6.45"/><circle cx="1659.45" cy="890.32" r="5.13"/><circle cx="1659.48" cy="850.24" r="3.42"/><circle cx="1659.44" cy="810.3" r="1.14"/><circle cx="1638.37" cy="1070.2" r="9.8"/><circle cx="1638.46" cy="1030.22" r="8.79"/><circle cx="1638.46" cy="990.26" r="7.93"/><circle cx="1638.45" cy="950.29" r="6.79"/><circle cx="1638.45" cy="910.27" r="5.98"/><circle cx="1639.46" cy="870.26" r="4.29"/><circle cx="1639.45" cy="830.29" r="1.98"/><circle cx="1618.45" cy="1050.26" r="9.61"/><circle cx="1618.45" cy="1010.29" r="8.41"/><circle cx="1618.45" cy="970.26" r="7.59"/><circle cx="1618.45" cy="930.25" r="6.45"/><circle cx="1619.43" cy="890.32" r="5.13"/><circle cx="1619.46" cy="850.24" r="3.42"/><circle cx="1619.42" cy="810.3" r="1.14"/><circle cx="1598.36" cy="1070.2" r="9.8"/><circle cx="1598.44" cy="1030.22" r="8.79"/><circle cx="1598.44" cy="990.26" r="7.93"/><circle cx="1598.43" cy="950.29" r="6.79"/><circle cx="1598.43" cy="910.27" r="5.98"/><circle cx="1599.44" cy="870.26" r="4.29"/><circle cx="1599.43" cy="830.29" r="1.98"/><circle cx="1578.43" cy="1050.26" r="9.61"/><circle cx="1578.43" cy="1010.29" r="8.41"/><circle cx="1578.43" cy="970.26" r="7.59"/><circle cx="1578.43" cy="930.25" r="6.45"/><circle cx="1579.41" cy="890.32" r="5.13"/><circle cx="1579.44" cy="850.24" r="3.42"/><circle cx="1579.4" cy="810.3" r="1.14"/><circle cx="1558.34" cy="1070.2" r="9.8"/><circle cx="1558.42" cy="1030.22" r="8.79"/><circle cx="1558.42" cy="990.26" r="7.93"/><circle cx="1558.41" cy="950.29" r="6.79"/><circle cx="1558.41" cy="910.27" r="5.98"/><circle cx="1559.42" cy="870.26" r="4.29"/><circle cx="1559.41" cy="830.29" r="1.98"/><circle cx="1538.41" cy="1050.26" r="9.61"/><circle cx="1538.41" cy="1010.29" r="8.41"/><circle cx="1538.41" cy="970.26" r="7.59"/><circle cx="1538.41" cy="930.25" r="6.45"/><circle cx="1539.39" cy="890.32" r="5.13"/><circle cx="1539.42" cy="850.24" r="3.42"/><circle cx="1539.38" cy="810.3" r="1.14"/><circle cx="1518.32" cy="1070.2" r="9.8"/><circle cx="1518.4" cy="1030.22" r="8.79"/><circle cx="1518.4" cy="990.26" r="7.93"/><circle cx="1518.39" cy="950.29" r="6.79"/><circle cx="1518.39" cy="910.27" r="5.98"/><circle cx="1519.41" cy="870.26" r="4.29"/><circle cx="1519.39" cy="830.29" r="1.98"/><circle cx="1498.39" cy="1050.26" r="9.61"/><circle cx="1498.39" cy="1010.29" r="8.41"/><circle cx="1498.39" cy="970.26" r="7.59"/><circle cx="1498.39" cy="930.25" r="6.45"/><circle cx="1499.37" cy="890.32" r="5.13"/><circle cx="1499.4" cy="850.24" r="3.42"/><circle cx="1499.36" cy="810.3" r="1.14"/><circle cx="1478.3" cy="1070.2" r="9.8"/><circle cx="1478.38" cy="1030.22" r="8.79"/><circle cx="1478.39" cy="990.26" r="7.93"/><circle cx="1478.37" cy="950.29" r="6.79"/><circle cx="1478.37" cy="910.27" r="5.98"/><circle cx="1479.39" cy="870.26" r="4.29"/><circle cx="1479.37" cy="830.29" r="1.98"/><circle cx="1458.37" cy="1050.26" r="9.61"/><circle cx="1458.37" cy="1010.29" r="8.41"/><circle cx="1458.37" cy="970.26" r="7.59"/><circle cx="1458.37" cy="930.25" r="6.45"/><circle cx="1459.35" cy="890.32" r="5.13"/><circle cx="1459.38" cy="850.24" r="3.42"/><circle cx="1459.34" cy="810.3" r="1.14"/><circle cx="1438.28" cy="1070.2" r="9.8"/><circle cx="1438.36" cy="1030.22" r="8.79"/><circle cx="1438.37" cy="990.26" r="7.93"/><circle cx="1438.35" cy="950.29" r="6.79"/><circle cx="1438.35" cy="910.27" r="5.98"/><circle cx="1439.37" cy="870.26" r="4.29"/><circle cx="1439.35" cy="830.29" r="1.98"/><circle cx="1418.35" cy="1050.26" r="9.61"/><circle cx="1418.35" cy="1010.29" r="8.41"/><circle cx="1418.35" cy="970.26" r="7.59"/><circle cx="1418.35" cy="930.25" r="6.45"/><circle cx="1419.33" cy="890.32" r="5.13"/><circle cx="1419.36" cy="850.24" r="3.42"/><circle cx="1419.33" cy="810.3" r="1.14"/><circle cx="1398.26" cy="1070.2" r="9.8"/><circle cx="1398.34" cy="1030.22" r="8.79"/><circle cx="1398.35" cy="990.26" r="7.93"/><circle cx="1398.33" cy="950.29" r="6.79"/><circle cx="1398.33" cy="910.27" r="5.98"/><circle cx="1399.35" cy="870.26" r="4.29"/><circle cx="1399.33" cy="830.29" r="1.98"/><circle cx="1378.33" cy="1050.26" r="9.61"/><circle cx="1378.33" cy="1010.29" r="8.41"/><circle cx="1378.33" cy="970.26" r="7.59"/><circle cx="1378.33" cy="930.25" r="6.45"/><circle cx="1379.31" cy="890.32" r="5.13"/><circle cx="1379.34" cy="850.24" r="3.42"/><circle cx="1379.31" cy="810.3" r="1.14"/><circle cx="1358.24" cy="1070.2" r="9.8"/><circle cx="1358.33" cy="1030.22" r="8.79"/><circle cx="1358.33" cy="990.26" r="7.93"/><circle cx="1358.31" cy="950.29" r="6.79"/><circle cx="1358.32" cy="910.27" r="5.98"/><circle cx="1359.33" cy="870.26" r="4.29"/><circle cx="1359.32" cy="830.29" r="1.98"/><circle cx="1338.31" cy="1050.26" r="9.61"/><circle cx="1338.31" cy="1010.29" r="8.41"/><circle cx="1338.31" cy="970.26" r="7.59"/><circle cx="1338.31" cy="930.25" r="6.45"/><circle cx="1339.3" cy="890.32" r="5.13"/><circle cx="1339.32" cy="850.24" r="3.42"/><circle cx="1339.29" cy="810.3" r="1.14"/><circle cx="1318.22" cy="1070.2" r="9.8"/><circle cx="1318.31" cy="1030.22" r="8.79"/><circle cx="1318.31" cy="990.26" r="7.93"/><circle cx="1318.29" cy="950.29" r="6.79"/><circle cx="1318.3" cy="910.27" r="5.98"/><circle cx="1319.31" cy="870.26" r="4.29"/><circle cx="1319.3" cy="830.29" r="1.98"/><circle cx="1298.3" cy="1050.26" r="9.61"/><circle cx="1298.3" cy="1010.29" r="8.41"/><circle cx="1298.3" cy="970.26" r="7.59"/><circle cx="1298.3" cy="930.25" r="6.45"/><circle cx="1299.28" cy="890.32" r="5.13"/><circle cx="1299.3" cy="850.24" r="3.42"/><circle cx="1299.27" cy="810.3" r="1.14"/><circle cx="1278.2" cy="1070.2" r="9.8"/><circle cx="1278.29" cy="1030.22" r="8.79"/><circle cx="1278.29" cy="990.26" r="7.93"/><circle cx="1278.28" cy="950.29" r="6.79"/><circle cx="1278.28" cy="910.27" r="5.98"/><circle cx="1279.29" cy="870.26" r="4.29"/><circle cx="1279.28" cy="830.29" r="1.98"/><circle cx="1258.28" cy="1050.26" r="9.61"/><circle cx="1258.28" cy="1010.29" r="8.41"/><circle cx="1258.28" cy="970.26" r="7.59"/><circle cx="1258.28" cy="930.25" r="6.45"/><circle cx="1259.26" cy="890.32" r="5.13"/><circle cx="1259.29" cy="850.24" r="3.42"/><circle cx="1259.25" cy="810.3" r="1.14"/><circle cx="1238.18" cy="1070.2" r="9.8"/><circle cx="1238.27" cy="1030.22" r="8.79"/><circle cx="1238.27" cy="990.26" r="7.93"/><circle cx="1238.26" cy="950.29" r="6.79"/><circle cx="1238.26" cy="910.27" r="5.98"/><circle cx="1239.27" cy="870.26" r="4.29"/><circle cx="1239.26" cy="830.29" r="1.98"/><circle cx="1218.26" cy="1050.26" r="9.61"/><circle cx="1218.26" cy="1010.29" r="8.41"/><circle cx="1218.26" cy="970.26" r="7.59"/><circle cx="1218.26" cy="930.25" r="6.45"/><circle cx="1219.24" cy="890.32" r="5.13"/><circle cx="1219.27" cy="850.24" r="3.42"/><circle cx="1219.23" cy="810.3" r="1.14"/><circle cx="1198.16" cy="1070.2" r="9.8"/><circle cx="1198.25" cy="1030.22" r="8.79"/><circle cx="1198.25" cy="990.26" r="7.93"/><circle cx="1198.24" cy="950.29" r="6.79"/><circle cx="1198.24" cy="910.27" r="5.98"/><circle cx="1199.25" cy="870.26" r="4.29"/><circle cx="1199.24" cy="830.29" r="1.98"/><circle cx="1178.24" cy="1050.26" r="9.61"/><circle cx="1178.24" cy="1010.29" r="8.41"/><circle cx="1178.24" cy="970.26" r="7.59"/><circle cx="1178.24" cy="930.25" r="6.45"/><circle cx="1179.22" cy="890.32" r="5.13"/><circle cx="1179.25" cy="850.24" r="3.42"/><circle cx="1179.21" cy="810.3" r="1.14"/><circle cx="1158.15" cy="1070.2" r="9.8"/><circle cx="1158.23" cy="1030.22" r="8.79"/><circle cx="1158.23" cy="990.26" r="7.93"/><circle cx="1158.22" cy="950.29" r="6.79"/><circle cx="1158.22" cy="910.27" r="5.98"/><circle cx="1159.23" cy="870.26" r="4.29"/><circle cx="1159.22" cy="830.29" r="1.98"/><circle cx="1138.22" cy="1050.26" r="9.61"/><circle cx="1138.22" cy="1010.29" r="8.41"/><circle cx="1138.22" cy="970.26" r="7.59"/><circle cx="1138.22" cy="930.25" r="6.45"/><circle cx="1139.2" cy="890.32" r="5.13"/><circle cx="1139.23" cy="850.24" r="3.42"/><circle cx="1139.19" cy="810.3" r="1.14"/><circle cx="1118.13" cy="1070.2" r="9.8"/><circle cx="1118.21" cy="1030.22" r="8.79"/><circle cx="1118.21" cy="990.26" r="7.93"/><circle cx="1118.2" cy="950.29" r="6.79"/><circle cx="1118.2" cy="910.27" r="5.98"/><circle cx="1119.21" cy="870.26" r="4.29"/><circle cx="1119.2" cy="830.29" r="1.98"/><circle cx="1098.2" cy="1050.26" r="9.61"/><circle cx="1098.2" cy="1010.29" r="8.41"/><circle cx="1098.2" cy="970.26" r="7.59"/><circle cx="1098.2" cy="930.25" r="6.45"/><circle cx="1099.18" cy="890.32" r="5.13"/><circle cx="1099.21" cy="850.24" r="3.42"/><circle cx="1099.17" cy="810.3" r="1.14"/><circle cx="1078.11" cy="1070.2" r="9.8"/><circle cx="1078.19" cy="1030.22" r="8.79"/><circle cx="1078.2" cy="990.26" r="7.93"/><circle cx="1078.18" cy="950.29" r="6.79"/><circle cx="1078.18" cy="910.27" r="5.98"/><circle cx="1079.2" cy="870.26" r="4.29"/><circle cx="1079.18" cy="830.29" r="1.98"/><circle cx="1058.18" cy="1050.26" r="9.61"/><circle cx="1058.18" cy="1010.29" r="8.41"/><circle cx="1058.18" cy="970.26" r="7.59"/><circle cx="1058.18" cy="930.25" r="6.45"/><circle cx="1059.16" cy="890.32" r="5.13"/><circle cx="1059.19" cy="850.24" r="3.42"/><circle cx="1059.15" cy="810.3" r="1.14"/><circle cx="1038.09" cy="1070.2" r="9.8"/><circle cx="1038.17" cy="1030.22" r="8.79"/><circle cx="1038.18" cy="990.26" r="7.93"/><circle cx="1038.16" cy="950.29" r="6.79"/><circle cx="1038.16" cy="910.27" r="5.98"/><circle cx="1039.18" cy="870.26" r="4.29"/><circle cx="1039.16" cy="830.29" r="1.98"/><circle cx="1018.16" cy="1050.26" r="9.61"/><circle cx="1018.16" cy="1010.29" r="8.41"/><circle cx="1018.16" cy="970.26" r="7.59"/><circle cx="1018.16" cy="930.25" r="6.45"/><circle cx="1019.14" cy="890.32" r="5.13"/><circle cx="1019.17" cy="850.24" r="3.42"/><circle cx="1019.13" cy="810.3" r="1.14"/><circle cx="998.07" cy="1070.2" r="9.8"/><circle cx="998.15" cy="1030.22" r="8.79"/><circle cx="998.16" cy="990.26" r="7.93"/><circle cx="998.14" cy="950.29" r="6.79"/><circle cx="998.14" cy="910.27" r="5.98"/><circle cx="999.16" cy="870.26" r="4.29"/><circle cx="999.14" cy="830.29" r="1.98"/><circle cx="978.14" cy="1050.26" r="9.61"/><circle cx="978.14" cy="1010.29" r="8.41"/><circle cx="978.14" cy="970.26" r="7.59"/><circle cx="978.14" cy="930.25" r="6.45"/><circle cx="979.12" cy="890.32" r="5.13"/><circle cx="979.15" cy="850.24" r="3.42"/><circle cx="979.12" cy="810.3" r="1.14"/><circle cx="958.05" cy="1070.2" r="9.8"/><circle cx="958.13" cy="1030.22" r="8.79"/><circle cx="958.14" cy="990.26" r="7.93"/><circle cx="958.12" cy="950.29" r="6.79"/><circle cx="958.12" cy="910.27" r="5.98"/><circle cx="959.14" cy="870.26" r="4.29"/><circle cx="959.12" cy="830.29" r="1.98"/><circle cx="938.12" cy="1050.26" r="9.61"/><circle cx="938.12" cy="1010.29" r="8.41"/><circle cx="938.12" cy="970.26" r="7.59"/><circle cx="938.12" cy="930.25" r="6.45"/><circle cx="939.1" cy="890.32" r="5.13"/><circle cx="939.13" cy="850.24" r="3.42"/><circle cx="939.1" cy="810.3" r="1.14"/><circle cx="918.03" cy="1070.2" r="9.8"/><circle cx="918.12" cy="1030.22" r="8.79"/><circle cx="918.12" cy="990.26" r="7.93"/><circle cx="918.1" cy="950.29" r="6.79"/><circle cx="918.11" cy="910.27" r="5.98"/><circle cx="919.12" cy="870.26" r="4.29"/><circle cx="919.11" cy="830.29" r="1.98"/><circle cx="898.1" cy="1050.26" r="9.61"/><circle cx="898.1" cy="1010.29" r="8.41"/><circle cx="898.1" cy="970.26" r="7.59"/><circle cx="898.1" cy="930.25" r="6.45"/><circle cx="899.09" cy="890.32" r="5.13"/><circle cx="899.11" cy="850.24" r="3.42"/><circle cx="899.08" cy="810.3" r="1.14"/><circle cx="878.01" cy="1070.2" r="9.8"/><circle cx="878.1" cy="1030.22" r="8.79"/><circle cx="878.1" cy="990.26" r="7.93"/><circle cx="878.08" cy="950.29" r="6.79"/><circle cx="878.09" cy="910.27" r="5.98"/><circle cx="879.1" cy="870.26" r="4.29"/><circle cx="879.09" cy="830.29" r="1.98"/><circle cx="858.09" cy="1050.26" r="9.61"/><circle cx="858.09" cy="1010.29" r="8.41"/><circle cx="858.09" cy="970.26" r="7.59"/><circle cx="858.09" cy="930.25" r="6.45"/><circle cx="859.07" cy="890.32" r="5.13"/><circle cx="859.09" cy="850.24" r="3.42"/><circle cx="859.06" cy="810.3" r="1.14"/><circle cx="837.99" cy="1070.2" r="9.8"/><circle cx="838.08" cy="1030.22" r="8.79"/><circle cx="838.08" cy="990.26" r="7.93"/><circle cx="838.07" cy="950.29" r="6.79"/><circle cx="838.07" cy="910.27" r="5.98"/><circle cx="839.08" cy="870.26" r="4.29"/><circle cx="839.07" cy="830.29" r="1.98"/><circle cx="818.07" cy="1050.26" r="9.61"/><circle cx="818.07" cy="1010.29" r="8.41"/><circle cx="818.07" cy="970.26" r="7.59"/><circle cx="818.07" cy="930.25" r="6.45"/><circle cx="819.05" cy="890.32" r="5.13"/><circle cx="819.08" cy="850.24" r="3.42"/><circle cx="819.04" cy="810.3" r="1.14"/><circle cx="797.97" cy="1070.2" r="9.8"/><circle cx="798.06" cy="1030.22" r="8.79"/><circle cx="798.06" cy="990.26" r="7.93"/><circle cx="798.05" cy="950.29" r="6.79"/><circle cx="798.05" cy="910.27" r="5.98"/><circle cx="799.06" cy="870.26" r="4.29"/><circle cx="799.05" cy="830.29" r="1.98"/><circle cx="778.05" cy="1050.26" r="9.61"/><circle cx="778.05" cy="1010.29" r="8.41"/><circle cx="778.05" cy="970.26" r="7.59"/><circle cx="778.05" cy="930.25" r="6.45"/><circle cx="779.03" cy="890.32" r="5.13"/><circle cx="779.06" cy="850.24" r="3.42"/><circle cx="779.02" cy="810.3" r="1.14"/><circle cx="757.95" cy="1070.2" r="9.8"/><circle cx="758.04" cy="1030.22" r="8.79"/><circle cx="758.04" cy="990.26" r="7.93"/><circle cx="758.03" cy="950.29" r="6.79"/><circle cx="758.03" cy="910.27" r="5.98"/><circle cx="759.04" cy="870.26" r="4.29"/><circle cx="759.03" cy="830.29" r="1.98"/><circle cx="738.03" cy="1050.26" r="9.61"/><circle cx="738.03" cy="1010.29" r="8.41"/><circle cx="738.03" cy="970.26" r="7.59"/><circle cx="738.03" cy="930.25" r="6.45"/><circle cx="739.01" cy="890.32" r="5.13"/><circle cx="739.04" cy="850.24" r="3.42"/><circle cx="739" cy="810.3" r="1.14"/><circle cx="717.94" cy="1070.2" r="9.8"/><circle cx="718.02" cy="1030.22" r="8.79"/><circle cx="718.02" cy="990.26" r="7.93"/><circle cx="718.01" cy="950.29" r="6.79"/><circle cx="718.01" cy="910.27" r="5.98"/><circle cx="719.02" cy="870.26" r="4.29"/><circle cx="719.01" cy="830.29" r="1.98"/><circle cx="698.01" cy="1050.26" r="9.61"/><circle cx="698.01" cy="1010.29" r="8.41"/><circle cx="698.01" cy="970.26" r="7.59"/><circle cx="698.01" cy="930.25" r="6.45"/><circle cx="698.99" cy="890.32" r="5.13"/><circle cx="699.02" cy="850.24" r="3.42"/><circle cx="698.98" cy="810.3" r="1.14"/><circle cx="677.92" cy="1070.2" r="9.8"/><circle cx="678" cy="1030.22" r="8.79"/><circle cx="678" cy="990.26" r="7.93"/><circle cx="677.99" cy="950.29" r="6.79"/><circle cx="677.99" cy="910.27" r="5.98"/><circle cx="679" cy="870.26" r="4.29"/><circle cx="678.99" cy="830.29" r="1.98"/><circle cx="657.99" cy="1050.26" r="9.61"/><circle cx="657.99" cy="1010.29" r="8.41"/><circle cx="657.99" cy="970.26" r="7.59"/><circle cx="657.99" cy="930.25" r="6.45"/><circle cx="658.97" cy="890.32" r="5.13"/><circle cx="659" cy="850.24" r="3.42"/><circle cx="658.96" cy="810.3" r="1.14"/><circle cx="637.9" cy="1070.2" r="9.8"/><circle cx="637.98" cy="1030.22" r="8.79"/><circle cx="637.99" cy="990.26" r="7.93"/><circle cx="637.97" cy="950.29" r="6.79"/><circle cx="637.97" cy="910.27" r="5.98"/><circle cx="638.99" cy="870.26" r="4.29"/><circle cx="638.97" cy="830.29" r="1.98"/><circle cx="617.97" cy="1050.26" r="9.61"/><circle cx="617.97" cy="1010.29" r="8.41"/><circle cx="617.97" cy="970.26" r="7.59"/><circle cx="617.97" cy="930.25" r="6.45"/><circle cx="618.95" cy="890.32" r="5.13"/><circle cx="618.98" cy="850.24" r="3.42"/><circle cx="618.94" cy="810.3" r="1.14"/><circle cx="597.88" cy="1070.2" r="9.8"/><circle cx="597.96" cy="1030.22" r="8.79"/><circle cx="597.97" cy="990.26" r="7.93"/><circle cx="597.95" cy="950.29" r="6.79"/><circle cx="597.95" cy="910.27" r="5.98"/><circle cx="598.97" cy="870.26" r="4.29"/><circle cx="598.95" cy="830.29" r="1.98"/><circle cx="577.95" cy="1050.26" r="9.61"/><circle cx="577.95" cy="1010.29" r="8.41"/><circle cx="577.95" cy="970.26" r="7.59"/><circle cx="577.95" cy="930.25" r="6.45"/><circle cx="578.93" cy="890.32" r="5.13"/><circle cx="578.96" cy="850.24" r="3.42"/><circle cx="578.92" cy="810.3" r="1.14"/><circle cx="557.86" cy="1070.2" r="9.8"/><circle cx="557.94" cy="1030.22" r="8.79"/><circle cx="557.95" cy="990.26" r="7.93"/><circle cx="557.93" cy="950.29" r="6.79"/><circle cx="557.93" cy="910.27" r="5.98"/><circle cx="558.95" cy="870.26" r="4.29"/><circle cx="558.93" cy="830.29" r="1.98"/><circle cx="537.93" cy="1050.26" r="9.61"/><circle cx="537.93" cy="1010.29" r="8.41"/><circle cx="537.93" cy="970.26" r="7.59"/><circle cx="537.93" cy="930.25" r="6.45"/><circle cx="538.91" cy="890.32" r="5.13"/><circle cx="538.94" cy="850.24" r="3.42"/><circle cx="538.91" cy="810.3" r="1.14"/><circle cx="517.84" cy="1070.2" r="9.8"/><circle cx="517.92" cy="1030.22" r="8.79"/><circle cx="517.93" cy="990.26" r="7.93"/><circle cx="517.91" cy="950.29" r="6.79"/><circle cx="517.91" cy="910.27" r="5.98"/><circle cx="518.93" cy="870.26" r="4.29"/><circle cx="518.91" cy="830.29" r="1.98"/><circle cx="497.91" cy="1050.26" r="9.61"/><circle cx="497.91" cy="1010.29" r="8.41"/><circle cx="497.91" cy="970.26" r="7.59"/><circle cx="497.91" cy="930.25" r="6.45"/><circle cx="498.89" cy="890.32" r="5.13"/><circle cx="498.92" cy="850.24" r="3.42"/><circle cx="498.89" cy="810.3" r="1.14"/><circle cx="477.82" cy="1070.2" r="9.8"/><circle cx="477.91" cy="1030.22" r="8.79"/><circle cx="477.91" cy="990.26" r="7.93"/><circle cx="477.89" cy="950.29" r="6.79"/><circle cx="477.9" cy="910.27" r="5.98"/><circle cx="478.91" cy="870.26" r="4.29"/><circle cx="478.9" cy="830.29" r="1.98"/><circle cx="457.89" cy="1050.26" r="9.61"/><circle cx="457.89" cy="1010.29" r="8.41"/><circle cx="457.89" cy="970.26" r="7.59"/><circle cx="457.89" cy="930.25" r="6.45"/><circle cx="458.88" cy="890.32" r="5.13"/><circle cx="458.9" cy="850.24" r="3.42"/><circle cx="458.87" cy="810.3" r="1.14"/><circle cx="437.8" cy="1070.2" r="9.8"/><circle cx="437.89" cy="1030.22" r="8.79"/><circle cx="437.89" cy="990.26" r="7.93"/><circle cx="437.88" cy="950.29" r="6.79"/><circle cx="437.88" cy="910.27" r="5.98"/><circle cx="438.89" cy="870.26" r="4.29"/><circle cx="438.88" cy="830.29" r="1.98"/><circle cx="417.88" cy="1050.26" r="9.61"/><circle cx="417.88" cy="1010.29" r="8.41"/><circle cx="417.88" cy="970.26" r="7.59"/><circle cx="417.88" cy="930.25" r="6.45"/><circle cx="418.86" cy="890.32" r="5.13"/><circle cx="418.88" cy="850.24" r="3.42"/><circle cx="418.85" cy="810.3" r="1.14"/><circle cx="397.78" cy="1070.2" r="9.8"/><circle cx="397.87" cy="1030.22" r="8.79"/><circle cx="397.87" cy="990.26" r="7.93"/><circle cx="397.86" cy="950.29" r="6.79"/><circle cx="397.86" cy="910.27" r="5.98"/><circle cx="398.87" cy="870.26" r="4.29"/><circle cx="398.86" cy="830.29" r="1.98"/><circle cx="377.86" cy="1050.26" r="9.61"/><circle cx="377.86" cy="1010.29" r="8.41"/><circle cx="377.86" cy="970.26" r="7.59"/><circle cx="377.86" cy="930.25" r="6.45"/><circle cx="378.84" cy="890.32" r="5.13"/><circle cx="378.87" cy="850.24" r="3.42"/><circle cx="378.83" cy="810.3" r="1.14"/><circle cx="357.76" cy="1070.2" r="9.8"/><circle cx="357.85" cy="1030.22" r="8.79"/><circle cx="357.85" cy="990.26" r="7.93"/><circle cx="357.84" cy="950.29" r="6.79"/><circle cx="357.84" cy="910.27" r="5.98"/><circle cx="358.85" cy="870.26" r="4.29"/><circle cx="358.84" cy="830.29" r="1.98"/><circle cx="337.84" cy="1050.26" r="9.61"/><circle cx="337.84" cy="1010.29" r="8.41"/><circle cx="337.84" cy="970.26" r="7.59"/><circle cx="337.84" cy="930.25" r="6.45"/><circle cx="338.82" cy="890.32" r="5.13"/><circle cx="338.85" cy="850.24" r="3.42"/><circle cx="338.81" cy="810.3" r="1.14"/><circle cx="317.74" cy="1070.2" r="9.8"/><circle cx="317.83" cy="1030.22" r="8.79"/><circle cx="317.83" cy="990.26" r="7.93"/><circle cx="317.82" cy="950.29" r="6.79"/><circle cx="317.82" cy="910.27" r="5.98"/><circle cx="318.83" cy="870.26" r="4.29"/><circle cx="318.82" cy="830.29" r="1.98"/><circle cx="297.82" cy="1050.26" r="9.61"/><circle cx="297.82" cy="1010.29" r="8.41"/><circle cx="297.82" cy="970.26" r="7.59"/><circle cx="297.82" cy="930.25" r="6.45"/><circle cx="298.8" cy="890.32" r="5.13"/><circle cx="298.83" cy="850.24" r="3.42"/><circle cx="298.79" cy="810.3" r="1.14"/><circle cx="277.73" cy="1070.2" r="9.8"/><circle cx="277.81" cy="1030.22" r="8.79"/><circle cx="277.81" cy="990.26" r="7.93"/><circle cx="277.8" cy="950.29" r="6.79"/><circle cx="277.8" cy="910.27" r="5.98"/><circle cx="278.81" cy="870.26" r="4.29"/><circle cx="278.8" cy="830.29" r="1.98"/><circle cx="257.8" cy="1050.26" r="9.61"/><circle cx="257.8" cy="1010.29" r="8.41"/><circle cx="257.8" cy="970.26" r="7.59"/><circle cx="257.8" cy="930.25" r="6.45"/><circle cx="258.78" cy="890.32" r="5.13"/><circle cx="258.81" cy="850.24" r="3.42"/><circle cx="258.77" cy="810.3" r="1.14"/><circle cx="237.71" cy="1070.2" r="9.8"/><circle cx="237.79" cy="1030.22" r="8.79"/><circle cx="237.79" cy="990.26" r="7.93"/><circle cx="237.78" cy="950.29" r="6.79"/><circle cx="237.78" cy="910.27" r="5.98"/><circle cx="238.79" cy="870.26" r="4.29"/><circle cx="238.78" cy="830.29" r="1.98"/><circle cx="217.78" cy="1050.26" r="9.61"/><circle cx="217.78" cy="1010.29" r="8.41"/><circle cx="217.78" cy="970.26" r="7.59"/><circle cx="217.78" cy="930.25" r="6.45"/><circle cx="218.76" cy="890.32" r="5.13"/><circle cx="218.79" cy="850.24" r="3.42"/><circle cx="218.75" cy="810.3" r="1.14"/><circle cx="197.69" cy="1070.2" r="9.8"/><circle cx="197.77" cy="1030.22" r="8.79"/><circle cx="197.78" cy="990.26" r="7.93"/><circle cx="197.76" cy="950.29" r="6.79"/><circle cx="197.76" cy="910.27" r="5.98"/><circle cx="198.78" cy="870.26" r="4.29"/><circle cx="198.76" cy="830.29" r="1.98"/><circle cx="177.76" cy="1050.26" r="9.61"/><circle cx="177.76" cy="1010.29" r="8.41"/><circle cx="177.76" cy="970.26" r="7.59"/><circle cx="177.76" cy="930.25" r="6.45"/><circle cx="178.74" cy="890.32" r="5.13"/><circle cx="178.77" cy="850.24" r="3.42"/><circle cx="178.73" cy="810.3" r="1.14"/><circle cx="157.67" cy="1070.2" r="9.8"/><circle cx="157.75" cy="1030.22" r="8.79"/><circle cx="157.76" cy="990.26" r="7.93"/><circle cx="157.74" cy="950.29" r="6.79"/><circle cx="157.74" cy="910.27" r="5.98"/><circle cx="158.76" cy="870.26" r="4.29"/><circle cx="158.74" cy="830.29" r="1.98"/><circle cx="137.74" cy="1050.26" r="9.61"/><circle cx="137.74" cy="1010.29" r="8.41"/><circle cx="137.74" cy="970.26" r="7.59"/><circle cx="137.74" cy="930.25" r="6.45"/><circle cx="138.72" cy="890.32" r="5.13"/><circle cx="138.75" cy="850.24" r="3.42"/><circle cx="138.71" cy="810.3" r="1.14"/><circle cx="117.65" cy="1070.2" r="9.8"/><circle cx="117.73" cy="1030.22" r="8.79"/><circle cx="117.74" cy="990.26" r="7.93"/><circle cx="117.72" cy="950.29" r="6.79"/><circle cx="117.72" cy="910.27" r="5.98"/><circle cx="118.74" cy="870.26" r="4.29"/><circle cx="118.72" cy="830.29" r="1.98"/><circle cx="97.72" cy="1050.26" r="9.61"/><circle cx="97.72" cy="1010.29" r="8.41"/><circle cx="97.72" cy="970.26" r="7.59"/><circle cx="97.72" cy="930.25" r="6.45"/><circle cx="98.7" cy="890.32" r="5.13"/><circle cx="98.73" cy="850.24" r="3.42"/><circle cx="98.7" cy="810.3" r="1.14"/><circle cx="77.63" cy="1070.2" r="9.8"/><circle cx="77.71" cy="1030.22" r="8.79"/><circle cx="77.72" cy="990.26" r="7.93"/><circle cx="77.7" cy="950.29" r="6.79"/><circle cx="77.7" cy="910.27" r="5.98"/><circle cx="78.72" cy="870.26" r="4.29"/><circle cx="78.7" cy="830.29" r="1.98"/><circle cx="57.7" cy="1050.26" r="9.61"/><circle cx="57.7" cy="1010.29" r="8.41"/><circle cx="57.7" cy="970.26" r="7.59"/><circle cx="57.7" cy="930.25" r="6.45"/><circle cx="58.68" cy="890.32" r="5.13"/><circle cx="58.71" cy="850.24" r="3.42"/><circle cx="58.68" cy="810.3" r="1.14"/><circle cx="37.61" cy="1070.2" r="9.8"/><circle cx="37.7" cy="1030.22" r="8.79"/><circle cx="37.7" cy="990.26" r="7.93"/><circle cx="37.68" cy="950.29" r="6.79"/><circle cx="37.69" cy="910.27" r="5.98"/><circle cx="38.7" cy="870.26" r="4.29"/><circle cx="38.69" cy="830.29" r="1.98"/><circle cx="17.68" cy="1050.26" r="9.61"/><circle cx="17.68" cy="1010.29" r="8.41"/><circle cx="17.68" cy="970.26" r="7.59"/><circle cx="17.68" cy="930.25" r="6.45"/><circle cx="18.67" cy="890.32" r="5.13"/><circle cx="18.69" cy="850.24" r="3.42"/><circle cx="18.66" cy="810.3" r="1.14"/><circle cx="-2.41" cy="1070.2" r="9.8"/><circle cx="-2.32" cy="1030.22" r="8.79"/><circle cx="-2.32" cy="990.26" r="7.93"/><circle cx="-2.33" cy="950.29" r="6.79"/><circle cx="-2.33" cy="910.27" r="5.98"/><circle cx="-1.32" cy="870.26" r="4.29"/><circle cx="-1.33" cy="830.29" r="1.98"/></svg>