<?xml version="1.0" encoding="utf-8"?>
<!-- Generator: Adobe Illustrator 22.0.1, SVG Export Plug-In . SVG Version: 6.00 Build 0)  -->
<!DOCTYPE svg PUBLIC "-//W3C//DTD SVG 1.1//EN" "http://www.w3.org/Graphics/SVG/1.1/DTD/svg11.dtd">
<svg version="1.1" id="圖層_1" xmlns="http://www.w3.org/2000/svg" xmlns:xlink="http://www.w3.org/1999/xlink" x="0px" y="0px"
	 viewBox="0 0 320 320" style="enable-background:new 0 0 320 320;" xml:space="preserve">
<style type="text/css">
	.st0{fill:#FFFFFF;}
</style>
<title>181106</title>
<rect x="134.6" y="214.6" transform="matrix(1 -2.443451e-03 2.443451e-03 1 -0.5665 0.4844)" class="st0" width="126.7" height="35"/>
<rect x="58.9" y="70.5" transform="matrix(1 -2.443451e-03 2.443451e-03 1 -0.2148 0.187)" class="st0" width="35" height="35"/>
<rect x="58.9" y="142.7" transform="matrix(1 -2.443451e-03 2.443451e-03 1 -0.3912 0.1872)" class="st0" width="35" height="35"/>
<rect x="58.9" y="214.9" transform="matrix(1 -2.443451e-03 2.443451e-03 1 -0.5676 0.1874)" class="st0" width="35" height="35"/>
<rect x="134.4" y="142.4" transform="matrix(1 -2.443451e-03 2.443451e-03 1 -0.3901 0.4837)" class="st0" width="126.7" height="35"/>
<rect x="134.3" y="70.2" transform="matrix(1 -2.443451e-03 2.443451e-03 1 -0.2137 0.4831)" class="st0" width="126.7" height="35"/>
</svg>
