<?xml version="1.0" encoding="utf-8"?>
<!-- Generator: Adobe Illustrator 22.0.1, SVG Export Plug-In . SVG Version: 6.00 Build 0)  -->
<!DOCTYPE svg PUBLIC "-//W3C//DTD SVG 1.1//EN" "http://www.w3.org/Graphics/SVG/1.1/DTD/svg11.dtd">
<svg version="1.1" id="圖層_1" xmlns="http://www.w3.org/2000/svg" xmlns:xlink="http://www.w3.org/1999/xlink" x="0px" y="0px"
	 viewBox="0 0 320 320" style="enable-background:new 0 0 320 320;" xml:space="preserve">
<style type="text/css">
	.st0{fill:#FFFFFF;}
</style>
<title>181106</title>
<g>
	<path class="st0" d="M160,50.8v12.5c13.4,0,26.1,2.7,37.6,7.6c17.3,7.3,32.1,19.6,42.6,35.1c10.4,15.5,16.5,34,16.5,54.1
		c0,13.4-2.7,26.1-7.6,37.6c-7.3,17.3-19.6,32.1-35.1,42.6c-15.5,10.4-34,16.5-54.1,16.5c-13.4,0-26.1-2.7-37.6-7.6
		c-17.3-7.3-32.1-19.6-42.6-35.1c-10.4-15.5-16.5-34-16.5-54.1c0-13.4,2.7-26.1,7.6-37.6c7.3-17.3,19.6-32.1,35.1-42.6
		c15.5-10.4,34-16.5,54.1-16.5V50.8V38.3c-16.8,0-32.8,3.4-47.4,9.6c-21.9,9.2-40.4,24.7-53.5,44.1C46,111.3,38.3,134.8,38.3,160
		c0,16.8,3.4,32.8,9.6,47.4c9.2,21.9,24.7,40.4,44.1,53.5c19.4,13.1,42.9,20.8,68.1,20.8c16.8,0,32.8-3.4,47.4-9.6
		c21.9-9.2,40.4-24.7,53.5-44.1c13.1-19.4,20.8-42.9,20.8-68.1c0-16.8-3.4-32.8-9.6-47.4c-9.2-21.9-24.7-40.4-44.1-53.5
		C208.7,46,185.2,38.3,160,38.3V50.8z"/>
	<polyline class="st0" points="147.5,50.8 147.5,269.2 172.5,269.2 172.5,50.8 	"/>
	<polyline class="st0" points="151.2,148 73.6,224.8 91.2,242.6 168.8,165.7 	"/>
</g>
</svg>
