<?xml version="1.0" encoding="utf-8"?>
<!-- Generator: Adobe Illustrator 22.0.1, SVG Export Plug-In . SVG Version: 6.00 Build 0)  -->
<!DOCTYPE svg PUBLIC "-//W3C//DTD SVG 1.1//EN" "http://www.w3.org/Graphics/SVG/1.1/DTD/svg11.dtd">
<svg version="1.1" id="圖層_1" xmlns="http://www.w3.org/2000/svg" xmlns:xlink="http://www.w3.org/1999/xlink" x="0px" y="0px"
	 viewBox="0 0 320 320" style="enable-background:new 0 0 320 320;" xml:space="preserve">
<style type="text/css">
	.st0{fill:#FFFFFF;}
</style>
<title>181106</title>
<g>
	<polyline class="st0" points="175.4,209.7 241.6,276 269.9,247.7 203.6,181.5 	"/>
	<path class="st0" d="M138.5,70.3v13.1c8.5,0,16.5,1.7,23.8,4.8c11,4.6,20.3,12.4,26.9,22.2c6.6,9.8,10.4,21.5,10.4,34.2
		c0,8.5-1.7,16.5-4.8,23.8c-4.6,11-12.4,20.3-22.2,26.9c-9.8,6.6-21.5,10.4-34.2,10.4c-8.5,0-16.5-1.7-23.8-4.8
		c-11-4.6-20.3-12.4-26.9-22.2c-6.6-9.8-10.4-21.5-10.4-34.2c0-8.5,1.7-16.5,4.8-23.8c4.6-11,12.4-20.3,22.2-26.9
		c9.8-6.6,21.5-10.4,34.2-10.4V70.3V57.2c-12,0-23.6,2.4-34,6.9c-15.7,6.6-29,17.7-38.4,31.7c-9.4,13.9-14.9,30.8-14.9,48.9
		c0,12,2.4,23.6,6.9,34c6.6,15.7,17.7,29,31.7,38.4c13.9,9.4,30.8,14.9,48.9,14.9c12,0,23.6-2.4,34-6.9c15.7-6.6,29-17.7,38.4-31.7
		c9.4-13.9,14.9-30.8,14.9-48.9c0-12-2.4-23.6-6.9-34c-6.6-15.7-17.7-29-31.7-38.4c-13.9-9.4-30.8-14.9-48.9-14.9V70.3z"/>
</g>
</svg>
