<?xml version="1.0" encoding="utf-8"?>
<!-- Generator: Adobe Illustrator 23.0.2, SVG Export Plug-In . SVG Version: 6.00 Build 0)  -->
<svg version="1.1" id="Layer_1" xmlns="http://www.w3.org/2000/svg" xmlns:xlink="http://www.w3.org/1999/xlink" x="0px" y="0px"
	 viewBox="0 0 446.4 40" style="enable-background:new 0 0 446.4 40;" xml:space="preserve">
<style type="text/css">
	.st0{fill:#8D2143;}
</style>
<g>
	<path class="st0" d="M19.5,4.6c2.9,0,5.1,0.7,6.5,2.1c1.4,1.4,2.1,3.3,2.1,5.7c0,0.8-0.1,1.6-0.3,2.4c-0.2,0.8-0.5,1.5-0.9,2.1
		c-0.4,0.6-0.9,1.2-1.5,1.6c-0.6,0.4-1.4,0.8-2.3,0.9v0.1c1,0.1,1.9,0.4,2.6,0.8s1.3,1,1.8,1.7c0.5,0.7,0.8,1.4,1,2.2
		s0.3,1.6,0.3,2.5c0,1.4-0.2,2.6-0.5,3.8c-0.4,1.1-0.9,2.1-1.7,3C26,34.3,25,35,23.8,35.4c-1.2,0.5-2.7,0.7-4.4,0.7H7V4.6H19.5z
		 M17.2,17c0.9,0,1.5-0.3,1.9-0.9c0.4-0.6,0.7-1.4,0.7-2.2c0-0.9-0.2-1.6-0.7-2.3c-0.4-0.6-1.1-1-1.9-1h-2V17H17.2z M17.6,30.2
		c0.8,0,1.4-0.3,2-1c0.6-0.6,0.9-1.6,0.9-2.9c0-1.2-0.3-2.2-0.9-2.8c-0.6-0.6-1.3-1-2-1h-2.3v7.7H17.6z"/>
	<path class="st0" d="M40.3,4.6v24.8h10.1v6.7H32.1V4.6H40.3z"/>
	<path class="st0" d="M68.1,4.6l7.7,31.5H67l-0.8-5.5h-6.5l-0.8,5.5h-8.6l7.5-31.5H68.1z M62.9,11l-2.3,13.4h4.6L62.9,11L62.9,11z"
		/>
	<path class="st0" d="M89,4.6c2.4,0,4.2,0.4,5.6,1.3c1.3,0.9,2.3,2,3,3.5c0.7,1.5,1.1,3.1,1.2,5c0.1,1.9,0.2,3.9,0.2,5.9
		c0,2.1-0.1,4-0.2,5.9c-0.1,1.9-0.6,3.6-1.2,5c-0.7,1.5-1.7,2.6-3,3.5c-1.3,0.9-3.2,1.3-5.6,1.3H77.1V4.6H89z M87,30.2
		c0.8,0,1.4-0.1,1.9-0.3c0.5-0.2,0.8-0.7,1.1-1.4c0.2-0.7,0.4-1.7,0.5-3c0.1-1.3,0.1-3,0.1-5.1s0-3.8-0.1-5.1
		c-0.1-1.3-0.2-2.3-0.5-3c-0.3-0.7-0.6-1.2-1.1-1.4c-0.5-0.2-1.1-0.3-1.9-0.3h-1.6v19.7H87z"/>
	<path class="st0" d="M121.1,4.6v6.7h-10.5v5.4h9.8v6.4h-9.8v6.3h10.9v6.7h-19.1V4.6H121.1z"/>
	<path class="st0" d="M132.7,4.6v24.8h10.1v6.7h-18.3V4.6H132.7z"/>
	<path class="st0" d="M163.7,4.6v6.7h-10.5v5.4h9.8v6.4h-9.8v6.3H164v6.7H145V4.6H163.7z"/>
	<path class="st0" d="M179.3,12.9c0-0.9-0.2-1.7-0.6-2.4c-0.4-0.7-1-1-1.8-1c-0.9,0-1.5,0.3-1.9,0.9c-0.4,0.6-0.6,1.2-0.6,1.9
		c0,1,0.3,1.8,1,2.5c0.7,0.6,1.5,1.1,2.5,1.6c1,0.4,2.1,0.9,3.2,1.3c1.1,0.5,2.2,1.1,3.2,1.8c1,0.7,1.8,1.7,2.5,2.9
		c0.7,1.2,1,2.7,1,4.7c0,3.4-1,5.8-2.9,7.3c-1.9,1.5-4.7,2.3-8.3,2.3c-1.7,0-3.2-0.1-4.5-0.4s-2.4-0.8-3.3-1.5
		c-0.9-0.7-1.6-1.6-2.1-2.7c-0.5-1.1-0.7-2.5-0.7-4.2v-1.1h7.9v0.8c0,1.4,0.2,2.3,0.8,2.8c0.5,0.5,1.1,0.8,1.9,0.8
		c0.9,0,1.5-0.3,2-0.9c0.5-0.6,0.7-1.3,0.7-2.2c0-1-0.3-1.8-0.9-2.5c-0.6-0.6-1.4-1.1-2.4-1.5c-1-0.4-2-0.9-3.1-1.3
		c-1.1-0.4-2.2-1-3.1-1.7c-1-0.7-1.8-1.6-2.4-2.8c-0.6-1.1-0.9-2.6-0.9-4.5c0-3.2,0.9-5.7,2.6-7.3c1.7-1.7,4.3-2.5,7.8-2.5
		c3.6,0,6.2,0.8,7.8,2.3s2.4,4,2.4,7.4h-7.7V12.9z"/>
	<path class="st0" d="M203,12.9c0-0.9-0.2-1.7-0.6-2.4c-0.4-0.7-1-1-1.8-1c-0.9,0-1.5,0.3-1.9,0.9c-0.4,0.6-0.6,1.2-0.6,1.9
		c0,1,0.3,1.8,1,2.5c0.7,0.6,1.5,1.1,2.5,1.6c1,0.4,2.1,0.9,3.2,1.3c1.1,0.5,2.2,1.1,3.2,1.8c1,0.7,1.8,1.7,2.5,2.9
		c0.7,1.2,1,2.7,1,4.7c0,3.4-1,5.8-2.9,7.3c-1.9,1.5-4.7,2.3-8.3,2.3c-1.7,0-3.2-0.1-4.5-0.4s-2.4-0.8-3.3-1.5
		c-0.9-0.7-1.6-1.6-2.1-2.7c-0.5-1.1-0.7-2.5-0.7-4.2v-1.1h7.9v0.8c0,1.4,0.2,2.3,0.8,2.8c0.5,0.5,1.1,0.8,1.9,0.8
		c0.9,0,1.5-0.3,2-0.9c0.5-0.6,0.7-1.3,0.7-2.2c0-1-0.3-1.8-0.9-2.5c-0.6-0.6-1.4-1.1-2.4-1.5c-1-0.4-2-0.9-3.1-1.3
		c-1.1-0.4-2.2-1-3.1-1.7c-1-0.7-1.8-1.6-2.4-2.8c-0.6-1.1-0.9-2.6-0.9-4.5c0-3.2,0.9-5.7,2.6-7.3c1.7-1.7,4.3-2.5,7.8-2.5
		c3.6,0,6.2,0.8,7.8,2.3s2.4,4,2.4,7.4H203V12.9z"/>
	<path class="st0" d="M234.2,4.6v11.6h5V4.6h8.2v31.5h-8.2v-13h-5v13H226V4.6H234.2z"/>
	<path class="st0" d="M266.8,4.6l7.7,31.5h-8.7l-0.8-5.5h-6.5l-0.8,5.5h-8.6l7.5-31.5H266.8z M261.6,11l-2.3,13.4h4.6L261.6,11
		L261.6,11z"/>
	<path class="st0" d="M283.7,4.6v31.5h-8.2V4.6H283.7z"/>
	<path class="st0" d="M300.2,4.6c1.6,0,2.9,0.2,4,0.6s2,1,2.7,1.7c0.7,0.8,1.2,1.6,1.5,2.7c0.3,1,0.5,2.1,0.5,3.4
		c0,2.1-0.4,3.8-1.3,5.1c-0.9,1.3-2.2,2.1-4.1,2.4v0.1c2,0.2,3.3,0.9,4.1,2.1c0.7,1.2,1.1,2.9,1.1,5v2.7c0,0.4,0,0.8,0,1.3
		s0,0.9,0,1.3s0.1,0.8,0.1,1.1c0.1,0.3,0.1,0.6,0.2,0.8c0.1,0.2,0.2,0.3,0.4,0.5c0.1,0.2,0.3,0.3,0.6,0.5v0.4h-8.7
		c-0.2-0.4-0.4-0.9-0.5-1.5c-0.1-0.6-0.2-1.1-0.2-1.7c0-0.6-0.1-1.1-0.1-1.6c0-0.5,0-0.9,0-1.3V28c0-0.9,0-1.6-0.1-2.2
		c-0.1-0.6-0.2-1.1-0.5-1.4c-0.2-0.3-0.5-0.6-0.8-0.7c-0.3-0.1-0.8-0.2-1.3-0.2h-2.2v12.6h-8.2V4.6H300.2z M297.2,17.9
		c1.2,0,2-0.3,2.6-1c0.6-0.7,0.8-1.6,0.8-2.7c0-1.3-0.3-2.3-0.8-2.8c-0.5-0.6-1.4-0.8-2.7-0.8h-1.6v7.4H297.2z"/>
	<path class="st0" d="M336.1,4.6c2.4,0,4.2,0.4,5.6,1.3c1.3,0.9,2.3,2,3,3.5c0.7,1.5,1.1,3.1,1.2,5c0.1,1.9,0.2,3.9,0.2,5.9
		c0,2.1-0.1,4-0.2,5.9c-0.1,1.9-0.6,3.6-1.2,5c-0.7,1.5-1.7,2.6-3,3.5c-1.3,0.9-3.2,1.3-5.6,1.3h-11.9V4.6H336.1z M334,30.2
		c0.8,0,1.4-0.1,1.9-0.3c0.5-0.2,0.8-0.7,1.1-1.4c0.2-0.7,0.4-1.7,0.5-3c0.1-1.3,0.1-3,0.1-5.1s0-3.8-0.1-5.1
		c-0.1-1.3-0.2-2.3-0.5-3c-0.3-0.7-0.6-1.2-1.1-1.4c-0.5-0.2-1.1-0.3-1.9-0.3h-1.6v19.7H334z"/>
	<path class="st0" d="M362.3,4.6c1.6,0,2.9,0.2,4,0.6s2,1,2.7,1.7c0.7,0.8,1.2,1.6,1.5,2.7c0.3,1,0.5,2.1,0.5,3.4
		c0,2.1-0.4,3.8-1.3,5.1c-0.9,1.3-2.2,2.1-4.1,2.4v0.1c2,0.2,3.3,0.9,4.1,2.1c0.7,1.2,1.1,2.9,1.1,5v2.7c0,0.4,0,0.8,0,1.3
		s0,0.9,0,1.3s0.1,0.8,0.1,1.1c0.1,0.3,0.1,0.6,0.2,0.8c0.1,0.2,0.2,0.3,0.4,0.5c0.1,0.2,0.3,0.3,0.6,0.5v0.4h-8.7
		c-0.2-0.4-0.4-0.9-0.5-1.5c-0.1-0.6-0.2-1.1-0.2-1.7c0-0.6-0.1-1.1-0.1-1.6c0-0.5,0-0.9,0-1.3V28c0-0.9,0-1.6-0.1-2.2
		c-0.1-0.6-0.2-1.1-0.5-1.4c-0.2-0.3-0.5-0.6-0.8-0.7c-0.3-0.1-0.8-0.2-1.3-0.2h-2.2v12.6h-8.2V4.6H362.3z M359.3,17.9
		c1.2,0,2-0.3,2.6-1c0.6-0.7,0.8-1.6,0.8-2.7c0-1.3-0.3-2.3-0.8-2.8c-0.5-0.6-1.4-0.8-2.7-0.8h-1.6v7.4H359.3z"/>
	<path class="st0" d="M371.3,4.6h8.9l3.1,11h0.1l3.1-11h9l-8,19.1v12.4h-8.2V23.7L371.3,4.6z"/>
	<path class="st0" d="M415.4,4.6v6.7h-10.5v5.4h9.8v6.4h-9.8v6.3h10.9v6.7h-19.1V4.6H415.4z"/>
	<path class="st0" d="M431.6,4.6c1.6,0,2.9,0.2,4,0.6s2,1,2.7,1.7c0.7,0.8,1.2,1.6,1.5,2.7c0.3,1,0.5,2.1,0.5,3.4
		c0,2.1-0.4,3.8-1.3,5.1c-0.9,1.3-2.2,2.1-4.1,2.4v0.1c2,0.2,3.3,0.9,4.1,2.1c0.7,1.2,1.1,2.9,1.1,5v2.7c0,0.4,0,0.8,0,1.3
		s0,0.9,0,1.3s0.1,0.8,0.1,1.1c0.1,0.3,0.1,0.6,0.2,0.8c0.1,0.2,0.2,0.3,0.4,0.5c0.1,0.2,0.3,0.3,0.6,0.5v0.4h-8.7
		c-0.2-0.4-0.4-0.9-0.5-1.5c-0.1-0.6-0.2-1.1-0.2-1.7c0-0.6-0.1-1.1-0.1-1.6c0-0.5,0-0.9,0-1.3V28c0-0.9,0-1.6-0.1-2.2
		c-0.1-0.6-0.2-1.1-0.5-1.4c-0.2-0.3-0.5-0.6-0.8-0.7c-0.3-0.1-0.8-0.2-1.3-0.2H427v12.6h-8.2V4.6H431.6z M428.6,17.9
		c1.2,0,2-0.3,2.6-1c0.6-0.7,0.8-1.6,0.8-2.7c0-1.3-0.3-2.3-0.8-2.8c-0.5-0.6-1.4-0.8-2.7-0.8H427v7.4H428.6z"/>
</g>
</svg>
