<?xml version="1.0" encoding="utf-8"?>
<!-- Generator: Adobe Illustrator 23.0.2, SVG Export Plug-In . SVG Version: 6.00 Build 0)  -->
<svg version="1.1" id="Layer_1" xmlns="http://www.w3.org/2000/svg" xmlns:xlink="http://www.w3.org/1999/xlink" x="0px" y="0px"
	 viewBox="0 0 370.5 40" style="enable-background:new 0 0 370.5 40;" xml:space="preserve">
<style type="text/css">
	.st0{fill:#8D2143;}
</style>
<g>
	<g>
		<path class="st0" d="M17.3,5.2l3.1,17.6h0.1l3.1-17.6h11.1V35h-7.3V12.8h-0.1L23.3,35h-5.6l-4.1-22.2h-0.1V35H6.2V5.2H17.3z"/>
		<path class="st0" d="M45.5,26.7c0,1.4,0.2,2.4,0.6,2.9s1,0.7,1.7,0.7s1.3-0.2,1.7-0.7s0.6-1.5,0.6-2.9V5.2H58v19.5
			c0,2.1-0.2,3.8-0.7,5.2c-0.4,1.4-1.1,2.5-1.9,3.3c-0.8,0.8-1.9,1.4-3.1,1.7s-2.7,0.5-4.3,0.5c-1.6,0-3.1-0.2-4.3-0.5
			c-1.3-0.3-2.3-0.9-3.2-1.7c-0.8-0.8-1.5-1.9-1.9-3.3c-0.4-1.4-0.7-3.1-0.7-5.2V5.2h7.8V26.7z"/>
		<path class="st0" d="M69,5.2v23.4h9.5V35H61.3V5.2H69z"/>
		<path class="st0" d="M75.7,11.8V5.2H95v6.6h-5.8V35h-7.8V11.8H75.7z"/>
		<path class="st0" d="M104.2,5.2V35h-7.8V5.2H104.2z"/>
		<path class="st0" d="M120,19.8v6.3h-13v-6.3H120z"/>
		<path class="st0" d="M121.1,11.8V5.2h19.3v6.6h-5.8V35h-7.8V11.8H121.1z"/>
		<path class="st0" d="M141.9,13c0.4-2,1-3.6,1.8-4.8c0.8-1.2,1.9-2.1,3.3-2.7c1.4-0.6,3-0.9,5-0.9s3.6,0.3,5,0.9
			c1.4,0.6,2.5,1.5,3.3,2.7c0.8,1.2,1.4,2.8,1.8,4.8c0.4,2,0.5,4.3,0.5,7.1c0,2.8-0.2,5.1-0.5,7.1c-0.4,2-1,3.6-1.8,4.8
			c-0.8,1.2-1.9,2.1-3.3,2.6c-1.4,0.5-3,0.8-5,0.8s-3.6-0.3-5-0.8c-1.4-0.5-2.5-1.4-3.3-2.6c-0.8-1.2-1.4-2.8-1.8-4.8
			c-0.4-2-0.5-4.3-0.5-7.1C141.3,17.3,141.5,15,141.9,13z M149.4,25.1c0.1,1.3,0.2,2.4,0.4,3.1c0.2,0.8,0.4,1.3,0.8,1.6
			c0.3,0.3,0.8,0.5,1.4,0.5c0.6,0,1-0.2,1.4-0.5c0.3-0.3,0.6-0.8,0.8-1.6s0.3-1.8,0.4-3.1s0.1-3,0.1-5s0-3.7-0.1-5
			c-0.1-1.3-0.2-2.4-0.4-3.1c-0.2-0.8-0.4-1.3-0.8-1.6c-0.3-0.3-0.8-0.5-1.4-0.5c-0.6,0-1,0.2-1.4,0.5c-0.3,0.3-0.6,0.8-0.8,1.6
			c-0.2,0.8-0.3,1.8-0.4,3.1c-0.1,1.3-0.1,3-0.1,5S149.4,23.8,149.4,25.1z"/>
		<path class="st0" d="M172.8,26.7c0,1.4,0.2,2.4,0.6,2.9s1,0.7,1.7,0.7s1.3-0.2,1.7-0.7s0.6-1.5,0.6-2.9V5.2h7.8v19.5
			c0,2.1-0.2,3.8-0.7,5.2c-0.4,1.4-1.1,2.5-1.9,3.3c-0.8,0.8-1.9,1.4-3.1,1.7s-2.7,0.5-4.3,0.5c-1.6,0-3.1-0.2-4.3-0.5
			c-1.3-0.3-2.3-0.9-3.2-1.7c-0.8-0.8-1.5-1.9-1.9-3.3c-0.4-1.4-0.7-3.1-0.7-5.2V5.2h7.8V26.7z"/>
		<path class="st0" d="M200,10.8c-0.3-0.6-0.9-0.9-1.6-0.9c-0.6,0-1,0.2-1.4,0.5c-0.3,0.3-0.6,0.8-0.8,1.6c-0.2,0.8-0.3,1.8-0.4,3.1
			c-0.1,1.3-0.1,3-0.1,5s0,3.7,0.1,5c0.1,1.3,0.2,2.4,0.4,3.1c0.2,0.8,0.4,1.3,0.8,1.6c0.3,0.3,0.8,0.5,1.4,0.5
			c0.5,0,0.9-0.1,1.2-0.4c0.3-0.2,0.5-0.6,0.7-1.2s0.3-1.3,0.4-2.2c0.1-0.9,0.1-2.1,0.1-3.5h7.5v2.2c0,2.1-0.3,3.8-0.8,5.1
			c-0.6,1.3-1.3,2.4-2.2,3.1c-0.9,0.8-2,1.3-3.1,1.5c-1.2,0.3-2.4,0.4-3.6,0.4c-2.2,0-3.9-0.3-5.3-0.8c-1.4-0.5-2.5-1.4-3.3-2.6
			c-0.8-1.2-1.3-2.8-1.6-4.8c-0.3-2-0.4-4.3-0.4-7.1c0-2.8,0.2-5.2,0.5-7.2c0.3-2,0.9-3.6,1.8-4.8c0.8-1.2,1.9-2.1,3.3-2.6
			c1.4-0.5,3-0.8,5-0.8c1.8,0,3.2,0.2,4.5,0.7c1.2,0.4,2.2,1.1,3,1.9c0.8,0.8,1.3,1.8,1.7,3c0.3,1.2,0.5,2.5,0.5,3.9V16h-7.5v-1.7
			C200.5,12.6,200.3,11.4,200,10.8z"/>
		<path class="st0" d="M218.7,5.2v10.9h4.8V5.2h7.8V35h-7.8V22.8h-4.8V35H211V5.2H218.7z"/>
		<path class="st0" d="M256.6,5.2l3.1,17.6h0.1l3.1-17.6H274V35h-7.3V12.8h-0.1L262.5,35h-5.6l-4.1-22.2h-0.1V35h-7.3V5.2H256.6z"/>
		<path class="st0" d="M277,13c0.4-2,1-3.6,1.8-4.8c0.8-1.2,1.9-2.1,3.3-2.7c1.4-0.6,3-0.9,5-0.9s3.6,0.3,5,0.9
			c1.4,0.6,2.5,1.5,3.3,2.7c0.8,1.2,1.4,2.8,1.8,4.8c0.4,2,0.5,4.3,0.5,7.1c0,2.8-0.2,5.1-0.5,7.1c-0.4,2-1,3.6-1.8,4.8
			c-0.8,1.2-1.9,2.1-3.3,2.6c-1.4,0.5-3,0.8-5,0.8s-3.6-0.3-5-0.8c-1.4-0.5-2.5-1.4-3.3-2.6c-0.8-1.2-1.4-2.8-1.8-4.8
			c-0.4-2-0.5-4.3-0.5-7.1C276.5,17.3,276.7,15,277,13z M284.6,25.1c0.1,1.3,0.2,2.4,0.4,3.1c0.2,0.8,0.4,1.3,0.8,1.6
			c0.3,0.3,0.8,0.5,1.4,0.5c0.6,0,1-0.2,1.4-0.5c0.3-0.3,0.6-0.8,0.8-1.6s0.3-1.8,0.4-3.1s0.1-3,0.1-5s0-3.7-0.1-5
			c-0.1-1.3-0.2-2.4-0.4-3.1c-0.2-0.8-0.4-1.3-0.8-1.6c-0.3-0.3-0.8-0.5-1.4-0.5c-0.6,0-1,0.2-1.4,0.5c-0.3,0.3-0.6,0.8-0.8,1.6
			c-0.2,0.8-0.3,1.8-0.4,3.1c-0.1,1.3-0.1,3-0.1,5S284.5,23.8,284.6,25.1z"/>
		<path class="st0" d="M308,26.7c0,1.4,0.2,2.4,0.6,2.9s1,0.7,1.7,0.7s1.3-0.2,1.7-0.7s0.6-1.5,0.6-2.9V5.2h7.8v19.5
			c0,2.1-0.2,3.8-0.7,5.2c-0.4,1.4-1.1,2.5-1.9,3.3c-0.8,0.8-1.9,1.4-3.1,1.7s-2.7,0.5-4.3,0.5c-1.6,0-3.1-0.2-4.3-0.5
			c-1.3-0.3-2.3-0.9-3.2-1.7c-0.8-0.8-1.5-1.9-1.9-3.3c-0.4-1.4-0.7-3.1-0.7-5.2V5.2h7.8V26.7z"/>
		<path class="st0" d="M335.3,13.1c0-0.9-0.2-1.6-0.5-2.3s-0.9-0.9-1.7-0.9c-0.8,0-1.4,0.3-1.8,0.8s-0.6,1.1-0.6,1.8
			c0,1,0.3,1.7,0.9,2.3c0.6,0.6,1.4,1.1,2.4,1.5c0.9,0.4,2,0.8,3,1.3c1.1,0.4,2.1,1,3,1.7c0.9,0.7,1.7,1.6,2.4,2.7
			c0.6,1.1,0.9,2.6,0.9,4.4c0,3.2-0.9,5.5-2.7,6.9c-1.8,1.4-4.4,2.1-7.8,2.1c-1.6,0-3-0.1-4.3-0.4c-1.2-0.3-2.3-0.7-3.1-1.4
			c-0.8-0.7-1.5-1.5-1.9-2.6c-0.4-1.1-0.7-2.4-0.7-3.9v-1h7.5v0.7c0,1.3,0.2,2.2,0.7,2.7s1.1,0.8,1.8,0.8c0.8,0,1.4-0.3,1.9-0.8
			c0.4-0.6,0.6-1.2,0.6-2c0-1-0.3-1.7-0.9-2.3c-0.6-0.6-1.3-1.1-2.3-1.5c-0.9-0.4-1.9-0.8-2.9-1.2c-1.1-0.4-2-1-2.9-1.6
			c-0.9-0.7-1.7-1.5-2.3-2.6c-0.6-1.1-0.9-2.5-0.9-4.3c0-3,0.8-5.3,2.4-6.9s4.1-2.4,7.3-2.4c3.4,0,5.8,0.7,7.4,2.2
			c1.5,1.5,2.3,3.8,2.3,7h-7.3V13.1z"/>
		<path class="st0" d="M363.8,5.2v6.3h-9.9v5.1h9.3v6.1h-9.3v5.9h10.3V35h-18V5.2H363.8z"/>
	</g>
</g>
<text transform="matrix(1 0 0 1 113.2881 125.1572)" style="font-family:'HelveticaNeue-CondensedBlack'; font-size:41.6981px;">CAMERA DRONE</text>
</svg>
